<svg xmlns="http://www.w3.org/2000/svg" width="220.859" height="211.347" viewBox="0 0 320.859 211.347">
  <g id="Group_485" data-name="Group 485" transform="translate(25.778 -3227.363)">
    <path id="dove" d="M197.994,105.18c-1.355-.459-5-1.929-6-3.362a14.61,14.61,0,0,1-.72-1.338C189.433,96.835,185.12,88.3,176.41,88.3a15.286,15.286,0,0,0-4.269.643c-8.188,2.389-12.118,7.821-14.986,11.787-1.652,2.284-2.957,4.088-4.427,4.37a6.9,6.9,0,0,1-1.29.134c-1.4,0-2.188-.533-2.335-1.585a92.746,92.746,0,0,1-.292-14.089c.221-8.626.47-18.4-2.4-26.074-4.675-12.506-15.113-22.582-23.5-30.677-2.1-2.023-4.075-3.934-5.773-5.691-.652-.805-1.33-1.538-1.985-2.247a22.963,22.963,0,0,1-2.506-3.023,70.393,70.393,0,0,1-6.491-14.069q-.242-.772-.48-1.558a7.279,7.279,0,0,0-.857-1.955C103.893,2.043,102.8,0,101.112,0a2.267,2.267,0,0,0-.8.153c-2.9,1.1-3.538,7.114-4.1,12.423a30.174,30.174,0,0,1-1.093,6.568,9.962,9.962,0,0,1-2.876,3.623,9.6,9.6,0,0,0-3.354,4.819,6.315,6.315,0,0,0,.626,5.025,5.914,5.914,0,0,1,.753,3.886,6.959,6.959,0,0,1-2.095,3.855,6.955,6.955,0,0,0-2.2,4.37c-.181,2.175.963,3.586,2.069,4.953C89.01,50.868,89.924,52,89.9,53.6c-.019,1.362-.826,2.039-1.847,2.9-1.338,1.124-3,2.522-2.456,5.888.361,2.224,1.829,3.385,3.125,4.409,1.246.985,2.007,1.646,1.952,2.77a12.544,12.544,0,0,1-.583,2.733c-.665,2.306-1.419,4.921.532,7.786a38.527,38.527,0,0,0,5.642,5.222c-7.136-3.269-17.734-7.394-28.817-9.133-18.179-2.852-35.81-9.9-45.282-13.693-4.459-1.783-6.464-2.572-7.254-2.572a.707.707,0,0,0-.73.45c-.188.521.264,1.012,1.349,1.913l2.919,2.422c3.915,3.246,6.987,5.793,8.293,7.075q-.957-.34-2.736-1.113A1.06,1.06,0,0,0,22.6,70.9a1.3,1.3,0,0,0-.2.753c0,3.455,9.95,20.446,23.7,36.841,9.921,11.832,28.98,31.681,45.168,31.681a18.883,18.883,0,0,0,2.841-.212c-6.437,6.66-29.836,24.209-50.582,32.82C18.459,183.183,7.142,188.53,6.35,192.707a2.823,2.823,0,0,0,.977,2.637,4.622,4.622,0,0,0,3.238,1.561,6.64,6.64,0,0,0,2.191-.491,6.811,6.811,0,0,1,2.273-.5,5.51,5.51,0,0,1,2.944.992c2.629,1.664,5.786,3.441,10,3.441,4.389,0,9.232-1.92,14.806-5.87a5.087,5.087,0,0,1,3.072-1.07,11.015,11.015,0,0,1,1.841.209,12.787,12.787,0,0,0,2.192.238h0a8.679,8.679,0,0,0,5.372-2.1c13.8-10.577,28.846-12.557,44.778-14.654,18.793-2.473,38.226-5.031,59.125-21.1,17.786-13.678,21.3-25.424,23.619-33.2.245-.819.475-1.59.707-2.31,2.327-7.213,3.691-8.9,5.4-9.484,1.13-.389,3.928-1.519,6.4-2.516,1.737-.7,3.238-1.307,3.653-1.45.613-.211.686-.586.674-.792S199.565,105.541,197.994,105.18Z" transform="translate(-29.572 3229.863)" fill="none" stroke="#bebebe" stroke-width="5"/>
    <path id="dove-2" data-name="dove" d="M.982,64.178c.827-.278,3.05-1.172,3.659-2.047a8.88,8.88,0,0,0,.438-.817c1.119-2.226,3.739-7.44,9.06-7.427a9.35,9.35,0,0,1,2.609.4c5.006,1.473,7.416,4.8,9.175,7.231,1.013,1.4,1.814,2.5,2.712,2.679a4.216,4.216,0,0,0,.788.084c.857,0,1.336-.323,1.424-.966A56.761,56.761,0,0,0,31,54.7c-.15-5.276-.32-11.255,1.419-15.942,2.834-7.641,9.193-13.787,14.3-18.726,1.277-1.234,2.483-2.4,3.517-3.471.4-.491.81-.938,1.209-1.371a13.93,13.93,0,0,0,1.526-1.845,42.813,42.813,0,0,0,3.941-8.594q.147-.472.291-.952a4.428,4.428,0,0,1,.52-1.194C58.288,1.245,58.953,0,59.983,0a1.388,1.388,0,0,1,.49.095C62.248.77,62.648,4.451,63,7.7a18.52,18.52,0,0,0,.679,4.018,6.138,6.138,0,0,0,1.763,2.22A5.913,5.913,0,0,1,67.5,16.889a3.858,3.858,0,0,1-.374,3.072,3.609,3.609,0,0,0-.453,2.375A4.285,4.285,0,0,0,67.96,24.7a4.281,4.281,0,0,1,1.349,2.676A4.064,4.064,0,0,1,68.053,30.4a3.7,3.7,0,0,0-1.128,2.4c.014.833.508,1.248,1.133,1.775a3.441,3.441,0,0,1,1.511,3.6,4.211,4.211,0,0,1-1.9,2.692c-.759.6-1.223,1-1.188,1.691a7.7,7.7,0,0,0,.361,1.672c.41,1.412.875,3.011-.311,4.761a23.36,23.36,0,0,1-3.438,3.185A69.677,69.677,0,0,1,80.68,46.634c11.1-1.717,21.858-6,27.638-8.306a22.323,22.323,0,0,1,4.427-1.562.435.435,0,0,1,.447.276c.116.319-.159.618-.821,1.168l-1.779,1.477c-2.386,1.979-4.258,3.533-5.054,4.314q.584-.207,1.669-.677a.649.649,0,0,1,.859.149.8.8,0,0,1,.122.461c.006,2.113-6.043,12.489-14.411,22.495-6.04,7.221-17.649,19.331-27.537,19.307a11.536,11.536,0,0,1-1.736-.134c3.944,4.083,18.269,14.85,30.957,20.147,15.332,6.4,22.255,9.688,22.746,12.244a1.719,1.719,0,0,1-.592,1.611,2.806,2.806,0,0,1-1.975.949,4.066,4.066,0,0,1-1.339-.3,4.171,4.171,0,0,0-1.39-.311,3.348,3.348,0,0,0-1.8.6,11.028,11.028,0,0,1-6.1,2.089c-2.681-.007-5.643-1.188-9.055-3.612a3.12,3.12,0,0,0-1.879-.659,6.71,6.71,0,0,0-1.124.125,7.791,7.791,0,0,1-1.339.142h0a5.326,5.326,0,0,1-3.285-1.293c-8.448-6.489-17.644-7.722-27.38-9.029-11.485-1.541-23.361-3.134-36.155-12.995C13.907,86.919,11.742,79.731,10.31,74.974c-.151-.5-.293-.973-.436-1.414C8.439,69.145,7.6,68.113,6.561,67.752c-.691-.24-2.4-.935-3.912-1.548-1.062-.431-1.98-.8-2.234-.893-.375-.13-.42-.359-.413-.485S.023,64.4.982,64.178Z" transform="matrix(1, -0.017, 0.017, 1, 166.759, 3305.654)" fill="none" stroke="#bebebe" stroke-width="5"/>
    <path id="dove-3" data-name="dove" d="M197.994,105.18c-1.355-.459-5-1.929-6-3.362a14.61,14.61,0,0,1-.72-1.338C189.433,96.835,185.12,88.3,176.41,88.3a15.286,15.286,0,0,0-4.269.643c-8.188,2.389-12.118,7.821-14.986,11.787-1.652,2.284-2.957,4.088-4.427,4.37a6.9,6.9,0,0,1-1.29.134c-1.4,0-2.188-.533-2.335-1.585a92.746,92.746,0,0,1-.292-14.089c.221-8.626.47-18.4-2.4-26.074-4.675-12.506-15.113-22.582-23.5-30.677-2.1-2.023-4.075-3.934-5.773-5.691-.652-.805-1.33-1.538-1.985-2.247a22.963,22.963,0,0,1-2.506-3.023,70.393,70.393,0,0,1-6.491-14.069q-.242-.772-.48-1.558a7.279,7.279,0,0,0-.857-1.955C103.893,2.043,102.8,0,101.112,0a2.267,2.267,0,0,0-.8.153c-2.9,1.1-3.538,7.114-4.1,12.423a30.174,30.174,0,0,1-1.093,6.568,9.962,9.962,0,0,1-2.876,3.623,9.6,9.6,0,0,0-3.354,4.819,6.315,6.315,0,0,0,.626,5.025,5.914,5.914,0,0,1,.753,3.886,6.959,6.959,0,0,1-2.095,3.855,6.955,6.955,0,0,0-2.2,4.37c-.181,2.175.963,3.586,2.069,4.953C89.01,50.868,89.924,52,89.9,53.6c-.019,1.362-.826,2.039-1.847,2.9-1.338,1.124-3,2.522-2.456,5.888.361,2.224,1.829,3.385,3.125,4.409,1.246.985,2.007,1.646,1.952,2.77a12.544,12.544,0,0,1-.583,2.733c-.665,2.306-1.419,4.921.532,7.786a38.527,38.527,0,0,0,5.642,5.222c-7.136-3.269-17.734-7.394-28.817-9.133-18.179-2.852-35.81-9.9-45.282-13.693-4.459-1.783-6.464-2.572-7.254-2.572a.707.707,0,0,0-.73.45c-.188.521.264,1.012,1.349,1.913l2.919,2.422c3.915,3.246,6.987,5.793,8.293,7.075q-.957-.34-2.736-1.113A1.06,1.06,0,0,0,22.6,70.9a1.3,1.3,0,0,0-.2.753c0,3.455,9.95,20.446,23.7,36.841,9.921,11.832,28.98,31.681,45.168,31.681a18.883,18.883,0,0,0,2.841-.212c-6.437,6.66-29.836,24.209-50.582,32.82C18.459,183.183,7.142,188.53,6.35,192.707a2.823,2.823,0,0,0,.977,2.637,4.622,4.622,0,0,0,3.238,1.561,6.64,6.64,0,0,0,2.191-.491,6.811,6.811,0,0,1,2.273-.5,5.51,5.51,0,0,1,2.944.992c2.629,1.664,5.786,3.441,10,3.441,4.389,0,9.232-1.92,14.806-5.87a5.087,5.087,0,0,1,3.072-1.07,11.015,11.015,0,0,1,1.841.209,12.787,12.787,0,0,0,2.192.238h0a8.679,8.679,0,0,0,5.372-2.1c13.8-10.577,28.846-12.557,44.778-14.654,18.793-2.473,38.226-5.031,59.125-21.1,17.786-13.678,21.3-25.424,23.619-33.2.245-.819.475-1.59.707-2.31,2.327-7.213,3.691-8.9,5.4-9.484,1.13-.389,3.928-1.519,6.4-2.516,1.737-.7,3.238-1.307,3.653-1.45.613-.211.686-.586.674-.792S199.565,105.541,197.994,105.18Z" transform="translate(-25.729 3238.367)" fill="#e7e7e7"/>
    <path id="dove-4" data-name="dove" d="M.982,64.178c.827-.278,3.05-1.172,3.659-2.047a8.88,8.88,0,0,0,.438-.817c1.119-2.226,3.739-7.44,9.06-7.427a9.35,9.35,0,0,1,2.609.4c5.006,1.473,7.416,4.8,9.175,7.231,1.013,1.4,1.814,2.5,2.712,2.679a4.216,4.216,0,0,0,.788.084c.857,0,1.336-.323,1.424-.966A56.761,56.761,0,0,0,31,54.7c-.15-5.276-.32-11.255,1.419-15.942,2.834-7.641,9.193-13.787,14.3-18.726,1.277-1.234,2.483-2.4,3.517-3.471.4-.491.81-.938,1.209-1.371a13.93,13.93,0,0,0,1.526-1.845,42.813,42.813,0,0,0,3.941-8.594q.147-.472.291-.952a4.428,4.428,0,0,1,.52-1.194C58.288,1.245,58.953,0,59.983,0a1.388,1.388,0,0,1,.49.095C62.248.77,62.648,4.451,63,7.7a18.52,18.52,0,0,0,.679,4.018,6.138,6.138,0,0,0,1.763,2.22A5.913,5.913,0,0,1,67.5,16.889a3.858,3.858,0,0,1-.374,3.072,3.609,3.609,0,0,0-.453,2.375A4.285,4.285,0,0,0,67.96,24.7a4.281,4.281,0,0,1,1.349,2.676A4.064,4.064,0,0,1,68.053,30.4a3.7,3.7,0,0,0-1.128,2.4c.014.833.508,1.248,1.133,1.775a3.441,3.441,0,0,1,1.511,3.6,4.211,4.211,0,0,1-1.9,2.692c-.759.6-1.223,1-1.188,1.691a7.7,7.7,0,0,0,.361,1.672c.41,1.412.875,3.011-.311,4.761a23.36,23.36,0,0,1-3.438,3.185A69.677,69.677,0,0,1,80.68,46.634c11.1-1.717,21.858-6,27.638-8.306a22.323,22.323,0,0,1,4.427-1.562.435.435,0,0,1,.447.276c.116.319-.159.618-.821,1.168l-1.779,1.477c-2.386,1.979-4.258,3.533-5.054,4.314q.584-.207,1.669-.677a.649.649,0,0,1,.859.149.8.8,0,0,1,.122.461c.006,2.113-6.043,12.489-14.411,22.495-6.04,7.221-17.649,19.331-27.537,19.307a11.536,11.536,0,0,1-1.736-.134c3.944,4.083,18.269,14.85,30.957,20.147,15.332,6.4,22.255,9.688,22.746,12.244a1.719,1.719,0,0,1-.592,1.611,2.806,2.806,0,0,1-1.975.949,4.066,4.066,0,0,1-1.339-.3,4.171,4.171,0,0,0-1.39-.311,3.348,3.348,0,0,0-1.8.6,11.028,11.028,0,0,1-6.1,2.089c-2.681-.007-5.643-1.188-9.055-3.612a3.12,3.12,0,0,0-1.879-.659,6.71,6.71,0,0,0-1.124.125,7.791,7.791,0,0,1-1.339.142h0a5.326,5.326,0,0,1-3.285-1.293c-8.448-6.489-17.644-7.722-27.38-9.029-11.485-1.541-23.361-3.134-36.155-12.995C13.907,86.919,11.742,79.731,10.31,74.974c-.151-.5-.293-.973-.436-1.414C8.439,69.145,7.6,68.113,6.561,67.752c-.691-.24-2.4-.935-3.912-1.548-1.062-.431-1.98-.8-2.234-.893-.375-.13-.42-.359-.413-.485S.023,64.4.982,64.178Z" transform="matrix(1, -0.017, 0.017, 1, 174.72, 3307.594)" fill="#e7e7e7"/>
  </g>
</svg>
