<svg xmlns="http://www.w3.org/2000/svg" width="280.3" height="636.067" viewBox="0 0 280.3 636.067">
  <g id="Group_486" data-name="Group 486" transform="translate(-2799 9095.5)">
    <g id="Group_485" data-name="Group 485" transform="translate(2831 -10739)">
      <g id="Group_3" data-name="Group 3" transform="translate(-32.133 1655)">
        <path id="Path_8" data-name="Path 8" d="M134.533,234.667c58.667-58.667,134.4-91.733,134.4-163.2C268.933,32,236.933,0,198.533,0,170.8,0,146.267,16,135.6,40.533,122.8,16,98.267,0,70.533,0c-38.4,0-70.4,32-70.4,71.467C.133,144,80.133,177.067,134.533,234.667Z" fill="#e7e7e7"/>
        <path id="Path_9" data-name="Path 9" d="M159.067,244.267c-14.933,13.867-35.2,13.867-50.133,0,5.333-7.467,16-11.733,16-21.333h18.133C143.067,231.467,153.733,236.8,159.067,244.267Z" fill="#ff1744"/>
        <path id="Path_20" data-name="Path 20" d="M134.533,234.667c58.667-58.667,134.4-91.733,134.4-163.2C268.933,32,236.933,0,198.533,0,170.8,0,146.267,16,135.6,40.533,122.8,16,98.267,0,70.533,0c-38.4,0-70.4,32-70.4,71.467C.133,144,80.133,177.067,134.533,234.667Z" transform="translate(10 -10)" fill="none" stroke="#707070" stroke-width="3"/>
      </g>
      <g id="Group_4" data-name="Group 4" transform="translate(-32.133 1655)">
        <path id="Path_11" data-name="Path 11" d="M145.2,229.333H123.867q-3.2,0-3.2-3.2t3.2-3.2H145.2q3.2,0,3.2,3.2C149.467,227.2,147.333,229.333,145.2,229.333Z" fill="#415a6b"/>
        <path id="Path_12" data-name="Path 12" d="M114.267,252.8c-1.067,0-3.2-1.067-3.2-2.133A5.545,5.545,0,0,1,113.2,246.4c3.2-1.067,5.333-2.133,6.4-7.467,1.067-7.467,8.533-13.867,9.6-14.933s3.2-1.067,4.267,1.067c1.067,1.067,1.067,3.2-1.067,4.267s-6.4,5.333-7.467,9.6c0,8.533-3.2,11.733-10.666,13.866Z" fill="#415a6b"/>
        <path id="Path_13" data-name="Path 13" d="M151.6,337.553c-18.133-49.816-11.733-110.88-10.667-110.88v-1.607h-6.4c-1.067,4.821-7.467,65.885,11.733,117.308,18.133,48.209-8.533,136.592-9.6,138.2-1.067,3.213,0,6.428,2.133,6.428h-.552c1.067,0-3.739,13.5,4.886-4.25S171.867,390.583,151.6,337.553Z" transform="translate(0 0)" fill="#415a6b"/>
      </g>
    </g>
    <path id="Path_528" data-name="Path 528" d="M114.75,2138.5s-7.706,23.026-8.75,24.75c-1.3,2.145-3.685-16.023-6.523-11.877-9.744,14.238-26.631,34.7-32.477,16.127-7.106-22.572,26.673-32.214,35.952,1.062,1.757,6.3,2.622,14.434,2.048,24.438-3.5,61-82.185-25.574-106.69,107.936" transform="translate(2831 -10761)" fill="none" stroke="#415a6b" stroke-width="7"/>
  </g>
</svg>
