<svg xmlns="http://www.w3.org/2000/svg" width="199.167" height="1012.593" viewBox="0 0 199.167 1012.593">
  <g id="Group_487" data-name="Group 487" transform="translate(-1667 -945.808)">
    <g id="Group_5" data-name="Group 5" transform="translate(1631.867 976)">
      <path id="Path_11" data-name="Path 11" d="M142.717,229.333H123.543q-2.876,0-2.876-3.2t2.876-3.2h19.174q2.876,0,2.876,3.2C146.552,227.2,144.634,229.333,142.717,229.333Z" fill="#415a6b"/>
      <path id="Path_12" data-name="Path 12" d="M114.267,252.8c-1.067,0-3.2-1.067-3.2-2.133A5.545,5.545,0,0,1,113.2,246.4c3.2-1.067,5.333-2.133,6.4-7.467,1.067-7.467,8.533-13.867,9.6-14.933s3.2-1.067,4.267,1.067c1.067,1.067,1.067,3.2-1.067,4.267s-6.4,5.333-7.467,9.6c0,8.533-3.2,11.733-10.666,13.866Z" fill="#415a6b"/>
      <path id="Path_27" data-name="Path 27" d="M151.6,547.726c-7.144-56.3-31.136-108.834-33.131-162.726-3.072-82.978,19.407-156.9,20.053-156.9l1.435-7.023-5.424,1.987c-.6,7.744-22.867,78.079-21.373,154.045,1.166,59.285,24.658,119.541,33.106,184.443,3.064,23.37,4.849,50.031,5.7,78.492,4.148,138.371-14.416,314.088-15.3,317.916-1.067,9.218,0,18.439,2.133,18.439h1.067c1.067,0,2.133-4.611,3.2-9.217.837-3.612,18.064-165.884,15.7-309.216C158.116,618.6,155.978,580.583,151.6,547.726Z" transform="translate(-2.836 6)" fill="#415a6b"/>
    </g>
    <path id="Path_28" data-name="Path 28" d="M159.067,244.267c-14.933,13.867-35.2,13.867-50.133,0,5.333-7.467,16-11.733,16-21.333h18.133C143.067,231.467,153.733,236.8,159.067,244.267Z" transform="translate(1632.867 945)" fill="#ff1744"/>
    <path id="Path_29" data-name="Path 29" d="M99.583,0c55,0,99.583,51.923,99.583,115.974S154.581,231.948,99.583,231.948,0,180.025,0,115.974,44.585,0,99.583,0Z" transform="translate(1667 945.808)" fill="#e7e7e7"/>
    <path id="Path_26" data-name="Path 26" d="M272.1,180.784c0,64.05-44.588,115.969-99.586,115.969a86.412,86.412,0,0,1-20.676-2.5c45.085-11.083,78.918-57.675,78.918-113.47S196.92,78.4,151.836,67.313a86.413,86.413,0,0,1,20.676-2.5C227.51,64.813,272.1,116.734,272.1,180.784Z" transform="translate(1594.069 881)" fill="#bebebe"/>
    <ellipse id="Ellipse_1" data-name="Ellipse 1" cx="23.583" cy="27.974" rx="23.583" ry="27.974" transform="translate(1713 973.808)" fill="#fff"/>
  </g>
</svg>
