<svg xmlns="http://www.w3.org/2000/svg" width="348.495" height="180.224" viewBox="0 0 348.495 259.224">
  <g id="Corner_Plants" data-name="Corner Plants" transform="translate(348.495 259.224) rotate(180)">
    <path id="Fill_10" data-name="Fill 10" d="M2.99.973C8.04-.126,13.616-.042,18.761.049A98.142,98.142,0,0,1,91.073,34.221c15.01,17.7,19.137,39.7,22.1,61.942.294,2.208.42,4.4.586,6.616.036.475.089.9.146,1.3,1.166,1.038,1.778,2.249,1.088,3.579a147.5,147.5,0,0,1,6.607,17.264c5.488,17.431,11.071,35.194,7.632,53.524a255.152,255.152,0,0,0-4.515-30.323c-.116-.57-.242-1.135-.373-1.7-.013-.059-.026-.119-.039-.178a66.121,66.121,0,0,0-2.777-8.886c-.012-.032-.023-.063-.036-.094-.149-.382-.308-.761-.465-1.141-.324-.786-.657-1.571-1.01-2.351q-.179-.4-.344-.8c-1.647-4.02-2.342-8.55-3.817-12.709q-.529-1.419-1.108-2.825l-.069-.165c-1.045-2.522-2.2-5.014-3.42-7.479-.663-.5-1.018-1.728-1.59-2.848a17.779,17.779,0,0,1-1.319-2.539q-1.078-2.077-2.159-4.153l.065.024q-1.087-1.991-2.172-3.966-.238-.434-.478-.869l-.776-1.383c-2.417-4.307-4.979-8.529-7.64-12.7-.95-1.488-3.219-3.621-3.654-5.292-.016-.062-.02-.12-.029-.18A94.97,94.97,0,0,0,71.118,54.453c.964,1.037,3.012,4.558,3.553,5.255,1.657,2.134,3.456,4.121,5.262,6.132a130.641,130.641,0,0,1,9.2,11.249,213.62,213.62,0,0,1,13.742,22.469c.04.045.083.088.121.134,2.1,2.582,3.427,6.485,4.941,9.438-5.991-2.764-12.616-4.564-18.764-7.019a154.461,154.461,0,0,1-17.855-8.371A199.355,199.355,0,0,1,48.489,79.256c-8.287-5.12-15.251-12.168-21.4-19.564-7.273-8.75-13.938-17.577-18.061-28.2A84.429,84.429,0,0,1,4.467,15.317c-.041-.24-.094-.5-.151-.771A52.873,52.873,0,0,1,1.761,8.709C.61,5.553-2.109,2.082,2.99.973" transform="translate(206.629 259.224) rotate(180)" fill="#69a1ac"/>
    <path id="Fill_1" data-name="Fill 1" d="M.43,44.96c-1.115,3.675-.185,6.91,4.213,6,1.318-.273,2.68-.711,3.983-1.079,7.238-2.048,14.411-4.3,21.686-6.216,14-3.689,28.2-5.474,42.539-7.129a214.431,214.431,0,0,1,33.988-1.587c13.954.617,27.57,3.33,41.081,6.452A307.3,307.3,0,0,1,189.5,53.788a274.2,274.2,0,0,1,43.229,21.658A405.156,405.156,0,0,1,324.574,152.3q5.782,6.462,11.527,12.959c2.888,3.261,5.61,6.664,8.477,9.937,2.375,2.711,5.154,1.166,3.326-2.01-2.1-3.646-5.7-6.922-8.438-10.083q-3.665-4.231-7.333-8.458c-2.867-3.305-5.75-6.592-8.691-9.829a487.717,487.717,0,0,0-43.857-42.57A340.253,340.253,0,0,0,242.1,75.008c-14.973-9.624-30.869-19.692-48.008-25.389a6.184,6.184,0,0,0-.626-.766c3.331-3.007-6.888-13.13-8.732-15.1a164.594,164.594,0,0,0-15.108-14.069A71.653,71.653,0,0,0,155.6,10.428a87.233,87.233,0,0,0-23.947-7.363C117.291.583,102.215-.762,87.568.455,60.837,2.676,34.515,10.949,13.295,28.121,7.862,32.518,2.477,38.21.43,44.96Z" transform="translate(348.495 176.589) rotate(180)" fill="#c1dee2"/>
    <path id="Fill_20" data-name="Fill 20" d="M86.438,0C75.329,0,65.444,1.445,55.209,5.864A138.773,138.773,0,0,0,30.5,20.222c-11,7.73-19.657,16.728-25.72,28.649C1.163,55.993-1.494,66.07.938,73.838,3.8,82.987,11.671,90.617,22.033,89.005c6.407-1,12.281-5.241,17.151-9.237a64.907,64.907,0,0,0,14.34-16.912C59.805,52.444,63.5,40.672,68.832,29.79c2.532-5.164,4.979-10.366,8.011-15.274a24.634,24.634,0,0,1,5.377-6.644c1.219-.966,6.356-2.638,4.391-4.808C115.42,3.443,140.94,25.588,146.47,53c.515,2.555.918,5.131,1.343,7.7.268,1.623.16,7.609,1.61,8.646,3.2,2.287,1.853-4.661,1.716-5.662q-.532-3.879-1.13-7.749A64.508,64.508,0,0,0,131.2,18.86C119.3,7.42,103.25,0,86.438,0Z" transform="translate(222.207 103.44) rotate(180)" fill="#89c5cc"/>
  </g>
</svg>
