<svg xmlns="http://www.w3.org/2000/svg" xmlns:xlink="http://www.w3.org/1999/xlink" width="192.605" height="250.708" viewBox="0 0 192.605 393.708">
  <defs>
    <clipPath id="clip-path">
      <rect width="192.605" height="393.708" fill="none"/>
    </clipPath>
  </defs>
  <g id="Plant" clip-path="url(#clip-path)">
    <g id="Plant-2" data-name="Plant">
      <path id="Fill_19" data-name="Fill 19" d="M14.074,50.61C40.51,94.96,71.3,137.9,89.789,186.392c-.745-5.715-1.535-11.425-2.419-17.126-4.692-30.223-10.522-60.226-16.65-90.191C67.6,63.817,64.3,48.615,60.915,33.415c-1.82-8.164-3.619-16.333-5.477-24.49C54.988,6.948,54.6,3.5,54.038,0c17.969,58.966,35.3,117.977,47.973,178.361q2.494,11.887,4.239,23.732c.4-1.8.787-3.6,1.214-5.4a348.962,348.962,0,0,1,21.982-63.04,191.119,191.119,0,0,1,15.331-27.826c3.693-5.471,12.4-11.974,15.771-17.578-18.425,33.793-25.077,76.075-35.716,112.814-2.6,8.965-5.209,17.916-7.769,26.883C133.106,195.774,158,169.339,192.6,157.883c-41.891,27.679-67.018,76.152-83.95,125.728-.056.588-.122,1.176-.179,1.765,4.982-9.456,11.259-18.009,19.765-24,18.206-12.824,38.4-9.088,56.062,1.912-13.86-8.81-38.91-.788-50.572,8.167-8.349,6.41-15.484,15.01-21.68,23.4-1.485,2.011-3.51,4.358-5.65,6.861a309.309,309.309,0,0,1-14.811,58c1.142-5.507.316-14.315.633-18.42.034-.444.062-.889.1-1.332q-1.578,6.3-3.047,12.44A170.256,170.256,0,0,0,93.1,328.245q.319-5.3.639-10.6-.1-10.061-.813-20.186c-1.657-6.555-3.512-12.738-5.042-17.88a231.118,231.118,0,0,0-23.574-52.91,208.878,208.878,0,0,0-32.525-41.235c-6.77-6.681-13.855-13.043-20.841-19.494C8.42,163.605,3.9,157.871,0,154.882c28.438,15.678,57.709,32.64,78.455,57.9q-3.648-14.01-7.868-27.571C56.409,139.433,38.509,91.987,14.074,50.61Z" fill="#dde3e9"/>
      <path id="Base" d="M0,0C0,50.84,4.026,92.054,58.065,92.054S116.129,50.84,116.129,0" transform="translate(42.486 301.654)" fill="#c5cfd6"/>
    </g>
  </g>
</svg>
