<svg id="Group_18" data-name="Group 18" xmlns="http://www.w3.org/2000/svg" width="89.608" height="82.401" viewBox="0 0 89.608 82.401">
  <g id="like" transform="translate(0 0)">
    <path id="Path_36" data-name="Path 36" d="M37.084,12.124c-.542-5.968-4.766-10.3-10.053-10.3A9.993,9.993,0,0,0,18.47,6.759a9.63,9.63,0,0,0-8.356-4.933C4.829,1.826.6,6.156.062,12.124a10.618,10.618,0,0,0,.316,3.913,16.785,16.785,0,0,0,5.143,8.582L18.462,36.363,31.625,24.62a16.787,16.787,0,0,0,5.143-8.583A10.642,10.642,0,0,0,37.084,12.124ZM35.377,15.71a15.352,15.352,0,0,1-4.708,7.847L18.47,34.441,6.481,23.56a15.362,15.362,0,0,1-4.712-7.851,9.278,9.278,0,0,1-.3-3.358l.011-.072c.464-5.229,4.094-9.024,8.632-9.024a8.374,8.374,0,0,1,7.695,5.369l.658,1.559.658-1.559a8.63,8.63,0,0,1,7.907-5.368c4.537,0,8.167,3.8,8.641,9.092A9.267,9.267,0,0,1,35.377,15.71Z" transform="translate(20.924 46.038)" fill="#ff1744"/>
    <path id="Path_40" data-name="Path 40" d="M22.766,8.148c-.333-3.664-2.926-6.322-6.171-6.322a6.135,6.135,0,0,0-5.256,3.028,5.912,5.912,0,0,0-5.13-3.029C2.964,1.826.371,4.484.038,8.148a6.519,6.519,0,0,0,.194,2.4,10.3,10.3,0,0,0,3.157,5.268l7.945,7.21,8.081-7.209a10.306,10.306,0,0,0,3.157-5.269A6.533,6.533,0,0,0,22.766,8.148Zm-1.048,2.2a9.424,9.424,0,0,1-2.89,4.818l-7.489,6.682-7.36-6.68a9.431,9.431,0,0,1-2.893-4.82A5.7,5.7,0,0,1,.9,8.287L.91,8.243C1.2,5.033,3.424,2.7,6.209,2.7A5.141,5.141,0,0,1,10.933,6l.4.957.4-.957A5.3,5.3,0,0,1,16.6,2.7c2.785,0,5.014,2.33,5.3,5.582A5.689,5.689,0,0,1,21.718,10.349Z" transform="translate(60.596 46.902)" fill="#ff1744"/>
    <path id="Path_37" data-name="Path 37" d="M21.254,7.728c-.311-3.42-2.732-5.9-5.761-5.9a5.727,5.727,0,0,0-4.907,2.827A5.519,5.519,0,0,0,5.8,1.826c-3.029,0-5.451,2.482-5.761,5.9A6.086,6.086,0,0,0,.217,9.971a9.62,9.62,0,0,0,2.947,4.918l7.417,6.73,7.544-6.73a9.621,9.621,0,0,0,2.947-4.919A6.1,6.1,0,0,0,21.254,7.728Zm-.979,2.055a8.8,8.8,0,0,1-2.7,4.5l-6.991,6.238L3.714,14.282a8.8,8.8,0,0,1-2.7-4.5,5.317,5.317,0,0,1-.17-1.925L.85,7.817C1.116,4.82,3.2,2.645,5.8,2.645a4.8,4.8,0,0,1,4.41,3.077l.377.894.377-.894a4.946,4.946,0,0,1,4.532-3.076c2.6,0,4.681,2.175,4.952,5.211A5.311,5.311,0,0,1,20.275,9.783Z" transform="translate(68.319 20.908)" fill="#ff1744"/>
    <path id="Path_38" data-name="Path 38" d="M37.08,12.123c-.542-5.967-4.766-10.3-10.052-10.3a9.992,9.992,0,0,0-8.56,4.932,9.629,9.629,0,0,0-8.355-4.933C4.828,1.826.6,6.155.062,12.123a10.617,10.617,0,0,0,.316,3.913A16.784,16.784,0,0,0,5.52,24.616L18.46,36.359,31.621,24.617a16.786,16.786,0,0,0,5.142-8.582A10.641,10.641,0,0,0,37.08,12.123Zm-1.707,3.585a15.35,15.35,0,0,1-4.707,7.847l-12.2,10.882L6.48,23.558a15.36,15.36,0,0,1-4.712-7.85,9.277,9.277,0,0,1-.3-3.358l.011-.072c.464-5.228,4.094-9.023,8.631-9.023a8.373,8.373,0,0,1,7.694,5.368l.658,1.559.658-1.559a8.629,8.629,0,0,1,7.907-5.367c4.537,0,8.167,3.8,8.64,9.091A9.266,9.266,0,0,1,35.373,15.708Z" transform="translate(30.212 8.895)" fill="#ff1744"/>
    <path id="Path_39" data-name="Path 39" d="M30.19,10.21c-.441-4.858-3.88-8.383-8.184-8.383a8.135,8.135,0,0,0-6.969,4.016,7.84,7.84,0,0,0-6.8-4.016c-4.3,0-7.742,3.525-8.183,8.383A8.644,8.644,0,0,0,.308,13.4a13.665,13.665,0,0,0,4.187,6.986l10.535,9.56,10.716-9.56A13.666,13.666,0,0,0,29.932,13.4,8.664,8.664,0,0,0,30.19,10.21ZM28.8,13.129a12.5,12.5,0,0,1-3.833,6.389l-9.931,8.86L5.276,19.52A12.506,12.506,0,0,1,1.44,13.128,7.553,7.553,0,0,1,1.2,10.394l.009-.059C1.585,6.079,4.54,2.989,8.234,2.989A6.817,6.817,0,0,1,14.5,7.36l.536,1.27.536-1.27a7.026,7.026,0,0,1,6.437-4.37c3.694,0,6.649,3.09,7.035,7.4A7.544,7.544,0,0,1,28.8,13.129Z" transform="translate(0 -1.826)" fill="#ff1744"/>
  </g>
</svg>
