<svg xmlns="http://www.w3.org/2000/svg" width="91.608" height="81.255" viewBox="0 0 91.608 81.255">
  <g id="shopping" transform="translate(0 0)">
    <path id="Path_43" data-name="Path 43" d="M83.974,32.5H73.287V20.314a1.448,1.448,0,0,0-1.527-1.354H62.6V14.9A14.533,14.533,0,0,0,54.94,2.385,18.622,18.622,0,0,0,38.934,1.318,18.622,18.622,0,0,0,22.927,2.385,14.533,14.533,0,0,0,15.268,14.9v4.063H1.527A1.448,1.448,0,0,0,0,20.314V71.775c.007,5.233,4.788,9.474,10.688,9.48H83.974c4.214,0,7.629-3.033,7.634-6.771V39.273C91.6,35.535,88.189,32.506,83.974,32.5ZM45.8,2.708c7.586.007,13.733,5.46,13.741,12.188v4.063H48.858V14.9A14.346,14.346,0,0,0,42.312,3.123,15.278,15.278,0,0,1,45.8,2.708ZM32.063,18.959V14.9A12.015,12.015,0,0,1,38.934,4.357,12.015,12.015,0,0,1,45.8,14.9v4.063ZM18.322,14.9a11.711,11.711,0,0,1,5.335-9.666,15.085,15.085,0,0,1,11.9-2.108A14.346,14.346,0,0,0,29.009,14.9v4.063H18.322Zm-.153,6.771a7.469,7.469,0,0,1-7.481,5.424,7.469,7.469,0,0,1-7.481-5.424ZM3.054,71.775V26.935a11.359,11.359,0,0,0,7.634,2.859,11.359,11.359,0,0,0,7.634-2.859V71.775c0,3.739-3.418,6.771-7.634,6.771S3.054,75.515,3.054,71.775Zm18.322,0V21.668h7.634v2.958a4.033,4.033,0,0,0-2.988,4.517,4.46,4.46,0,0,0,4.515,3.376,4.46,4.46,0,0,0,4.515-3.376,4.033,4.033,0,0,0-2.988-4.517V21.668H59.546v2.958a4.033,4.033,0,0,0-2.988,4.517,4.707,4.707,0,0,0,9.03,0A4.033,4.033,0,0,0,62.6,24.626V21.668h7.634V32.5H56.492c-4.214,0-7.629,3.033-7.634,6.771V74.484a6.233,6.233,0,0,0,1.566,4.063H18.152a8.953,8.953,0,0,0,3.223-6.771ZM32.063,28.439a1.538,1.538,0,0,1-3.054,0,1.227,1.227,0,0,1,.233-.677,1.573,1.573,0,0,0,2.587,0A1.227,1.227,0,0,1,32.063,28.439Zm30.536,0a1.538,1.538,0,0,1-3.054,0,1.227,1.227,0,0,1,.233-.677,1.573,1.573,0,0,0,2.587,0A1.227,1.227,0,0,1,62.6,28.439ZM88.555,74.484a4.345,4.345,0,0,1-4.58,4.063H56.492a4.345,4.345,0,0,1-4.58-4.063V39.273a4.345,4.345,0,0,1,4.58-4.063H83.974a4.345,4.345,0,0,1,4.58,4.063Zm0,0" transform="translate(0 0)" fill="#ff1744"/>
    <path id="Path_44" data-name="Path 44" d="M313.956,224H292.58a4.581,4.581,0,0,0-4.58,4.58v9.161a4.581,4.581,0,0,0,4.58,4.58h21.375a4.581,4.581,0,0,0,4.58-4.58V228.58A4.581,4.581,0,0,0,313.956,224Zm1.527,13.741a1.527,1.527,0,0,1-1.527,1.527H292.58a1.527,1.527,0,0,1-1.527-1.527V228.58a1.527,1.527,0,0,1,1.527-1.527h21.375a1.527,1.527,0,0,1,1.527,1.527Zm0,0" transform="translate(-233.035 -187.289)" fill="#ff1744"/>
    <path id="Path_45" data-name="Path 45" d="M292.58,336a4.58,4.58,0,1,0,4.58,4.58A4.581,4.581,0,0,0,292.58,336Zm0,6.107a1.527,1.527,0,1,1,1.527-1.527A1.527,1.527,0,0,1,292.58,342.107Zm0,0" transform="translate(-233.035 -279.926)" fill="#ff1744"/>
    <path id="Path_46" data-name="Path 46" d="M348.58,336a4.58,4.58,0,1,0,4.58,4.58A4.581,4.581,0,0,0,348.58,336Zm0,6.107a1.527,1.527,0,1,1,1.527-1.527A1.527,1.527,0,0,1,348.58,342.107Zm0,0" transform="translate(-278.347 -279.926)" fill="#ff1744"/>
    <path id="Path_47" data-name="Path 47" d="M292.58,400a4.58,4.58,0,1,0,4.58,4.58A4.581,4.581,0,0,0,292.58,400Zm0,6.107a1.527,1.527,0,1,1,1.527-1.527A1.527,1.527,0,0,1,292.58,406.107Zm0,0" transform="translate(-233.035 -334.013)" fill="#ff1744"/>
    <path id="Path_48" data-name="Path 48" d="M348.58,400a4.58,4.58,0,1,0,4.58,4.58A4.581,4.581,0,0,0,348.58,400Zm0,6.107a1.527,1.527,0,1,1,1.527-1.527A1.527,1.527,0,0,1,348.58,406.107Zm0,0" transform="translate(-278.347 -334.013)" fill="#ff1744"/>
    <path id="Path_49" data-name="Path 49" d="M404.58,336a4.581,4.581,0,0,0-4.58,4.58v12.214a4.58,4.58,0,1,0,9.161,0V340.58A4.581,4.581,0,0,0,404.58,336Zm1.527,16.795a1.527,1.527,0,1,1-3.054,0V340.58a1.527,1.527,0,1,1,3.054,0Zm0,0" transform="translate(-323.66 -282.227)" fill="#ff1744"/>
  </g>
</svg>
