<svg xmlns="http://www.w3.org/2000/svg" xmlns:xlink="http://www.w3.org/1999/xlink" width="641.864" height="350.442" viewBox="0 0 641.864 456.442">
  <defs>
    <linearGradient id="linear-gradient" x1="0.5" y1="1" x2="0.5" gradientUnits="objectBoundingBox">
      <stop offset="0" stop-color="gray" stop-opacity="0.251"/>
      <stop offset="0.54" stop-color="gray" stop-opacity="0.122"/>
      <stop offset="1" stop-color="gray" stop-opacity="0.102"/>
    </linearGradient>
  </defs>
  <g id="undraw_freelancer_b0my" transform="translate(0 0.012)">
    <ellipse id="Ellipse_119" data-name="Ellipse 119" cx="286.669" cy="67.866" rx="286.669" ry="67.866" transform="translate(0 320.698)" fill="#ff1744" opacity="0.1"/>
    <path id="Path_220" data-name="Path 220" d="M132.915,406.21s26.7,26.7,11.63,66.339,25.84,105.51,25.84,105.51-.439-.062-1.25-.208c-54.839-9.693-82.092-72.411-51.595-119.01C128.877,441.517,138.158,421.2,132.915,406.21Z" transform="translate(-62.779 -202.663)" fill="#ff1744"/>
    <path id="Path_221" data-name="Path 221" d="M149.9,406.21s15.071,32.728,0,59.429-2.585,101.641,37.47,112.409" transform="translate(-79.76 -202.663)" fill="none" stroke="#535461" stroke-miterlimit="10" stroke-width="2"/>
    <path id="Path_222" data-name="Path 222" d="M70.25,597.741s30.469-4.855,33.229,22.455,58.573,31.089,58.573,31.089-.366.248-1.048.7c-46.047,30.238-90.1,19.25-83.461-20.917C80.01,616.13,79.813,601.12,70.25,597.741Z" transform="translate(-47.671 -286.178)" fill="#ff1744"/>
    <path id="Path_223" data-name="Path 223" d="M70.25,597.741s30.469-4.855,33.229,22.455,58.573,31.089,58.573,31.089-.366.248-1.048.7c-46.047,30.238-90.1,19.25-83.461-20.917C80.01,616.13,79.813,601.12,70.25,597.741Z" transform="translate(-47.671 -286.178)" fill="#f5f5f5" opacity="0.2"/>
    <path id="Path_224" data-name="Path 224" d="M70.25,598s23.654,5.193,21.706,26.7S127.077,672,162.08,651.544" transform="translate(-47.671 -286.437)" fill="none" stroke="#535461" stroke-miterlimit="10" stroke-width="2"/>
    <path id="Path_225" data-name="Path 225" d="M684.622,248.01c-3.914,19.183-24.009,28.8-35.268,43.113-21.216,26.972-12.954,66.368.507,97.918,4.506,10.566,9.619,21.745,7.71,33.071-2.326,13.855-14.688,23.981-27.67,29.354a82.383,82.383,0,0,1-73.729-6.077c-18.788-11.686-32.249-30.7-51.358-41.857-31.984-18.67-72.692-11.619-107.425,1.245-24.567,9.1-51.432,20.934-75.846,11.422-17.178-6.691-29.056-22.979-35.527-40.241-3.12-8.335-5.39-17.358-11.354-23.964-3.548-3.942-8.178-6.719-12.914-9.068-43.3-21.469-98-9.969-140.029-33.792-28.4-16.079-46.582-46.408-54.631-78.037s-7.113-64.768-5.069-97.366c1.453-23.148,4.061-47.872,18.85-65.726,15.646-18.884,42.471-25.919,66.768-22.32S193.9,62.081,213.262,77.158c24.218,18.85,46.622,42.313,76.319,49.95,20.225,5.2,41.5,2.354,62.358,1.369,34.873-1.645,69.758,2.016,104.434,6.026,16.9,1.954,33.848,4,50.6,6.978q5.632,1,11.264,2.146,2.816.563,5.632,1.205c1.464.321,2.923.659,4.382,1q3.452.811,6.882,1.69,9.85,2.534,19.509,5.829C577.022,161,594.966,174.867,616.1,184.56c13.776,6.319,28.8,8.065,41.84,16.108C674.011,210.591,688.739,227.837,684.622,248.01Z" transform="translate(-43.457 -44.79)" fill="#ff1744" opacity="0.1"/>
    <path id="Path_226" data-name="Path 226" d="M626.935,688.628s23.148-1.836,29.81,6.128,30.447,26.223,20.63,30.289-62.515-12.171-62.515-12.171Z" transform="translate(-285.556 -325.943)" fill="#ffb9b9"/>
    <path id="Path_227" data-name="Path 227" d="M380.285,178.893a12.069,12.069,0,0,0-9.845-10.977c-3.526-.563-7.462.434-10.492-1.464a19.211,19.211,0,0,1-3.452-3.379c-4.325-4.624-10.819-6.758-17.149-6.944s-12.571,1.346-18.653,3.1c-12.143,3.5-24.972,8.628-31.432,19.487-9.822,16.53-.76,38.81-8.527,56.4-3.379,7.682-9.822,13.956-11.917,22.089-2.816,10.864,2.737,21.886,7.012,32.26a153.858,153.858,0,0,1,8.7,28.836c1.718,8.718,2.675,17.78.738,26.47-.85,3.8-2.253,7.671-1.5,11.489,1.126,5.778,6.713,9.422,11.793,12.39l1.324.777c7.322,4.28,14.852,8.651,23.238,9.71a24.109,24.109,0,0,0,15.206-2.732c4.506-2.664,7.936-7.417,8.318-12.65.428-5.919-2.867-11.461-3.576-17.358a5.277,5.277,0,0,1,.2-2.658,6.513,6.513,0,0,1,2.557-2.551,47.247,47.247,0,0,0,18.991-46.228c-2.174-11.793-8.932-23.519-5.66-35.059,1.808-6.375,6.466-11.54,9.079-17.628a29.59,29.59,0,0,0,.969-20.512c-1.492-4.652-4.2-9.3-3.267-14.08,1.639-8.493,12.954-11.2,17.228-18.726a13.362,13.362,0,0,0-4.055-17.076" transform="translate(-134.071 -93.421)" fill="#b96b6b"/>
    <path id="Path_228" data-name="Path 228" d="M380.285,178.893a12.069,12.069,0,0,0-9.845-10.977c-3.526-.563-7.462.434-10.492-1.464a19.211,19.211,0,0,1-3.452-3.379c-4.325-4.624-10.819-6.758-17.149-6.944s-12.571,1.346-18.653,3.1c-12.143,3.5-24.972,8.628-31.432,19.487-9.822,16.53-.76,38.81-8.527,56.4-3.379,7.682-9.822,13.956-11.917,22.089-2.816,10.864,2.737,21.886,7.012,32.26a153.858,153.858,0,0,1,8.7,28.836c1.718,8.718,2.675,17.78.738,26.47-.85,3.8-2.253,7.671-1.5,11.489,1.126,5.778,6.713,9.422,11.793,12.39l1.324.777c7.322,4.28,14.852,8.651,23.238,9.71a24.109,24.109,0,0,0,15.206-2.732c4.506-2.664,7.936-7.417,8.318-12.65.428-5.919-2.867-11.461-3.576-17.358a5.277,5.277,0,0,1,.2-2.658,6.513,6.513,0,0,1,2.557-2.551,47.247,47.247,0,0,0,18.991-46.228c-2.174-11.793-8.932-23.519-5.66-35.059,1.808-6.375,6.466-11.54,9.079-17.628a29.59,29.59,0,0,0,.969-20.512c-1.492-4.652-4.2-9.3-3.267-14.08,1.639-8.493,12.954-11.2,17.228-18.726a13.362,13.362,0,0,0-4.055-17.076" transform="translate(-134.071 -93.421)" opacity="0.1"/>
    <path id="Path_229" data-name="Path 229" d="M384.588,625.7H263.5V560.93l67.584,25.907,53.5-25.907Z" transform="translate(-115.096 -245.019)" fill="#777b9b"/>
    <path id="Path_230" data-name="Path 230" d="M384.588,625.7H263.5V560.93l67.584,25.907,53.5-25.907Z" transform="translate(-115.096 -245.019)" opacity="0.1"/>
    <path id="Path_231" data-name="Path 231" d="M463.7,726.722s-21.965,5.249-24.218,14.869,12.954,8.747,12.954,8.747,21.4-4.376,24.218-21.869S463.7,726.722,463.7,726.722Z" transform="translate(-208.853 -339.819)" fill="#ffb9b9"/>
    <path id="Path_232" data-name="Path 232" d="M463.7,726.722s-21.965,5.249-24.218,14.869,12.954,8.747,12.954,8.747,21.4-4.376,24.218-21.869S463.7,726.722,463.7,726.722Z" transform="translate(-208.853 -339.819)" opacity="0.1"/>
    <path id="Path_233" data-name="Path 233" d="M361.65,763.47s-20.709,1.346-20.99,18.146c-.039,2.253,21.571,2.906,47.224-10.887s27.4-15.246,27.4-15.246-9.912-15.972-16.9-18.146S361.65,763.47,361.65,763.47Z" transform="translate(-165.786 -347.247)" fill="#cbcdda"/>
    <path id="Path_234" data-name="Path 234" d="M157.728,659.17S134.073,678.882,178,706.479s86.17,22.528,86.17,22.528,45.822-5.424,52.761-26.932-34.175-39.525-34.175-39.525-45.056,0-65.331-12.954S157.728,659.17,157.728,659.17Z" transform="translate(-83.103 -307.219)" fill="#777b9b"/>
    <path id="Path_235" data-name="Path 235" d="M368.8,605.127s20.275,11.827,47.872,0c21.233-9.1,67.809-5.531,88.158-3.379a23.546,23.546,0,0,1,20.32,16.8c2.129,7.53.563,16.783-12.176,25.457-28.16,19.149-47.872,24.781-55.194,32.666s-28.16,11.827-28.16,11.827-26.47-3.942-26.47-9.574,24.218-33.229,24.218-33.229-35.482,32.666-72.09-11.264S368.8,605.127,368.8,605.127Z" transform="translate(-166.326 -286.968)" fill="#777b9b"/>
    <path id="Path_236" data-name="Path 236" d="M316.187,379.7l-71.527-49s34.31-23.266,37.256-44.059a16.9,16.9,0,0,0-2.337-11.7c-14.08-22.528,49.562,0,49.562,0a133.062,133.062,0,0,0,2.394,17.459c2.765,13.714,8.6,31.979,20.7,41.114C373.07,349.287,316.187,379.7,316.187,379.7Z" transform="translate(-123.853 -140.953)" fill="#ffb9b9"/>
    <path id="Path_237" data-name="Path 237" d="M357.038,292.381a41.711,41.711,0,0,1-49.618-5.739,16.9,16.9,0,0,0-2.337-11.7c-14.08-22.528,49.562,0,49.562,0a133.054,133.054,0,0,0,2.394,17.437Z" transform="translate(-149.358 -140.953)" opacity="0.1"/>
    <circle id="Ellipse_120" data-name="Ellipse 120" cx="41.677" cy="41.677" r="41.677" transform="translate(145.024 72.608)" fill="#ffb9b9"/>
    <path id="Path_238" data-name="Path 238" d="M295.839,341.342s-8.448,49.562-22.528,46.746S215.3,335.71,215.3,335.71s-45.619,15.206-38.3,52.378,14.643,68.711-.563,80.538-24.781,67.021-24.781,67.021,48.435-20.275,73.779-12.39,51.251,3.942,57.447-3.379,15.206-23.091,15.206-23.091-12.954-19.149-6.758-28.723,14.08-10.138,18.586-37.171,39.987-36.608,33.229-51.815S323.436,341.342,295.839,341.342Z" transform="translate(-83.231 -171.869)" opacity="0.1"/>
    <path id="Path_239" data-name="Path 239" d="M295.839,337.342s-8.448,49.562-22.528,46.746S215.3,331.71,215.3,331.71s-45.619,15.206-38.3,52.378,14.643,68.711-.563,80.538-24.781,67.021-24.781,67.021,48.435-20.275,73.779-12.39,51.251,3.942,57.447-3.379,15.206-23.091,15.206-23.091-12.954-19.149-6.758-28.723,14.08-10.138,18.586-37.171,39.987-36.608,33.229-51.815S323.436,337.342,295.839,337.342Z" transform="translate(-83.231 -170.121)" fill="#cbcdda"/>
    <path id="Path_240" data-name="Path 240" d="M461.545,701s22.528-5.632,30.413,1.126,34.355,20.838,25.344,26.47-63.642-1.69-63.642-1.69Z" transform="translate(-215.144 -330.468)" fill="#ffb9b9"/>
    <g id="Group_190" data-name="Group 190" transform="translate(68.429 161.589)" opacity="0.05">
      <path id="Path_241" data-name="Path 241" d="M313.814,384.088a6.015,6.015,0,0,0,3.869-.563c-15.646-6.038-56.247-51.815-56.247-51.815s-1.6.535-4.156,1.645C265.041,341.977,301.272,381.581,313.814,384.088Z" transform="translate(-197.795 -331.71)"/>
      <path id="Path_242" data-name="Path 242" d="M414.572,408.126c15.533-5.976-28.723,24.781-33.229,51.815s-12.39,27.6-18.586,37.171,6.758,28.723,6.758,28.723-9.011,15.77-15.206,23.091c-3.548,4.2-13.568,7.271-26.24,7.659,15.285.484,27.811-2.867,31.872-7.659,6.2-7.322,15.206-23.091,15.206-23.091s-12.954-19.149-6.758-28.723,14.08-10.138,18.586-37.171S410.911,409.534,414.572,408.126Z" transform="translate(-228.716 -364.76)"/>
      <path id="Path_243" data-name="Path 243" d="M152.094,673.346c-.287,1.5-.434,2.354-.434,2.354s31.494-13.185,56.985-14.153C188.972,660.73,163.549,669.1,152.094,673.346Z" transform="translate(-151.66 -475.758)"/>
    </g>
    <path id="Path_244" data-name="Path 244" d="M464.945,403.71s5.069.563,10.138,27.034,24.781,51.814,24.781,51.814a122.7,122.7,0,0,1,18.022,34.355c6.758,20.275,36.89,47.027,47.591,48.154,0,0-20.557,20.557-18.3,26.189s-2.253,0-2.253,0-28.16-10.7-34.355-28.16-33.229-45.619-33.229-45.619-36.045-69.837-37.734-81.1S464.945,403.71,464.945,403.71Z" transform="translate(-208.97 -201.571)" fill="#cbcdda"/>
    <path id="Path_245" data-name="Path 245" d="M209.16,572.21s43.366,5.069,52.941,18.586,53.927-7.851,53.927-7.851" transform="translate(-108.347 -275.172)" opacity="0.1"/>
    <path id="Path_246" data-name="Path 246" d="M248.215,426.055s18.586,68.147,25.344,76.6,59.136,77.722,83.917,73.216c0,0-7.322,31.539-12.39,32.666,0,0-51.251-50.688-68.711-50.125,0,0-32.1-26.47-35.482-39.424s-30.413-55.194-30.413-55.194-13.517-29.85-7.885-42.8S238.077,413.665,248.215,426.055Z" transform="translate(-104.88 -205.893)" opacity="0.1"/>
    <path id="Path_247" data-name="Path 247" d="M249.215,424.055s18.586,68.147,25.344,76.6,59.136,77.722,83.917,73.216c0,0-7.322,31.539-12.39,32.666,0,0-51.251-50.688-68.711-50.125,0,0-32.1-26.47-35.482-39.424s-30.413-55.194-30.413-55.194-13.517-29.85-7.885-42.8S239.077,411.665,249.215,424.055Z" transform="translate(-105.317 -205.02)" fill="#cbcdda"/>
    <path id="Path_248" data-name="Path 248" d="M328.285,159.893a12.069,12.069,0,0,0-9.845-10.977c-3.526-.563-7.462.434-10.492-1.464a19.213,19.213,0,0,1-3.452-3.379c-4.325-4.624-10.819-6.758-17.149-6.944s-12.571,1.346-18.653,3.1c-12.143,3.5-24.972,8.628-31.432,19.487-9.822,16.53-.76,38.81-8.527,56.4-3.379,7.682-9.822,13.956-11.917,22.089-2.816,10.864,2.737,21.886,7.012,32.26a153.856,153.856,0,0,1,8.7,28.836c1.718,8.718,2.675,17.78.738,26.47-.85,3.8-2.253,7.671-1.5,11.489,1.126,5.778,6.713,9.422,11.793,12.39l1.324.777c7.322,4.28,14.852,8.651,23.238,9.71a24.11,24.11,0,0,0,15.206-2.732c4.506-2.664,7.935-7.417,8.318-12.649.428-5.919-2.867-11.461-3.576-17.358a5.277,5.277,0,0,1,.2-2.658,6.513,6.513,0,0,1,2.557-2.551,47.247,47.247,0,0,0,18.991-46.228c-2.174-11.793-8.932-23.519-5.66-35.059,1.808-6.375,6.466-11.54,9.079-17.628a29.59,29.59,0,0,0,.969-20.512c-1.492-4.652-4.2-9.3-3.267-14.08,1.639-8.493,12.954-11.2,17.228-18.726a13.362,13.362,0,0,0-4.055-17.076" transform="translate(-111.357 -85.122)" opacity="0.1"/>
    <path id="Path_249" data-name="Path 249" d="M326.285,158.893a12.069,12.069,0,0,0-9.845-10.977c-3.526-.563-7.462.434-10.492-1.464a19.213,19.213,0,0,1-3.452-3.379c-4.325-4.624-10.819-6.758-17.149-6.944s-12.571,1.346-18.653,3.1c-12.143,3.5-24.972,8.628-31.432,19.487-9.822,16.53-.76,38.81-8.527,56.4-3.379,7.682-9.822,13.956-11.917,22.089-2.816,10.864,2.737,21.886,7.012,32.26a153.856,153.856,0,0,1,8.7,28.836c1.718,8.718,2.675,17.78.738,26.47-.85,3.8-2.253,7.671-1.5,11.489,1.126,5.778,6.713,9.422,11.793,12.39l1.324.777c7.322,4.28,14.852,8.651,23.238,9.71a24.11,24.11,0,0,0,15.206-2.732c4.506-2.664,7.935-7.417,8.318-12.649.428-5.919-2.867-11.461-3.576-17.358a5.276,5.276,0,0,1,.2-2.658,6.514,6.514,0,0,1,2.557-2.551,47.247,47.247,0,0,0,18.991-46.228c-2.174-11.793-8.932-23.519-5.66-35.059,1.808-6.375,6.466-11.54,9.079-17.628a29.591,29.591,0,0,0,.969-20.512c-1.492-4.652-4.2-9.3-3.267-14.08,1.639-8.493,12.954-11.2,17.228-18.726a13.362,13.362,0,0,0-4.055-17.076" transform="translate(-110.484 -84.685)" fill="#b96b6b"/>
    <path id="Path_250" data-name="Path 250" d="M465.109,803.91a6.572,6.572,0,0,0,2.157-3.255,2.889,2.889,0,0,0-1.509-3.317c-1.385-.529-2.867.428-3.987,1.4s-2.411,2.078-3.88,1.87a5.9,5.9,0,0,0,1.825-5.525,2.31,2.31,0,0,0-.507-1.126c-.772-.822-2.163-.467-3.086.18-2.929,2.061-3.745,6.038-3.762,9.619a18.439,18.439,0,0,1-.056-3.942,4.07,4.07,0,0,0-1.487-3.5,4.5,4.5,0,0,0-2.253-.535,4.69,4.69,0,0,0-3.683,1.047c-1.126,1.194-.828,3.2.146,4.506a14.659,14.659,0,0,0,3.813,3.053,8.449,8.449,0,0,1,2.726,2.6,2.575,2.575,0,0,1,.2.462h8.24A22.994,22.994,0,0,0,465.109,803.91Z" transform="translate(-210.993 -371.822)" fill="#ff1744"/>
    <rect id="Rectangle_540" data-name="Rectangle 540" width="179.098" height="12.39" transform="translate(329.473 128.084)" fill="#ff1744" opacity="0.1"/>
    <rect id="Rectangle_541" data-name="Rectangle 541" width="179.098" height="12.39" transform="translate(329.473 181.588)" fill="#ff1744" opacity="0.1"/>
    <rect id="Rectangle_542" data-name="Rectangle 542" width="179.098" height="12.39" transform="translate(329.473 237.345)" fill="#ff1744" opacity="0.1"/>
    <rect id="Rectangle_543" data-name="Rectangle 543" width="11.264" height="32.102" transform="translate(345.242 95.981)" fill="#ff1744" opacity="0.1"/>
    <rect id="Rectangle_544" data-name="Rectangle 544" width="11.264" height="2.253" transform="translate(345.242 101.05)" fill="#ff1744" opacity="0.1"/>
    <rect id="Rectangle_545" data-name="Rectangle 545" width="11.264" height="2.253" transform="translate(345.242 118.509)" fill="#ff1744" opacity="0.1"/>
    <rect id="Rectangle_546" data-name="Rectangle 546" width="11.264" height="32.102" transform="translate(362.138 95.981)" fill="#ff1744" opacity="0.1"/>
    <rect id="Rectangle_547" data-name="Rectangle 547" width="11.264" height="2.253" transform="translate(362.138 101.05)" fill="#ff1744" opacity="0.1"/>
    <rect id="Rectangle_548" data-name="Rectangle 548" width="11.264" height="2.253" transform="translate(362.138 118.509)" fill="#ff1744" opacity="0.1"/>
    <rect id="Rectangle_549" data-name="Rectangle 549" width="11.264" height="32.102" transform="translate(379.034 95.981)" fill="#ff1744" opacity="0.1"/>
    <rect id="Rectangle_550" data-name="Rectangle 550" width="11.264" height="2.253" transform="translate(379.034 101.05)" fill="#ff1744" opacity="0.1"/>
    <rect id="Rectangle_551" data-name="Rectangle 551" width="11.264" height="2.253" transform="translate(379.034 118.509)" fill="#ff1744" opacity="0.1"/>
    <rect id="Rectangle_552" data-name="Rectangle 552" width="11.264" height="32.102" transform="translate(395.93 95.981)" fill="#ff1744" opacity="0.1"/>
    <rect id="Rectangle_553" data-name="Rectangle 553" width="11.264" height="2.253" transform="translate(395.93 101.05)" fill="#ff1744" opacity="0.1"/>
    <rect id="Rectangle_554" data-name="Rectangle 554" width="11.264" height="2.253" transform="translate(395.93 118.509)" fill="#ff1744" opacity="0.1"/>
    <rect id="Rectangle_555" data-name="Rectangle 555" width="11.264" height="32.102" transform="translate(412.826 95.981)" fill="#ff1744" opacity="0.1"/>
    <rect id="Rectangle_556" data-name="Rectangle 556" width="11.264" height="2.253" transform="translate(412.826 101.05)" fill="#ff1744" opacity="0.1"/>
    <rect id="Rectangle_557" data-name="Rectangle 557" width="11.264" height="2.253" transform="translate(412.826 118.509)" fill="#ff1744" opacity="0.1"/>
    <rect id="Rectangle_558" data-name="Rectangle 558" width="11.264" height="32.102" transform="translate(429.722 95.981)" fill="#ff1744" opacity="0.1"/>
    <rect id="Rectangle_559" data-name="Rectangle 559" width="11.264" height="2.253" transform="translate(429.722 101.05)" fill="#ff1744" opacity="0.1"/>
    <rect id="Rectangle_560" data-name="Rectangle 560" width="11.264" height="2.253" transform="translate(429.722 118.509)" fill="#ff1744" opacity="0.1"/>
    <rect id="Rectangle_561" data-name="Rectangle 561" width="11.264" height="32.102" transform="translate(446.618 95.981)" fill="#ff1744" opacity="0.1"/>
    <rect id="Rectangle_562" data-name="Rectangle 562" width="11.264" height="2.253" transform="translate(446.618 101.05)" fill="#ff1744" opacity="0.1"/>
    <rect id="Rectangle_563" data-name="Rectangle 563" width="11.264" height="2.253" transform="translate(446.618 118.509)" fill="#ff1744" opacity="0.1"/>
    <rect id="Rectangle_564" data-name="Rectangle 564" width="11.264" height="32.102" transform="matrix(0.894, -0.448, 0.448, 0.894, 441.148, 209.443)" fill="#ff1744" opacity="0.1"/>
    <rect id="Rectangle_565" data-name="Rectangle 565" width="11.264" height="2.253" transform="matrix(0.894, -0.448, 0.448, 0.894, 443.423, 213.973)" fill="#ff1744" opacity="0.1"/>
    <rect id="Rectangle_566" data-name="Rectangle 566" width="11.264" height="2.253" transform="matrix(0.894, -0.448, 0.448, 0.894, 451.244, 229.582)" fill="#ff1744" opacity="0.1"/>
    <rect id="Rectangle_567" data-name="Rectangle 567" width="11.264" height="32.102" transform="translate(345.242 150.049)" fill="#ff1744" opacity="0.1"/>
    <rect id="Rectangle_568" data-name="Rectangle 568" width="11.264" height="2.253" transform="translate(345.242 155.117)" fill="#ff1744" opacity="0.1"/>
    <rect id="Rectangle_569" data-name="Rectangle 569" width="11.264" height="2.253" transform="translate(345.242 172.577)" fill="#ff1744" opacity="0.1"/>
    <rect id="Rectangle_570" data-name="Rectangle 570" width="11.264" height="32.102" transform="translate(362.138 150.049)" fill="#ff1744" opacity="0.1"/>
    <rect id="Rectangle_571" data-name="Rectangle 571" width="11.264" height="2.253" transform="translate(362.138 155.117)" fill="#ff1744" opacity="0.1"/>
    <rect id="Rectangle_572" data-name="Rectangle 572" width="11.264" height="2.253" transform="translate(362.138 172.577)" fill="#ff1744" opacity="0.1"/>
    <rect id="Rectangle_573" data-name="Rectangle 573" width="11.264" height="32.102" transform="translate(379.034 150.049)" fill="#ff1744" opacity="0.1"/>
    <rect id="Rectangle_574" data-name="Rectangle 574" width="11.264" height="2.253" transform="translate(379.034 155.117)" fill="#ff1744" opacity="0.1"/>
    <rect id="Rectangle_575" data-name="Rectangle 575" width="11.264" height="2.253" transform="translate(379.034 172.577)" fill="#ff1744" opacity="0.1"/>
    <rect id="Rectangle_576" data-name="Rectangle 576" width="11.264" height="32.102" transform="translate(449.435 150.049)" fill="#ff1744" opacity="0.1"/>
    <rect id="Rectangle_577" data-name="Rectangle 577" width="11.264" height="2.253" transform="translate(449.435 155.117)" fill="#ff1744" opacity="0.1"/>
    <rect id="Rectangle_578" data-name="Rectangle 578" width="11.264" height="2.253" transform="translate(449.435 172.577)" fill="#ff1744" opacity="0.1"/>
    <rect id="Rectangle_579" data-name="Rectangle 579" width="11.264" height="32.102" transform="translate(466.331 150.049)" fill="#ff1744" opacity="0.1"/>
    <rect id="Rectangle_580" data-name="Rectangle 580" width="11.264" height="2.253" transform="translate(466.331 155.117)" fill="#ff1744" opacity="0.1"/>
    <rect id="Rectangle_581" data-name="Rectangle 581" width="11.264" height="2.253" transform="translate(466.331 172.577)" fill="#ff1744" opacity="0.1"/>
    <rect id="Rectangle_582" data-name="Rectangle 582" width="11.264" height="32.102" transform="translate(483.227 150.049)" fill="#ff1744" opacity="0.1"/>
    <rect id="Rectangle_583" data-name="Rectangle 583" width="11.264" height="2.253" transform="translate(483.227 155.117)" fill="#ff1744" opacity="0.1"/>
    <rect id="Rectangle_584" data-name="Rectangle 584" width="11.264" height="2.253" transform="translate(483.227 172.577)" fill="#ff1744" opacity="0.1"/>
    <rect id="Rectangle_585" data-name="Rectangle 585" width="11.264" height="32.102" transform="translate(345.242 205.242)" fill="#ff1744" opacity="0.1"/>
    <rect id="Rectangle_586" data-name="Rectangle 586" width="11.264" height="2.253" transform="translate(345.242 210.311)" fill="#ff1744" opacity="0.1"/>
    <rect id="Rectangle_587" data-name="Rectangle 587" width="11.264" height="2.253" transform="translate(345.242 227.77)" fill="#ff1744" opacity="0.1"/>
    <rect id="Rectangle_588" data-name="Rectangle 588" width="11.264" height="32.102" transform="translate(362.138 205.242)" fill="#ff1744" opacity="0.1"/>
    <rect id="Rectangle_589" data-name="Rectangle 589" width="11.264" height="2.253" transform="translate(362.138 210.311)" fill="#ff1744" opacity="0.1"/>
    <rect id="Rectangle_590" data-name="Rectangle 590" width="11.264" height="2.253" transform="translate(362.138 227.77)" fill="#ff1744" opacity="0.1"/>
    <rect id="Rectangle_591" data-name="Rectangle 591" width="11.264" height="32.102" transform="translate(379.034 205.242)" fill="#ff1744" opacity="0.1"/>
    <rect id="Rectangle_592" data-name="Rectangle 592" width="11.264" height="2.253" transform="translate(379.034 210.311)" fill="#ff1744" opacity="0.1"/>
    <rect id="Rectangle_593" data-name="Rectangle 593" width="11.264" height="2.253" transform="translate(379.034 227.77)" fill="#ff1744" opacity="0.1"/>
    <rect id="Rectangle_594" data-name="Rectangle 594" width="11.264" height="32.102" transform="translate(395.93 205.242)" fill="#ff1744" opacity="0.1"/>
    <rect id="Rectangle_595" data-name="Rectangle 595" width="11.264" height="2.253" transform="translate(395.93 210.311)" fill="#ff1744" opacity="0.1"/>
    <rect id="Rectangle_596" data-name="Rectangle 596" width="11.264" height="2.253" transform="translate(395.93 227.77)" fill="#ff1744" opacity="0.1"/>
    <rect id="Rectangle_597" data-name="Rectangle 597" width="11.264" height="32.102" transform="translate(412.826 205.242)" fill="#ff1744" opacity="0.1"/>
    <rect id="Rectangle_598" data-name="Rectangle 598" width="11.264" height="2.253" transform="translate(412.826 210.311)" fill="#ff1744" opacity="0.1"/>
    <rect id="Rectangle_599" data-name="Rectangle 599" width="11.264" height="2.253" transform="translate(412.826 227.77)" fill="#ff1744" opacity="0.1"/>
    <rect id="Rectangle_600" data-name="Rectangle 600" width="11.264" height="32.102" transform="translate(429.722 205.242)" fill="#ff1744" opacity="0.1"/>
    <rect id="Rectangle_601" data-name="Rectangle 601" width="11.264" height="2.253" transform="translate(429.722 210.311)" fill="#ff1744" opacity="0.1"/>
    <rect id="Rectangle_602" data-name="Rectangle 602" width="11.264" height="2.253" transform="translate(429.722 227.77)" fill="#ff1744" opacity="0.1"/>
    <path id="Path_251" data-name="Path 251" d="M864.424,218.626v29.241H853.16V216.48Q858.815,217.477,864.424,218.626Z" transform="translate(-389.645 -119.789)" fill="#ff1744" opacity="0.1"/>
    <rect id="Rectangle_603" data-name="Rectangle 603" width="11.264" height="2.253" transform="translate(463.515 101.05)" fill="#ff1744" opacity="0.1"/>
    <rect id="Rectangle_604" data-name="Rectangle 604" width="11.264" height="2.253" transform="translate(463.515 118.509)" fill="#ff1744" opacity="0.1"/>
    <path id="Path_252" data-name="Path 252" d="M894.424,225.133v25.344H883.16V222.43c1.464.321,2.923.659,4.382,1Q891,224.243,894.424,225.133Z" transform="translate(-402.749 -122.388)" fill="#ff1744" opacity="0.1"/>
    <path id="Path_253" data-name="Path 253" d="M894.424,225.92v.563H883.16V224.23h4.382Q891,225.03,894.424,225.92Z" transform="translate(-402.749 -123.174)" fill="#ff1744" opacity="0.1"/>
    <rect id="Rectangle_605" data-name="Rectangle 605" width="11.264" height="2.253" transform="translate(480.411 118.509)" fill="#ff1744" opacity="0.1"/>
    <circle id="Ellipse_121" data-name="Ellipse 121" cx="21.024" cy="21.024" r="21.024" transform="translate(61.597 70.068)" fill="#ff1744" opacity="0.1"/>
    <circle id="Ellipse_122" data-name="Ellipse 122" cx="17.842" cy="17.842" r="17.842" transform="translate(64.779 73.25)" fill="#ff1744" opacity="0.1"/>
    <circle id="Ellipse_123" data-name="Ellipse 123" cx="1.273" cy="1.273" r="1.273" transform="translate(81.349 89.82)" fill="#ff1744" opacity="0.1"/>
    <line id="Line_1" data-name="Line 1" x1="7.017" y2="12.278" transform="translate(83.252 77.717)" fill="none" stroke="#ff1744" stroke-miterlimit="10" stroke-width="1" opacity="0.1"/>
    <line id="Line_2" data-name="Line 2" x1="6.815" y1="3.588" transform="translate(83.771 91.65)" fill="none" stroke="#ff1744" stroke-miterlimit="10" stroke-width="1" opacity="0.1"/>
    <rect id="Rectangle_606" data-name="Rectangle 606" width="66.137" height="9.344" rx="4.672" transform="translate(263.725 402.954)" fill="#535461"/>
    <g id="Group_191" data-name="Group 191" transform="translate(303.977 298.767)" opacity="0.7">
      <rect id="Rectangle_607" data-name="Rectangle 607" width="164.37" height="113.654" rx="28.22" fill="url(#linear-gradient)"/>
    </g>
    <rect id="Rectangle_608" data-name="Rectangle 608" width="155.708" height="111.553" rx="26.84" transform="translate(306.911 300.863)" fill="#3e3f49"/>
    <rect id="Rectangle_609" data-name="Rectangle 609" width="155.708" height="111.553" rx="26.84" transform="translate(309.068 300.863)" fill="#535461"/>
    <circle id="Ellipse_124" data-name="Ellipse 124" cx="5.029" cy="5.029" r="5.029" transform="translate(389.166 350.841)" fill="#e0e0e0"/>
    <path id="Path_254" data-name="Path 254" d="M241.143,764.33s-8.944-3.03-13.246,4.849a14.373,14.373,0,0,0,.191,13.838c2.816,5.108,8.651,11.743,19.712,11.151,9.36-.5,12.475-7.643,13.32-14.288a14.677,14.677,0,0,0-19.492-15.713Z" transform="translate(-115.797 -358.644)" fill="#ff1744"/>
    <path id="Path_255" data-name="Path 255" d="M229.989,783.535A14.373,14.373,0,0,1,229.8,769.7c4.3-7.885,13.246-4.849,13.246-4.849l.456-.163a14.548,14.548,0,0,1,10.509.237,14.553,14.553,0,0,0-12.39-1.183l-.456.163s-8.944-3.03-13.246,4.849a14.373,14.373,0,0,0,.191,13.838,21.383,21.383,0,0,0,10.138,9.574A22.162,22.162,0,0,1,229.989,783.535Z" transform="translate(-115.806 -358.453)" fill="#fff" opacity="0.1"/>
    <path id="Path_256" data-name="Path 256" d="M244.52,771.85s3.317,2.608,11.365,0" transform="translate(-123.792 -362.374)" opacity="0.2"/>
    <path id="Path_257" data-name="Path 257" d="M243.26,738.21s5.683,15.392,5.21,19.419l4.506-.473s-7.581-13.517-5.683-18.946Z" transform="translate(-123.242 -347.68)" fill="#ff1744"/>
    <path id="Path_258" data-name="Path 258" d="M243.26,738.21s5.683,15.392,5.21,19.419l4.506-.473s-7.581-13.517-5.683-18.946Z" transform="translate(-123.242 -347.68)" opacity="0.2"/>
    <path id="Path_259" data-name="Path 259" d="M270.822,738.724s-8.944-4.573-12.954-.794-4.618,13.438-4.618,13.438S267.843,753.373,270.822,738.724Z" transform="translate(-127.605 -346.904)" fill="#ff1744"/>
    <path id="Path_260" data-name="Path 260" d="M270.822,738.724s-8.944-4.573-12.954-.794-4.618,13.438-4.618,13.438S267.843,753.373,270.822,738.724Z" transform="translate(-127.605 -346.904)" fill="#fff" opacity="0.1"/>
    <path id="Path_261" data-name="Path 261" d="M253.26,753.144s2.349-11.213,17.566-12.644" transform="translate(-127.61 -348.68)" fill="none" stroke="#ff1744" stroke-miterlimit="10" stroke-width="1"/>
    <g id="Group_192" data-name="Group 192" transform="translate(407.336 164.307)" opacity="0.1">
      <path id="Path_262" data-name="Path 262" d="M759.122,347.194s-3.413-1.16-5.069,1.853a5.491,5.491,0,0,0,.073,5.283,7.73,7.73,0,0,0,7.519,4.258c3.576-.192,4.765-2.917,5.069-5.457a5.632,5.632,0,0,0-7.445-6Z" transform="translate(-753.412 -341.025)" fill="#ff1744"/>
      <path id="Path_263" data-name="Path 263" d="M754.887,354.531a5.491,5.491,0,0,1-.073-5.283c1.645-3.007,5.069-1.853,5.069-1.853l.175-.062a5.559,5.559,0,0,1,4.016.09,5.559,5.559,0,0,0-4.737-.451l-.175.062s-3.413-1.16-5.069,1.853a5.491,5.491,0,0,0,.073,5.283,8.206,8.206,0,0,0,3.864,3.655,8.447,8.447,0,0,1-3.143-3.295Z" transform="translate(-753.429 -340.95)" fill="#ff1744" opacity="0.1"/>
      <path id="Path_264" data-name="Path 264" d="M760.42,350.06s1.267,1,4.342,0" transform="translate(-756.473 -342.444)" fill="#ff1744" opacity="0.2"/>
      <path id="Path_265" data-name="Path 265" d="M759.93,337.21s2.168,5.88,1.988,7.417l1.718-.18s-2.895-5.153-2.168-7.237Z" transform="translate(-756.259 -336.831)" fill="#ff1744"/>
      <path id="Path_266" data-name="Path 266" d="M759.93,337.21s2.168,5.88,1.988,7.417l1.718-.18s-2.895-5.153-2.168-7.237Z" transform="translate(-756.259 -336.831)" fill="#ff1744" opacity="0.2"/>
      <path id="Path_267" data-name="Path 267" d="M770.468,337.412s-3.419-1.746-4.945-.3-1.763,5.131-1.763,5.131S769.33,342.993,770.468,337.412Z" transform="translate(-757.932 -336.537)" fill="#ff1744"/>
      <path id="Path_268" data-name="Path 268" d="M770.468,337.412s-3.419-1.746-4.945-.3-1.763,5.131-1.763,5.131S769.33,342.993,770.468,337.412Z" transform="translate(-757.932 -336.537)" fill="#ff1744" opacity="0.1"/>
      <path id="Path_269" data-name="Path 269" d="M763.75,342.912s.9-4.28,6.708-4.832" transform="translate(-757.928 -337.211)" fill="#ff1744"/>
    </g>
    <g id="Group_193" data-name="Group 193" transform="translate(479.426 220.064)" opacity="0.1">
      <path id="Path_270" data-name="Path 270" d="M887.122,446.194s-3.413-1.16-5.069,1.853a5.491,5.491,0,0,0,.073,5.283,7.73,7.73,0,0,0,7.519,4.258c3.576-.191,4.765-2.917,5.069-5.457a5.632,5.632,0,0,0-7.445-6Z" transform="translate(-881.412 -440.025)" fill="#ff1744"/>
      <path id="Path_271" data-name="Path 271" d="M882.887,453.531a5.491,5.491,0,0,1-.073-5.283c1.645-3.008,5.069-1.853,5.069-1.853l.175-.062a5.559,5.559,0,0,1,4.016.09,5.559,5.559,0,0,0-4.737-.451l-.175.062s-3.413-1.16-5.069,1.853a5.491,5.491,0,0,0,.073,5.283,8.206,8.206,0,0,0,3.864,3.655,8.448,8.448,0,0,1-3.143-3.295Z" transform="translate(-881.429 -439.95)" fill="#ff1744" opacity="0.1"/>
      <path id="Path_272" data-name="Path 272" d="M888.42,449.06s1.267,1,4.342,0" transform="translate(-884.473 -441.444)" fill="#ff1744" opacity="0.2"/>
      <path id="Path_273" data-name="Path 273" d="M887.93,436.21s2.168,5.88,1.988,7.417l1.718-.18s-2.895-5.153-2.168-7.237Z" transform="translate(-884.259 -435.831)" fill="#ff1744"/>
      <path id="Path_274" data-name="Path 274" d="M887.93,436.21s2.168,5.88,1.988,7.417l1.718-.18s-2.895-5.153-2.168-7.237Z" transform="translate(-884.259 -435.831)" fill="#ff1744" opacity="0.2"/>
      <path id="Path_275" data-name="Path 275" d="M898.468,436.412s-3.419-1.746-4.945-.3-1.763,5.131-1.763,5.131S897.33,441.993,898.468,436.412Z" transform="translate(-885.932 -435.537)" fill="#ff1744"/>
      <path id="Path_276" data-name="Path 276" d="M898.468,436.412s-3.419-1.746-4.945-.3-1.763,5.131-1.763,5.131S897.33,441.993,898.468,436.412Z" transform="translate(-885.932 -435.537)" fill="#ff1744" opacity="0.1"/>
      <path id="Path_277" data-name="Path 277" d="M891.75,441.912s.9-4.28,6.708-4.832" transform="translate(-885.927 -436.211)" fill="#ff1744"/>
    </g>
  </g>
</svg>
