<svg xmlns="http://www.w3.org/2000/svg" xmlns:xlink="http://www.w3.org/1999/xlink" width="650.126" height="271.942" viewBox="100 0 685.126 421.942">
  <defs>
    <linearGradient id="linear-gradient" x1="0.5" y1="1" x2="0.5" gradientUnits="objectBoundingBox">
      <stop offset="0" stop-color="gray" stop-opacity="0.251"/>
      <stop offset="0.54" stop-color="gray" stop-opacity="0.122"/>
      <stop offset="1" stop-color="gray" stop-opacity="0.102"/>
    </linearGradient>
  </defs>
  <g id="undraw_wedding_t1yl_1_" data-name="undraw_wedding_t1yl (1)" transform="translate(-0.732)">
    <path id="Path_71" data-name="Path 71" d="M441.066,412.661c13.26-.756,29.712-9.756,42.5-13.728q22.71-7.056,45.6-13.56,79.662-22.662,161.063-38.64,7.6-1.488,15.216-2.916a107.789,107.789,0,0,0-35.556-42.7,109.1,109.1,0,0,0,.6-11.262c0-59.484-47.538-107.706-106.2-107.706a104.562,104.562,0,0,0-51.54,13.524c-41.52-27.312-95.712-43.842-155-43.842-84.252,0-158.213,33.384-200.123,83.64l197,33.276,120.8,20.4c-137.717,4.11-275.861,8.2-413.182-1.452a108.851,108.851,0,0,0-15.672,137.4h0c0,2.154.09,4.284.252,6.4,3.5,1.008,6.876,1.974,9.906,2.616q72.966,15.408,146.867,25.8c-36.306,22.386-80.52,25.548-122.4,35.028,20.28,16.74,47.82,27.036,78.168,27.036H611.225c48.93,0,88.59-34.068,88.59-76.092h0a108.082,108.082,0,0,0,14.4-39.528C623.675,415.073,532.008,407.483,441.066,412.661Z" transform="translate(-28.357 -119.76)" fill="#ff1744" opacity="0.1"/>
    <path id="Path_73" data-name="Path 73" d="M842.253,98.38s-45,23.136-21.84,50.556c0,0,2.172,6,8.5,5.538,0,0-1.26-2.3,3.6-4.134a23.352,23.352,0,0,0,4.854-2.574,11.4,11.4,0,0,0,4.362-5.8h0s9.228-12.288,2.142-35.07c0,0,.936-6.438.132-7.476l-5.484,7.476s5.64,3.81,6.276,9.372c0,0-5.862-9.354-7.14-8.292-.258.216-2.724,4.092-2.724,4.092s9.774,6.66,10.488,15.288c0,0-5.5-12.09-11.442-13.8l-3.378,6.072s10.68,6.534,11.868,16.326c0,0-6.18-12.432-12.516-14.946l-2.514,6.42s10.29,6.6,11.226,14.73c0,0-8.6-13.65-11.706-13.2,0,0-1.95,6.036-1.7,7.89,0,0,7.278,4.89,7.4,9.672,0,0-6.708-8.508-7.746-7.95,0,0-.45,8.538,1.614,12.984,0,0-3.522-6.348-2.952-12.984,0,0-3.54,3-4.326,6.93,0,0-1.932-4.7,4.464-9,0,0,.6-6.642,1.35-7.458,0,0-6.906,3.348-9.846,7.482,0,0,1.092-6.162,10.452-9.2l2.4-6.51s-9.366,3.948-12.264,7.434c0,0,2.088-6.114,13-9l3.246-6s-8.328,2.784-12.39,5.964c0,0,3.156-5.256,13.386-7.644l2.634-3.75s-6.042,2.142-7.722,2.916-2.028.384-2.028.384a21.829,21.829,0,0,1,10.788-4.95S842.667,98.782,842.253,98.38Z" transform="translate(-342.239 -98.38)" fill="#ff1744" opacity="0.1"/>
    <path id="Path_74" data-name="Path 74" d="M761.74,144.895s3.5,22.6,18.564,16.572a3.927,3.927,0,0,0,3.6-2.856s-1.17.21-1.266-2.124a10.576,10.576,0,0,0-.408-2.448,5.148,5.148,0,0,0-1.872-2.694h0s-3.948-5.706-14.73-5.916c0,0-2.628-1.32-3.186-1.122l2.4,3.414s2.436-1.878,4.914-1.356c0,0-4.848,1.2-4.572,1.878.054.144,1.362,1.752,1.362,1.752s4.254-3.24,8.052-2.322c0,0-5.964.636-7.56,2.94l2.124,2.31s4.326-3.648,8.694-2.76c0,0-6.216.882-8.2,3.24l2.4,1.992s4.29-3.48,7.92-2.718c0,0-7.08,1.746-7.338,3.138a14.847,14.847,0,0,0,3.138,1.848s3.132-2.4,5.2-1.8c0,0-4.6,1.662-4.512,2.184,0,0,3.6,1.41,5.8,1.164a11.687,11.687,0,0,1-6-.6,6.456,6.456,0,0,0,2.358,2.844s-2.292.156-3.222-3.2c0,0-2.76-1.2-3-1.644a14.125,14.125,0,0,0,1.8,5.292s-2.49-1.35-2.46-5.8l-2.448-1.95s.354,4.578,1.44,6.318c0,0-2.328-1.77-2.022-6.864l-2.106-2.244a23.438,23.438,0,0,0,.8,6.162s-1.8-2.1-1.374-6.828l-1.2-1.662s.06,2.892.15,3.726-.126.924-.126.924a9.839,9.839,0,0,1-.552-5.34S761.974,144.775,761.74,144.895Z" transform="translate(-321.419 -116.743)" fill="#ff1744" opacity="0.1"/>
    <path id="Path_75" data-name="Path 75" d="M898.976,161.487s-22.362-4.752-22.1,11.448a3.9,3.9,0,0,0,1.386,4.368s.222-1.17,2.436-.426a10.422,10.422,0,0,0,2.43.486,5.172,5.172,0,0,0,3.186-.78h0s6.744-1.662,10.8-11.664c0,0,2.172-1.986,2.184-2.574l-4.056,1.05s.888,2.946-.48,5.07c0,0,.6-4.95-.126-4.944-.156,0-2.124.654-2.124.654s1.512,5.124-.7,8.352c0,0,1.536-5.8-.054-8.112l-2.916,1.158s1.872,5.34-.516,9.108c0,0,1.392-6.12-.1-8.808L885.5,167.4s1.722,5.238-.282,8.358c0,0,.894-7.23-.318-7.968a15.336,15.336,0,0,0-2.85,2.274s1.152,3.792-.174,5.5c0,0,.084-4.9-.438-5,0,0-2.6,2.856-3.15,5a11.7,11.7,0,0,1,2.682-5.4,6.462,6.462,0,0,0-3.5,1.2s.672-2.2,4.14-1.872a14.94,14.94,0,0,1,2.6-2.226,14.072,14.072,0,0,0-5.586-.2s2.142-1.842,6.288-.228l2.694-1.6s-4.4-1.3-6.414-.906c0,0,2.478-1.542,7.128.558l2.85-1.2a23.963,23.963,0,0,0-6.042-1.452s2.61-.936,6.87,1.152l1.992-.558s-2.724-.978-3.534-1.2-.822-.444-.822-.444a9.822,9.822,0,0,1,5.19,1.386S899.006,161.745,898.976,161.487Z" transform="translate(-367.395 -123.363)" fill="#ff1744" opacity="0.1"/>
    <ellipse id="Ellipse_114" data-name="Ellipse 114" cx="24.126" cy="4.08" rx="24.126" ry="4.08" transform="translate(379.265 393.574)" fill="#ff1744"/>
    <path id="Path_76" data-name="Path 76" d="M701.946,742.586a6.985,6.985,0,0,0,2.3-3.474,3.081,3.081,0,0,0-1.608-3.534c-1.476-.564-3.054.462-4.248,1.494s-2.568,2.208-4.128,1.992a6.3,6.3,0,0,0,1.944-5.886,2.472,2.472,0,0,0-.54-1.2c-.822-.876-2.3-.5-3.288.186-3.12,2.2-3.99,6.432-4.008,10.248a19.265,19.265,0,0,1-.054-4.2c-.006-1.392-.4-3-1.59-3.738a4.747,4.747,0,0,0-2.4-.564c-1.4-.054-2.964.084-3.918,1.11-1.2,1.278-.882,3.414.15,4.8a15.4,15.4,0,0,0,4.062,3.252,9,9,0,0,1,2.9,2.766,2.5,2.5,0,0,1,.216.5h8.8A24.456,24.456,0,0,0,701.946,742.586Z" transform="translate(-288.577 -351.616)" fill="#ff1744"/>
    <ellipse id="Ellipse_115" data-name="Ellipse 115" cx="24.126" cy="4.08" rx="24.126" ry="4.08" transform="translate(435.065 406.228)" fill="#ff1744"/>
    <path id="Path_77" data-name="Path 77" d="M794.946,763.7a6.985,6.985,0,0,0,2.3-3.474,3.078,3.078,0,0,0-1.608-3.534c-1.476-.564-3.054.456-4.248,1.494s-2.568,2.208-4.128,1.992a6.3,6.3,0,0,0,1.944-5.886,2.448,2.448,0,0,0-.54-1.2c-.822-.876-2.3-.5-3.288.186-3.12,2.2-3.99,6.432-4.008,10.248a19.261,19.261,0,0,1-.054-4.2c-.006-1.392-.4-3-1.59-3.738a4.747,4.747,0,0,0-2.4-.564c-1.4-.054-2.964.084-3.918,1.11-1.2,1.278-.882,3.414.15,4.8a15.517,15.517,0,0,0,4.062,3.252,9,9,0,0,1,2.9,2.766,2.5,2.5,0,0,1,.216.5h8.8A24.661,24.661,0,0,0,794.946,763.7Z" transform="translate(-325.777 -360.06)" fill="#ff1744"/>
    <ellipse id="Ellipse_116" data-name="Ellipse 116" cx="24.126" cy="4.08" rx="24.126" ry="4.08" transform="translate(84.066 401.728)" fill="#ff1744"/>
    <path id="Path_78" data-name="Path 78" d="M209.946,756.2a6.984,6.984,0,0,0,2.3-3.474,3.081,3.081,0,0,0-1.608-3.534c-1.476-.564-3.054.462-4.248,1.494s-2.568,2.214-4.128,1.992a6.3,6.3,0,0,0,1.944-5.886,2.472,2.472,0,0,0-.54-1.2c-.822-.876-2.3-.5-3.288.186-3.12,2.2-3.99,6.438-4.008,10.248a19.264,19.264,0,0,1-.054-4.2c-.006-1.392-.4-3-1.59-3.738a4.746,4.746,0,0,0-2.4-.564c-1.4-.054-2.964.09-3.918,1.116-1.2,1.272-.882,3.408.15,4.8a15.277,15.277,0,0,0,4.062,3.252,9,9,0,0,1,2.9,2.766,2.494,2.494,0,0,1,.216.5h8.8A24.459,24.459,0,0,0,209.946,756.2Z" transform="translate(-91.776 -357.06)" fill="#ff1744"/>
    <path id="Path_79" data-name="Path 79" d="M463.358,562.491a1.472,1.472,0,0,0,0-.162,4.8,4.8,0,0,0-.426-2.226c-.972-1.968-3.312-2.292-5.3-2.634a26.129,26.129,0,0,1-9.234-3.474c-1.878-1.146-3.8-2.832-4.038-5.2,0-.486.036-.972,0-1.416v-.948c0-1.266-.072-2.43-1.014-2.658-5.628-1.392-10.494-6.186-12.432-12.264-.414-1.3-.7-2.646-1.236-3.888-1.7-3.936-5.478-6.072-8.334-9.048-3.756-3.918-5.934-9.366-7.512-14.832s-2.67-11.124-4.74-16.386c-3.45-8.778-6.564-18.126-12.414-25.14-.882-1.062-1.854-2.148-2.88-3.246-5.2-7.6-8.736-16.578-13.242-24.774a24.805,24.805,0,0,0-3.126-4.7,39.554,39.554,0,0,0-5.292-4.374c-8.67-6.768-14.214-17.4-21.684-25.758a33.922,33.922,0,0,1-4.29-5.268,16.8,16.8,0,0,1,.264-3.06c.48-2.49,1.77-4.854,1.548-7.392a10.389,10.389,0,0,1-.126-1.494,5.4,5.4,0,0,1,.456-1.668,16.5,16.5,0,0,1,1.524-3.276,13.938,13.938,0,0,0,2.1-5.526c1.494-1.416,2.142-4.008,4.008-4.662,1.038-.36,2.4-.114,3-1.14a2.748,2.748,0,0,0,.282-1.128,17.178,17.178,0,0,0-.51-6.036,14.847,14.847,0,0,0,.12-3.138,18.876,18.876,0,0,0-2.19-7.458c-.762-1.452-1.8-2.9-3.282-3.24-.324-.072-.654-.09-.966-.186-1.908-.558-2.568-3.5-4.29-4.416,2.214,1.2,4.476,2.556,6.558,1.548,2.616-1.278,2.832-5.262,2.634-8.442l-.7-11.778c-.372-6-.84-12.366-3.93-17.31-2.784-4.464-7.344-7.146-12-8.82-3.144-1.134-6.6-1.86-9.714-.7.186-.132.366-.264.546-.384a8.738,8.738,0,0,0-1.122.42,20.913,20.913,0,0,0-4.512,3.1,16.284,16.284,0,0,0,1.14-6,15.948,15.948,0,0,0-2.508-8.676l3.516-2.958-.822-1.338,1.548-1.476a1.086,1.086,0,0,0-.924-.516,1.3,1.3,0,0,0-.216,0,3.2,3.2,0,0,0-.108-1.314l-.108.1a3.958,3.958,0,0,0-.432-1.044h.126a3.845,3.845,0,0,0-.246-.39v.186A8.671,8.671,0,0,0,325,272.518c-2.688-2.208-5.766-4.038-9.1-4.284-1.62-.12-3.246.138-4.866,0-2.184-.15-4.3-.978-6.492-1.068s-4.656.8-5.562,3c-.39.96-.444,2.04-.738,3.03-.654,2.208-2.4,3.738-3.882,5.37s-2.856,3.822-2.448,6.1a8.77,8.77,0,0,0,.756,2.088l7.6,16.416a32.19,32.19,0,0,1-.108,3.6q-.072.774-.2,1.566c-.036.222-.078.45-.132.678a3.8,3.8,0,0,0-2.292,1.32,1.884,1.884,0,0,0-.4.948,8.568,8.568,0,0,0,.288,1.626,4.2,4.2,0,0,1-.486,2.034,15.788,15.788,0,0,1-2.868,4.9c-.528.546-1.128,1-1.662,1.542a16.534,16.534,0,0,0-1.662,2.082,14.1,14.1,0,0,0-2.664,5.136c-.672,3.18-2.028,6.2-3,9.306a3.172,3.172,0,0,1-.51.684c-.6.564-1.368.8-1.956,1.356-1.32,1.248-1.2,3.528-.876,5.43,1.164,7.068,3.2,13.95,4.014,21.078a77.65,77.65,0,0,0,1.08,8.37,10.2,10.2,0,0,0,1.29,3.336c-.09,2.682.186,5.4-.768,7.872-.444,1.116-1.062,2.136-1.6,3.2a47.032,47.032,0,0,0-1.986,4.728l-3.258,8.58c-.6,1.626-1.236,3.264-1.7,4.956-1.35,4.926-1.356,10.2-1.164,15.33a.66.66,0,0,1-.1.456c-.1.12-.324.084-.33-.078-.042.3-.21.81-.246,1.1,1.452.708,3.084.48,4.7.306v.474a.764.764,0,0,0,0,.114,10.093,10.093,0,0,0,.15,1.458v.036c.042.246.1.486.15.726a.289.289,0,0,0,.048.192c.054.216.114.438.18.648.036.114.066.216.1.324s.09.264.138.39.054.162.084.24c.4,1.032.87,2.028,1.32,3.036a16.2,16.2,0,0,1,1.53,4.956c.036.4.048.792.066,1.2v.414a11.355,11.355,0,0,0,.108,1.278c.108.684.312,1.338.474,2.01.1.4.168.8.24,1.2s.138.918.2,1.374q.678,5.088,1,10.2c.054.822.1,1.65.144,2.472.282,6,.21,12,.138,18.036a36.156,36.156,0,0,1-.6,5.868c-1,5.682-3.072,11.2-4.44,16.842-.144.6-.276,1.2-.4,1.8a24.151,24.151,0,0,0-.6,3.87,27.361,27.361,0,0,0,.468,5.184q.444,3.114.684,6.258a17.531,17.531,0,0,0-2.124,6.324c-.726,6.678-6.384,11.688-7.152,18.366a8.245,8.245,0,0,0-.054,1.278,6.364,6.364,0,0,0,0,.828,5.4,5.4,0,0,0,.18,2.112,4.2,4.2,0,0,0,3.5,2.634,15.241,15.241,0,0,0,4.4-.432c.66-.114,1.32-.186,1.98-.252a4.337,4.337,0,0,1,0,.684,11.8,11.8,0,0,0-.792,1.74,6.15,6.15,0,0,0-.678,2.262,5.028,5.028,0,0,0,.678,2.664,8.876,8.876,0,0,0,7.242,4.2c2.82.24,5.622-.378,8.442-.528h.48a5.223,5.223,0,0,0,.354.768c1.47,2.694,4.422,3.96,7.236,4.2s5.628-.372,8.448-.522c.84-.042,1.686-.042,2.526-.1a24.6,24.6,0,0,0,5.088-.93,29.489,29.489,0,0,0,4.086,4.674c4.944,4.2,11.778,3.96,17.958,3.138s13.146-2.346,18.78.6c4.32-.474,6.894,6.384,11.232,6.558,1.992.078,3.78-1.32,5.22-2.856a5.285,5.285,0,0,1,1.86-1.524,3.659,3.659,0,0,1,1.854-.06,13.908,13.908,0,0,1,8.484,5.124c1.092,1.368,2.208,3.09,3.846,3.126,1.47,0,2.772-1.386,4.23-1.2.99.132,1.8.978,2.658,1.5,2.688,1.59,6,.12,8.58-1.632s5.34-3.87,8.364-3.552c1.962.2,3.708,1.428,5.538,2.226a14.314,14.314,0,0,0,16.6-4.416c.642-.8,1.3-1.734,2.25-1.944a3.528,3.528,0,0,1,1.86.276c3.39,1.128,6.954,2.166,10.422,1.4s6.768-3.906,6.84-7.854a5.765,5.765,0,0,0-.03-.72c0-.15.03-.306.03-.462A3.333,3.333,0,0,0,463.358,562.491ZM327.159,337.06a3.546,3.546,0,0,1-1.2,1.584c-.048-.258-.1-.516-.15-.78-.216-1.116-.462-2.226-.726-3.33a12.763,12.763,0,0,0,2.55,1.26c-.174.42-.318.87-.492,1.266Zm-8.8-27.084v.126c0,2.112.732,3.318,1.8,4.008a16.2,16.2,0,0,0-1.8,7.476,12.685,12.685,0,0,1-1.2-.954,8.1,8.1,0,0,1-1.578-2.322.8.8,0,0,0,.5-.078c.306-.21.294-.7.252-1.1a23.574,23.574,0,0,1,1.482-11.106,12.071,12.071,0,0,0,2.022-.93,9.954,9.954,0,0,0-1.47,4.8.2.2,0,0,0-.03.078Zm29.364,30.114a15.163,15.163,0,0,0-.51,3.564,9.1,9.1,0,0,0-4.566-3.6,6.443,6.443,0,0,0-.672-.162,3.9,3.9,0,0,1,.45-.384c1.722-1.2,3.66-.36,5.64.69a2.9,2.9,0,0,0-.36-.108Z" transform="translate(-126.123 -165.892)" fill="url(#linear-gradient)"/>
    <path id="Path_80" data-name="Path 80" d="M278.4,747.842a4.722,4.722,0,0,0,.774,2.712c1.674,2.742,5.034,4.026,8.232,4.266s6.4-.384,9.6-.534c.96-.042,1.92-.048,2.874-.1,4.968-.3,9.714-2.058,14.4-3.8.768-.282,1.662-.738,1.7-1.548a1.9,1.9,0,0,0-.792-1.416,8.139,8.139,0,0,0-2.046-1.308c-2.6-1.146-5.724-.846-8.2-2.256-.546-.312-1.044-.7-1.614-.954a6.877,6.877,0,0,0-2.088-.48,31.926,31.926,0,0,0-9.288.306,64.941,64.941,0,0,1-7,1.284,8.945,8.945,0,0,1-2.682-.174c-.6-.138-1.362-.678-1.932-.318s-.888,1.506-1.158,2.016A5.862,5.862,0,0,0,278.4,747.842Z" transform="translate(-128.081 -355.918)" fill="#3f3d56"/>
    <path id="Path_81" data-name="Path 81" d="M278.4,747.842a4.722,4.722,0,0,0,.774,2.712c1.674,2.742,5.034,4.026,8.232,4.266s6.4-.384,9.6-.534c.96-.042,1.92-.048,2.874-.1,4.968-.3,9.714-2.058,14.4-3.8.768-.282,1.662-.738,1.7-1.548a1.9,1.9,0,0,0-.792-1.416,8.139,8.139,0,0,0-2.046-1.308c-2.6-1.146-5.724-.846-8.2-2.256-.546-.312-1.044-.7-1.614-.954a6.877,6.877,0,0,0-2.088-.48,31.926,31.926,0,0,0-9.288.306,64.941,64.941,0,0,1-7,1.284,8.945,8.945,0,0,1-2.682-.174c-.6-.138-1.362-.678-1.932-.318s-.888,1.506-1.158,2.016A5.862,5.862,0,0,0,278.4,747.842Z" transform="translate(-128.081 -355.918)" opacity="0.05"/>
    <path id="Path_82" data-name="Path 82" d="M309.719,755.339a4.68,4.68,0,0,0,.774,2.712c1.674,2.742,5.028,4.026,8.232,4.266s6.4-.384,9.6-.534c.96-.042,1.914-.048,2.874-.1,4.968-.3,9.714-2.058,14.4-3.8.768-.288,1.662-.738,1.7-1.554a1.89,1.89,0,0,0-.792-1.41,7.975,7.975,0,0,0-2.046-1.308c-2.6-1.146-5.724-.852-8.2-2.262-.546-.306-1.044-.7-1.614-.948a7.062,7.062,0,0,0-2.088-.486,31.927,31.927,0,0,0-9.288.312,63.485,63.485,0,0,1-7,1.278,8.745,8.745,0,0,1-2.682-.168c-.6-.138-1.362-.678-1.932-.318s-.894,1.506-1.158,2.016a5.766,5.766,0,0,0-.786,2.3Z" transform="translate(-140.609 -358.915)" fill="#3f3d56"/>
    <path id="Path_83" data-name="Path 83" d="M286.907,383.62a3.15,3.15,0,0,0-1.14-1.5c-1.254-.7-2.736.6-3.282,1.9s-.726,2.9-1.8,3.84c-.654.6-1.554.816-2.226,1.38-1.5,1.266-1.35,3.6-1,5.52,1.326,7.2,3.648,14.2,4.572,21.45a76,76,0,0,0,1.2,8.52,8.036,8.036,0,0,0,2.4,4.38,3.655,3.655,0,0,0,4.65.162,53.323,53.323,0,0,1-3.294-18.93c.036-4.2.6-8.4.714-12.648.126-3.708-.06-7.422-.246-11.13a6.918,6.918,0,0,0-.528-2.778,2.4,2.4,0,0,0-2.262-1.422" transform="translate(-127.613 -211.799)" fill="#fbbebe"/>
    <circle id="Ellipse_117" data-name="Ellipse 117" cx="15.102" cy="15.102" r="15.102" transform="translate(171.132 113.376)" fill="#cb8c8e"/>
    <circle id="Ellipse_118" data-name="Ellipse 118" cx="15.15" cy="15.15" r="15.15" transform="translate(191.436 143.579)" fill="#fbbebe"/>
    <path id="Path_84" data-name="Path 84" d="M369.68,384.263c.132,1.2.6,2.6,1.746,2.9a12.839,12.839,0,0,0,1.6.09A2.73,2.73,0,0,1,375,388.781a4.89,4.89,0,0,1,.414,2.538,7.992,7.992,0,0,1-1.236,3.708,10.65,10.65,0,0,1-5.556,4.068,29.949,29.949,0,0,1-6.876,1.266,8.219,8.219,0,0,1-3.114-.1,6.6,6.6,0,0,1-1.8-.912,17.767,17.767,0,0,1-4.422-4.236,10.62,10.62,0,0,1-1.9-3.894,5.856,5.856,0,0,1,.558-4.2,2.07,2.07,0,0,1,1.008-.954c1.284-.462,2.448,1.128,3.81,1.164a2.942,2.942,0,0,0,2.4-1.9,12.8,12.8,0,0,1,1.41-2.892,6.226,6.226,0,0,1,3.3-1.716c2-.528,4.632-1.326,6.72-1.1,1.146.114.4.8.132,1.626A7.3,7.3,0,0,0,369.68,384.263Z" transform="translate(-156.86 -210.863)" fill="#fbbebe"/>
    <path id="Path_85" data-name="Path 85" d="M357.879,405.774c1.842-.828,2.862-2.826,4.506-4.008,1.38-.99,3.1-1.344,4.68-1.974a13.649,13.649,0,0,0,4.32-2.76c1.14-1.074,2.154-2.4,3.6-2.928a5.6,5.6,0,0,1,3.4,0c3.114.864,5.508,3.456,6.9,6.366a34.233,34.233,0,0,1,2.448,9.336l.78,4.8a44.094,44.094,0,0,1,.834,8.9,14.821,14.821,0,0,1-2.724,8.4,16.4,16.4,0,0,0-1.734,3.33,5.082,5.082,0,0,0-.51,1.7,9.342,9.342,0,0,0,.138,1.518c.252,2.58-1.2,4.986-1.764,7.518a21.647,21.647,0,0,0-.264,5.142,1.26,1.26,0,0,0,.132.648,1.2,1.2,0,0,0,.51.408c.4.21.8.408,1.2.6a44.946,44.946,0,0,1-10.086,1.068c-5.946-.138-11.748-1.8-17.658-2.49-.222-2.712.522-5.328.69-8.04a32.576,32.576,0,0,0-.33-5.292,64.2,64.2,0,0,1,.138-14.4c.2-1.68.48-3.354.558-5.046.09-2-.09-4.014.054-6,.138-1.9.6-3.786.648-5.694A.984.984,0,0,0,357.879,405.774Z" transform="translate(-159.339 -216.565)" fill="#f4f6fb"/>
    <path id="Path_86" data-name="Path 86" d="M326.781,483.13c6.216.036,11.694.216,17.892.642,1.092,1.8-1.524,6.654-.042,8.142,8.5,8.514,10.386,19.956,20.25,26.85,2.046,1.428,7.8,2.586,9.6,4.35,1.41,1.4-.744.4.3,2.1,6,9.792,19.53,19.458,27.372,27.876,6.648,7.134,10.2,16.65,14.124,25.584,2.352,5.346,3.6,11.112,5.4,16.674s4.278,11.1,8.55,15.084c3.252,3.036,7.554,5.208,9.48,9.21a38.331,38.331,0,0,1,1.41,3.96,19.8,19.8,0,0,0,14.148,12.474c1.746.384.948,3.294,1.128,5.076.246,2.436,2.448,4.164,4.6,5.334a32.2,32.2,0,0,0,10.494,3.534c2.256.342,4.92.678,6,2.676a4.482,4.482,0,0,1,.486,2.268c-.078,4.02-3.84,7.2-7.8,7.992s-8-.276-11.856-1.422a4.459,4.459,0,0,0-2.118-.282,5.273,5.273,0,0,0-2.562,1.98,17.49,17.49,0,0,1-18.882,4.494c-2.088-.816-4.068-2.058-6.3-2.268-3.444-.324-6.558,1.836-9.522,3.6s-6.708,3.276-9.762,1.656c-1.008-.528-1.9-1.386-3-1.524-1.662-.192-3.144,1.248-4.8,1.2-1.86-.036-3.138-1.8-4.38-3.18a16.236,16.236,0,0,0-9.66-5.154,4.536,4.536,0,0,0-2.106.06,5.929,5.929,0,0,0-2.118,1.548c-1.638,1.566-3.672,3-5.934,2.9-4.938-.174-7.872-7.152-12.786-6.672-6.408-3-14.34-1.452-21.366-.6s-14.808,1.1-20.436-3.192c-2.964-2.268-4.974-5.562-7.74-8.076-4.368-3.972-10.26-5.706-15.942-7.326-9-2.568-18.348-5.16-27.6-3.762a20.541,20.541,0,0,1-5.016.438,4.646,4.646,0,0,1-3.978-2.676,5.238,5.238,0,0,1-.168-2.5c.87-6.792,7.308-11.892,8.13-18.69.414-3.372,2.226-6.324,4.158-9.114a78.606,78.606,0,0,0,4.494-7.746,161.767,161.767,0,0,0,8.82-18.336,158.942,158.942,0,0,0,5.784-20.586c1.56-6.7,2.3-13.566,3.426-20.358.816-4.938,2.094-9.786,3.372-14.628,3.78-14.3,7.584-28.692,13.8-42.108C318.165,481.78,322.623,483.106,326.781,483.13Z" transform="translate(-121.545 -251.285)" fill="#e3e8f4"/>
    <path id="Path_87" data-name="Path 87" d="M326.781,486.13c6.216.036,11.694-.384,17.892.042,1.092,1.8,3.4,3.876,4.884,5.358,8.5,8.526,14.808,19.326,24.666,26.214a43.165,43.165,0,0,1,6,4.452,24.976,24.976,0,0,1,3.558,4.8c6,9.8,10.506,20.7,18.348,29.118,6.648,7.134,10.2,16.65,14.124,25.584,2.352,5.346,3.6,11.112,5.4,16.674s4.278,11.1,8.55,15.084c3.252,3.036,7.554,5.208,9.48,9.21a38.343,38.343,0,0,1,1.41,3.96A19.8,19.8,0,0,0,455.24,639.1c1.746.384.948,3.294,1.128,5.076.246,2.436,2.448,4.164,4.6,5.334a32.2,32.2,0,0,0,10.494,3.534c2.256.342,4.92.678,6,2.676a4.481,4.481,0,0,1,.486,2.268c-.078,4.02-3.84,7.2-7.8,7.992s-8-.276-11.856-1.422a4.458,4.458,0,0,0-2.118-.282,5.272,5.272,0,0,0-2.562,1.98,17.49,17.49,0,0,1-18.882,4.494c-2.088-.816-4.068-2.058-6.3-2.268-3.444-.324-6.558,1.836-9.522,3.6s-6.708,3.276-9.762,1.656c-1.008-.528-1.9-1.386-3-1.524-1.662-.192-3.144,1.248-4.8,1.2-1.86-.036-3.138-1.8-4.38-3.18a16.235,16.235,0,0,0-9.636-5.178,4.535,4.535,0,0,0-2.106.06,5.926,5.926,0,0,0-2.118,1.548c-1.638,1.566-3.672,3-5.934,2.9-4.938-.174-7.872-7.152-12.786-6.672-6.408-3-14.34-1.452-21.366-.6s-14.808,1.1-20.436-3.192c-2.964-2.268-4.974-5.562-7.74-8.076-4.368-3.972-10.26-5.706-15.942-7.326-9-2.568-18.348-5.16-27.6-3.762a20.541,20.541,0,0,1-5.016.438,4.646,4.646,0,0,1-3.978-2.676,5.238,5.238,0,0,1-.168-2.5c.87-6.792,7.308-11.892,8.13-18.69.414-3.372,2.226-6.324,4.158-9.114a78.606,78.606,0,0,0,4.494-7.746,161.768,161.768,0,0,0,8.82-18.336,158.942,158.942,0,0,0,5.784-20.586c1.56-6.7,2.3-13.566,3.426-20.358.816-4.938,2.094-9.786,3.372-14.628,3.78-14.3,7.584-28.692,13.8-42.108C318.165,484.78,322.623,486.106,326.781,486.13Z" transform="translate(-121.545 -252.485)" fill="#e3e8f4"/>
    <path id="Path_88" data-name="Path 88" d="M326.781,484.13c6.216.036,11.694-.384,17.892.042,1.092,1.8,3.4,3.876,4.884,5.358,8.5,8.526,14.808,19.326,24.666,26.214a43.175,43.175,0,0,1,6,4.452,24.972,24.972,0,0,1,3.558,4.8c6,9.8,10.506,20.7,18.348,29.118,6.648,7.134,10.2,16.65,14.124,25.584,2.352,5.346,3.6,11.112,5.4,16.674s4.278,11.1,8.55,15.084c3.252,3.036,7.554,5.208,9.48,9.21a38.348,38.348,0,0,1,1.41,3.96A19.8,19.8,0,0,0,455.24,637.1c1.746.384.948,3.294,1.128,5.076.246,2.436,2.448,4.164,4.6,5.334a32.2,32.2,0,0,0,10.494,3.534c2.256.342,4.92.678,6,2.676a4.481,4.481,0,0,1,.486,2.268c-.078,4.02-3.84,7.2-7.8,7.992s-8-.276-11.856-1.422a4.458,4.458,0,0,0-2.118-.282,5.273,5.273,0,0,0-2.562,1.98,17.49,17.49,0,0,1-18.882,4.494c-2.088-.816-4.068-2.058-6.3-2.268-3.444-.324-6.558,1.836-9.522,3.6s-6.708,3.276-9.762,1.656c-1.008-.528-1.9-1.386-3-1.524-1.662-.192-3.144,1.248-4.8,1.2-1.86-.036-3.138-1.8-4.38-3.18a16.235,16.235,0,0,0-9.636-5.178,4.535,4.535,0,0,0-2.106.06,5.927,5.927,0,0,0-2.118,1.548c-1.638,1.566-3.672,3-5.934,2.9-4.938-.174-7.872-7.152-12.786-6.672-6.408-3-14.34-1.452-21.366-.6s-14.808,1.1-20.436-3.192c-2.964-2.268-4.974-5.562-7.74-8.076-4.368-3.972-10.26-5.706-15.942-7.326-9-2.568-18.348-5.16-27.6-3.762a20.541,20.541,0,0,1-5.016.438,4.646,4.646,0,0,1-3.978-2.676,5.238,5.238,0,0,1-.168-2.5c.87-6.792,7.308-11.892,8.13-18.69.414-3.372,2.226-6.324,4.158-9.114a78.606,78.606,0,0,0,4.494-7.746,161.767,161.767,0,0,0,8.82-18.336,158.941,158.941,0,0,0,5.784-20.586c1.56-6.7,2.3-13.566,3.426-20.358.816-4.938,2.094-9.786,3.372-14.628,3.78-14.3,7.584-28.692,13.8-42.108C318.165,482.78,322.623,484.106,326.781,484.13Z" transform="translate(-121.545 -251.685)" fill="#f4f6fb"/>
    <path id="Path_89" data-name="Path 89" d="M278.532,531.68c-1.98,2.166-1.53,5.61-.372,8.3s2.916,5.22,3.24,8.136c.108.972.048,1.956.216,2.922.126.7.36,1.362.54,2.046a23.05,23.05,0,0,1,.5,2.628c.636,4.272,1.068,8.58,1.3,12.9.33,6.108.246,12.234.162,18.354-.12,8.562-4.2,16.578-6.186,24.906a21.539,21.539,0,0,0-.684,3.936,25.606,25.606,0,0,0,.522,5.274,86.567,86.567,0,0,1-1.05,32.868,6.517,6.517,0,0,1,2.622,6.036c3.87.678,7.92,1.344,11.646.114,2.25-.738,4.272-2.142,6.6-2.58,1.8-.33,3.882-.162,5.154-1.47a5.476,5.476,0,0,0,1.1-2.1c4.392-12.78,3.162-26.694,2.916-40.2-.132-7.26,0-14.526-.276-21.78a168.648,168.648,0,0,0-6.048-38.232c-1.68-6-3.3-12-6.6-17.322a9.048,9.048,0,0,0-2.748-3.1,10.217,10.217,0,0,0-4.236-1.122C283.794,531.872,281.592,532.028,278.532,531.68Z" transform="translate(-127.41 -271.701)" fill="#3f3d56"/>
    <path id="Path_90" data-name="Path 90" d="M303.846,653.956a5.5,5.5,0,0,1-1.1,2.094c-1.272,1.314-3.36,1.14-5.154,1.476-.228.042-.456.1-.678.156-2.046.546-3.894,1.752-5.916,2.4-3.732,1.2-7.8.564-11.652-.114a6.527,6.527,0,0,0-2.622-6.042,86.538,86.538,0,0,0,1.056-32.862,25.2,25.2,0,0,1-.528-5.274,21.971,21.971,0,0,1,.684-3.936c1.974-8.334,6.066-16.35,6.186-24.912.084-6.12.168-12.246-.156-18.354q-.354-6.48-1.3-12.9a24.425,24.425,0,0,0-.5-2.628c-.186-.678-.42-1.35-.54-2.046-.174-.96-.114-1.95-.222-2.922-.324-2.916-2.076-5.436-3.24-8.13a12.037,12.037,0,0,1-.936-3.492,6,6,0,0,1,1.308-4.8c2.058.228,3.72.222,5.52.3.882.036,1.8.1,2.8.21A10.018,10.018,0,0,1,291.1,533.3a9,9,0,0,1,2.742,3.1c.324.522.63,1.05.924,1.584,2.694,4.9,4.164,10.3,5.676,15.732a168.7,168.7,0,0,1,6.048,38.232c.306,7.254.144,14.52.276,21.786C307.014,627.268,308.238,641.169,303.846,653.956Z" transform="translate(-127.41 -271.697)" opacity="0.05"/>
    <path id="Path_91" data-name="Path 91" d="M330.528,535.851v3.156q-.042,15.2-.078,30.4a120.6,120.6,0,0,1-.432,12.5c-1.062,10.8-5.01,21.258-4.59,32.07.3,7.854.6,15.8-.978,23.5-.6,2.952-1.476,5.856-1.908,8.838a16.69,16.69,0,0,0,.8,8.9c.852,1.986,2.286,3.864,2.208,6a5.886,5.886,0,0,1-2.838,4.488,13.489,13.489,0,0,1-5.2,1.734,39.891,39.891,0,0,1-6.918.534c-3.318-.036-7.1-.762-8.814-3.6a8.559,8.559,0,0,1-.51-6.5c.066-.252.132-.5.2-.744.564-1.89,1.368-3.708,1.8-5.628a15.666,15.666,0,0,0-.642-9.1c-.2-.54-.846-1.56-1.422-1.494a24.475,24.475,0,0,1-1.2-7.506l-.846-17.22a44.4,44.4,0,0,1,.408-11.22c.6-3,1.878-5.856,2.238-8.9a29.442,29.442,0,0,0-.03-5.49,243.767,243.767,0,0,0-3.648-28.038,3.359,3.359,0,0,0-.462-1.332c-.4-.552-1.086-.81-1.572-1.29-1.02-1-.924-2.622-1.164-4.032-.432-2.544-2.118-4.656-3.42-6.876a25.2,25.2,0,0,1-3.378-11.742,24.636,24.636,0,0,1,.474-5.826c.048-.258.108-.516.168-.774a156.922,156.922,0,0,1,39.084,2.4,3.192,3.192,0,0,1,2.436,1.3,3.247,3.247,0,0,1,.228,1.488Z" transform="translate(-131.97 -271.168)" fill="#3f3d56"/>
    <path id="Path_92" data-name="Path 92" d="M475.66,607.738c6.456,11.364,12.936,22.752,18.072,34.77,4.17,9.75,7.59,20.136,14.586,28.1,6.552,7.458,15.6,12.114,24.486,16.6l-7.956-7.008c-7.986-7.05-16.14-14.3-21.21-23.664-2.76-5.1-4.512-10.674-6.6-16.1a147.68,147.68,0,0,0-21.978-38.784A109.428,109.428,0,0,0,466.78,592C468.814,597.4,472.792,602.7,475.66,607.738Z" transform="translate(-203.434 -295.829)" fill="#e3e8f4"/>
    <path id="Path_93" data-name="Path 93" d="M423.842,738.7c1.944,4,3.924,8.052,6.888,11.364.252-1.98-1.1-3.756-2.178-5.436a46.5,46.5,0,0,1-4.308-9.894c-1.092-3.15-2.106-7.494-4.428-9.984C418.628,729.022,422.042,735.028,423.842,738.7Z" transform="translate(-184.551 -348.93)" fill="#e3e8f4"/>
    <path id="Path_94" data-name="Path 94" d="M379.419,602.027c.564,3,.894,6,1.65,8.934a63.724,63.724,0,0,0,2.73,7.74l12.648,31.524c-.108-4.284-2.4-8.16-3.858-12.18-1.8-4.938-2.448-10.2-3.918-15.276-1.2-4.116-2.94-8.046-4.2-12.144-1.752-5.778-2.49-11.814-3.864-17.694a129.4,129.4,0,0,0-4.638-15c-.84-2.316-1.8-4.722-3.654-6.324s-4.962-2.058-6.714-.324c-2.466,2.442,1.272,3.972,2.5,5.562a59.651,59.651,0,0,1,11.3,25.2Z" transform="translate(-162.633 -287.1)" fill="#e3e8f4"/>
    <path id="Path_95" data-name="Path 95" d="M411.331,509.608a11.494,11.494,0,0,1,1.74,2.256c.678,1.248.948,2.706,1.8,3.864a37.742,37.742,0,0,0-5.112-5.808c-1.152-.99-2.4-1.842-3.558-2.832-.882-.756-4.746-4.032-3.978-5.148C405.607,503.662,408.757,506.83,411.331,509.608Z" transform="translate(-177.571 -259.805)" fill="#e3e8f4"/>
    <path id="Path_96" data-name="Path 96" d="M333.834,321.477a8.636,8.636,0,0,1-1.554,3.384,21.654,21.654,0,0,0-3.09,10.47,21,21,0,0,0,.144,3.246c.048.4.06.906-.288,1.116a1.008,1.008,0,0,1-.6.078c-.408-.036-.8-.084-1.2-.15-6.414-1.026-12.03-5.4-18.486-6.5a3.084,3.084,0,0,0,1.65-1.95,8.769,8.769,0,0,0,.39-1.488c.1-.534.168-1.068.222-1.59.408-3.864-.18-7.416-.4-11.34-.246-4.572,5.4-3.066,8.712-3.126a27.456,27.456,0,0,1,7.932.63,9.3,9.3,0,0,1,6.114,4.734A4.8,4.8,0,0,1,333.834,321.477Z" transform="translate(-140.226 -184.401)" fill="#cb8c8e"/>
    <path id="Path_97" data-name="Path 97" d="M330.146,349.281a1.008,1.008,0,0,1-.6.078c-.408-.036-.8-.084-1.2-.15-.552-.516-1.086-1.056-1.6-1.62a35.052,35.052,0,0,0-3.672-3.93,12.744,12.744,0,0,0-7.5-2.676,24.669,24.669,0,0,1-4.068-.228,8.774,8.774,0,0,0,.39-1.488c.1-.534.168-1.068.222-1.59a20.132,20.132,0,0,1,2.268-.162,10.9,10.9,0,0,1,2.688-.054,13.723,13.723,0,0,1,4.122,1.74,49.063,49.063,0,0,1,5.526,2.856c.528.372,1.032.78,1.536,1.2.684.558,1.362,1.122,2.046,1.674a20.992,20.992,0,0,0,.144,3.246C330.482,348.561,330.494,349.071,330.146,349.281Z" transform="translate(-141.326 -193.99)" fill="#e3e8f4"/>
    <path id="Path_98" data-name="Path 98" d="M326.256,535.847V539c-2.5.072-5.046.438-7.53.6-2.334.168-4.674.174-7.014.144a20.365,20.365,0,0,1-5.436-.6c-1.278-.372-2.478-.984-3.75-1.368a18.062,18.062,0,0,0-7.47-.348c-2.064.24-4.146.6-6.2.786a8.329,8.329,0,0,1-3.96-.408,7.343,7.343,0,0,1-1.02-.564,13.924,13.924,0,0,0-1.584-.918,9.38,9.38,0,0,0-4.77-.4,6,6,0,0,1,1.308-4.8c2.058.228,3.72.222,5.52.3.048-.258.108-.516.168-.774a156.913,156.913,0,0,1,39.084,2.4,3.192,3.192,0,0,1,2.436,1.3A3.246,3.246,0,0,1,326.256,535.847Z" transform="translate(-127.698 -271.164)" opacity="0.1"/>
    <path id="Path_99" data-name="Path 99" d="M295.508,341.307a5.289,5.289,0,0,0-3.534,1.488,1.8,1.8,0,0,0-.45.966,8.08,8.08,0,0,0,.324,1.656,3.87,3.87,0,0,1-.552,2.064,16.061,16.061,0,0,1-3.264,4.986c-.6.558-1.284,1.02-1.89,1.566a16.726,16.726,0,0,0-1.89,2.124,13.792,13.792,0,0,0-3.03,5.22c-.81,3.426-2.5,6.66-3.6,10.008a21.646,21.646,0,0,0-1.2,10.38c.282,1.644.852,3.222,1.248,4.842.636,2.6.816,5.286,1.488,7.872.426,1.614,1.038,3.174,1.5,4.8a26.148,26.148,0,0,1,.8,10.734c-.45,3.282.306,6.774-1.02,9.8a36.979,36.979,0,0,1-1.8,3.264,45.571,45.571,0,0,0-2.262,4.8l-3.7,8.736a50.734,50.734,0,0,0-1.938,5.04c-1.542,5.016-1.548,10.362-1.332,15.6a.66.66,0,0,1-.1.468c-.114.12-.372.084-.378-.078-.048.3-.24.822-.282,1.122,3.15,1.368,7.026-.7,10.164.7.912.408,1.686,1.086,2.6,1.482a8.256,8.256,0,0,0,3.96.414c4.578-.378,9.276-1.8,13.668-.444,1.278.39,2.472,1,3.75,1.374a20.428,20.428,0,0,0,5.442.6c2.34.036,4.68.03,7.014-.144,5.022-.366,10.3-1.464,14.922.528,1.494-1.1,1.608-2.8,1.668-4.65q.168-5.22.336-10.434l1.242-38.37a38.4,38.4,0,0,0-.294-7.92c-.846-4.752-3.444-9-6-13.074l-11.934-19.2c-.792-1.272,0-2.694.546-4.092a26.494,26.494,0,0,0,1.536-6.228c.192-1.566.18-3.33-.882-4.494a19.221,19.221,0,0,0-2.13-1.584,9.912,9.912,0,0,1-2.2-3.066,19.8,19.8,0,0,0-7.014-7.308A14.834,14.834,0,0,0,295.508,341.307Z" transform="translate(-124.178 -195.484)" fill="#3f3d56"/>
    <path id="Path_100" data-name="Path 100" d="M327.877,369.56c-4.242,1.17-6.87,5.478-8.034,9.72-1.632,5.934-1.236,12.276.2,18.252a102.358,102.358,0,0,0,6.39,17.28,41.5,41.5,0,0,0,1.968,4.02,19.254,19.254,0,0,0,8.808,8,16.272,16.272,0,0,0,11.8.522,6.936,6.936,0,0,0,1.98-1.008c2.124-1.632,2.454-4.656,2.61-7.332l.534-9.378a4.722,4.722,0,0,0-.072-1.482,5.4,5.4,0,0,0-1.086-1.8,22.428,22.428,0,0,1-3.84-7.632,38.815,38.815,0,0,0-1.674-5.79c-.5-1.1-1.2-2.112-1.746-3.2a30.586,30.586,0,0,1-2.19-7.518q-.738-3.348-1.764-6.63a11.174,11.174,0,0,0-1.53-3.4c-1.65-2.232-4.578-3.036-7.29-3.6A8.4,8.4,0,0,0,329,368.39a8.727,8.727,0,0,0-3.69,2.634" transform="translate(-144.235 -206.325)" opacity="0.1"/>
    <path id="Path_101" data-name="Path 101" d="M328.877,368.56c-4.242,1.17-6.87,5.478-8.034,9.72-1.632,5.934-1.236,12.276.2,18.252a102.356,102.356,0,0,0,6.39,17.28,41.5,41.5,0,0,0,1.968,4.02,19.254,19.254,0,0,0,8.808,8,16.272,16.272,0,0,0,11.8.522,6.935,6.935,0,0,0,1.98-1.008c2.124-1.632,2.454-4.656,2.61-7.332l.534-9.378a4.72,4.72,0,0,0-.072-1.482,5.4,5.4,0,0,0-1.086-1.8,22.429,22.429,0,0,1-3.84-7.632,38.814,38.814,0,0,0-1.674-5.79c-.5-1.1-1.2-2.112-1.746-3.2a30.586,30.586,0,0,1-2.19-7.518q-.738-3.348-1.764-6.63a11.173,11.173,0,0,0-1.53-3.4c-1.65-2.232-4.578-3.036-7.29-3.6A8.4,8.4,0,0,0,330,367.39a8.727,8.727,0,0,0-3.69,2.634" transform="translate(-144.635 -205.925)" fill="#3f3d56"/>
    <path id="Path_102" data-name="Path 102" d="M403,404.416a14.13,14.13,0,0,1-.792-10.146c2.352.6,3,4.068,5.4,4.686.354.09.732.108,1.092.186,1.68.342,2.868,1.8,3.738,3.3a17.754,17.754,0,0,1,2.5,7.584,12.7,12.7,0,0,1-1.8,7.71c.06-.09-4.2-4.458-4.56-4.908q-1.122-1.314-2.2-2.682a19.24,19.24,0,0,1-2.022-2.718c-.2-.384-.246-.828-.426-1.236C403.645,405.586,403.291,405.01,403,404.416Z" transform="translate(-177.368 -216.737)" fill="#cb8c8e"/>
    <path id="Path_103" data-name="Path 103" d="M352.364,444.606a26.214,26.214,0,0,1-7.458,15.222c-.918.906-2.064,1.8-3.348,1.674-1.386-.144-2.34-1.4-3.33-2.4-1.8-1.8-4.2-2.874-6.2-4.446a31.6,31.6,0,0,1-2.928-2.742,68.173,68.173,0,0,1-8.244-9.5,54.151,54.151,0,0,0-4.032-5.856c-1.242-1.41-2.736-2.574-4.044-3.918a9.4,9.4,0,0,1-2.772-4.8c-.33-1.956-2.4-3.228-3.7-4.728a16.656,16.656,0,0,1-3.63-13.908,3.191,3.191,0,0,1,1.656-2.574,2.682,2.682,0,0,1,1.236-.078c2.532.354,4.41,2.454,6.048,4.422a36.988,36.988,0,0,1,3.09,4.08c2,3.246,2.916,7.026,3.8,10.734.522,2.166,2.682,3.768,4.236,5.364l3.9,4c.93.954,1.86,1.914,2.88,2.772a37.433,37.433,0,0,0,9.48,5.4,12.032,12.032,0,0,1,1.32-3.072,3.99,3.99,0,0,1,2.688-1.8c1.548-.2,2.964.828,4.2,1.8l4.59,3.6C352.064,444.066,352.4,444.294,352.364,444.606Z" transform="translate(-137.672 -221.635)" fill="#fbbebe"/>
    <path id="Path_104" data-name="Path 104" d="M385.4,409.355a6.636,6.636,0,0,1,1.314,2.076,13.633,13.633,0,0,1,1.338,6.774,20.238,20.238,0,0,1-.828,3.7l-1.428,4.914a228.99,228.99,0,0,1-7.446,22.608c-2.466-3.2-6.78-4.164-10.284-6.162a2.9,2.9,0,0,1-.906-.7,2.58,2.58,0,0,1-.45-1.536,11.478,11.478,0,0,1,.948-4.284c2.184-5.862,5.214-11.586,5.568-17.826a33.539,33.539,0,0,1,.222-3.474,9.852,9.852,0,0,1,4.62-6.66C380.083,407.477,383.611,407.6,385.4,409.355Z" transform="translate(-163.405 -222.192)" opacity="0.1"/>
    <path id="Path_105" data-name="Path 105" d="M384.4,407.049a6.7,6.7,0,0,1,1.314,2.076,13.632,13.632,0,0,1,1.338,6.774,20.129,20.129,0,0,1-.828,3.75l-1.428,4.914a228.992,228.992,0,0,1-7.446,22.608c-2.466-3.192-6.78-4.164-10.284-6.162a2.88,2.88,0,0,1-.906-.7,2.61,2.61,0,0,1-.45-1.536,11.483,11.483,0,0,1,.948-4.29c2.184-5.862,5.214-11.58,5.568-17.826a33.306,33.306,0,0,1,.222-3.468,9.846,9.846,0,0,1,4.62-6.666A6.424,6.424,0,0,1,384.4,407.049Z" transform="translate(-163.005 -221.278)" fill="#f4f6fb"/>
    <path id="Path_106" data-name="Path 106" d="M362.982,339.452a8.3,8.3,0,0,1,1.734,4.872,31.941,31.941,0,0,1-.876,13.488c-1.4,4.32-4.38,8.274-8.55,10.068,5.808.942,12.708,1.53,16.644-2.85a12.66,12.66,0,0,1,2.37-2.5c4.17-2.628,9.462,4.3,13.986,2.334,3-1.3,3.216-5.352,3-8.592l-.822-12c-.42-6.126-.954-12.6-4.464-17.616-3.168-4.542-8.358-7.272-13.632-9-3.792-1.2-8.016-1.986-11.706-.468-4.71,1.932-13.8,9.648-13.746,15.354C347.022,341.024,359.022,335.264,362.982,339.452Z" transform="translate(-155.49 -185.571)" fill="#3f3d56"/>
    <path id="Path_107" data-name="Path 107" d="M371.441,423.584a6,6,0,0,0,1.992-.258c1.02-.378,1.8-1.326,2.9-1.482.552-.078,1.26,0,1.5-.522a2.077,2.077,0,0,0,.078-.75c.084-1.458,1.914-1.962,3.15-2.742a9.222,9.222,0,0,0,2.046-1.968l4.26-5.034a3.192,3.192,0,0,1,1.62-1.23,2.892,2.892,0,0,1,2.106.6,16.458,16.458,0,0,1,7.272,15.264,2.586,2.586,0,0,1-.312,1.17c-.666,1.044-2.232.792-3.414,1.164-2.262.708-2.952,3.642-4.89,5-.87.6-1.944.858-2.79,1.482a18.977,18.977,0,0,0-2.262,2.562,14.287,14.287,0,0,1-4.554,3l-5.022,2.448a19.718,19.718,0,0,1-3.078,1.284,19.39,19.39,0,0,1-5.592.474L362.771,444a2.166,2.166,0,0,1-1.2-.24,2.01,2.01,0,0,1-.534-.6,13.2,13.2,0,0,1-1.6-9.846c.558-2.772,1.872-6.6,3.846-8.706C365,422.8,369.065,423.632,371.441,423.584Z" transform="translate(-160.373 -222.861)" fill="#3f3d56"/>
    <path id="Path_108" data-name="Path 108" d="M331.79,290.218a2.73,2.73,0,0,1,1.386-2.916l4.56-3.426-.936-1.362,1.758-1.506a1.278,1.278,0,0,0-1.3-.5c.276-1.854-1.308-3.42-2.814-4.524-3.066-2.244-6.6-4.11-10.356-4.362-1.842-.12-3.69.144-5.532,0-2.484-.156-4.9-1-7.386-1.092s-5.286.882-6.33,3.12a29.569,29.569,0,0,0-.84,3.084c-.75,2.244-2.73,3.8-4.416,5.46s-3.252,3.888-2.784,6.2a8.171,8.171,0,0,0,.858,2.13l9.3,17.958a4.134,4.134,0,0,1,3.126-2.154c1.53-.18,3,.5,4.548.7a7.2,7.2,0,0,0,6.186-2.4c2.052-2.364,2.55-8.4,6.114-9,1.26-.216,3.276,1.374,4.374.744C332.6,295.66,331.814,291.55,331.79,290.218Z" transform="translate(-135.41 -167.236)" fill="#3f3d56"/>
    <g id="Group_186" data-name="Group 186" transform="translate(191.4 131.027)" opacity="0.1">
      <path id="Path_109" data-name="Path 109" d="M358.87,366.206c4.17-1.8,7.14-5.76,8.55-10.074a31.863,31.863,0,0,0,.876-13.488c-.2-1.74-.528-3.6-1.734-4.872-3.96-4.2-15.96,1.572-16.068-6.864-.066-4.866,6.552-11.19,11.4-14.148a10.994,10.994,0,0,0-1.278.426c-4.71,1.932-13.8,9.654-13.746,15.354.108,8.436,12.108,2.682,16.068,6.87a8.287,8.287,0,0,1,1.734,4.872,31.912,31.912,0,0,1-.876,13.482c-1.4,4.314-4.38,8.28-8.55,10.074,5.124.828,11.094,1.38,15.132-1.506C366.832,367.262,362.626,366.812,358.87,366.206Z" transform="translate(-346.87 -316.76)"/>
      <path id="Path_110" data-name="Path 110" d="M397.788,389.848a5.329,5.329,0,0,0-1.158,1.044c3.678.24,7.86,4.524,11.544,2.922a4.14,4.14,0,0,0,1.632-1.284C405.774,392.373,401.37,387.592,397.788,389.848Z" transform="translate(-366.774 -345.754)"/>
    </g>
    <g id="Group_187" data-name="Group 187" transform="translate(161.526 110.556)" opacity="0.1">
      <path id="Path_111" data-name="Path 111" d="M363.362,283.03c-.09-.132-.186-.264-.282-.39a3.36,3.36,0,0,1-.03.414,1.344,1.344,0,0,1,.312-.024Z" transform="translate(-323.468 -282.64)"/>
      <path id="Path_112" data-name="Path 112" d="M338.858,286.764a1.278,1.278,0,0,0-1.3-.5,2.91,2.91,0,0,0-.12-1.35l-1.242,1.062.936,1.356-4.56,3.432a2.73,2.73,0,0,0-1.386,2.916c0,1.332.81,5.442-.486,6.18-1.092.63-3.114-.96-4.368-.744-3.564.6-4.062,6.6-6.114,9a7.2,7.2,0,0,1-6.186,2.4c-1.53-.186-3-.87-4.548-.69a4.158,4.158,0,0,0-3.132,2.154q-4.638-8.964-9.276-17.922v.132a8.4,8.4,0,0,0,.864,2.13l9.288,17.922a4.158,4.158,0,0,1,3.132-2.154c1.53-.18,3,.5,4.548.7a7.2,7.2,0,0,0,6.186-2.4c2.052-2.364,2.55-8.4,6.114-9,1.254-.216,3.276,1.374,4.368.744,1.3-.738.51-4.848.486-6.18a3.654,3.654,0,0,1,.264-1.8,3.6,3.6,0,0,1,1.122-1.134l4.56-3.426-.936-1.362Z" transform="translate(-297.08 -283.548)"/>
    </g>
    <path id="Path_113" data-name="Path 113" d="M275.9,495.213c-.6,2.562-.978,5.178-1.8,7.68-.36,1.128-.8,2.226-1.158,3.354-.318,1.026-.558,2.064-.8,3.108l-.978,4.2a1.914,1.914,0,0,0,1.488-.84,5.683,5.683,0,0,0,.738-1.608l1.638-4.872,1.2-3.6c1.7-5.07,3.414-10.152,4.71-15.348.324-1.284.6-2.568.882-3.864.108-.5.894-3.276.09-3.042-.57.162-1.536,2.694-1.8,3.246-.6,1.1-1.092,2.232-1.578,3.378a49.97,49.97,0,0,0-2.628,8.208Z" transform="translate(-125.186 -251.176)" opacity="0.1"/>
    <path id="Path_114" data-name="Path 114" d="M328.968,392.578s-2.712-.978-3.378.186c0,0,4.932,1.8,5.928,4.392,0,0,1.272-1.308-.468-2.97l-.324-2.436Z" transform="translate(-146.958 -215.729)" fill="#00a66c"/>
    <path id="Path_115" data-name="Path 115" d="M335.575,386.072s.15-1.236-.474-1.368-4.848.114-4.17,4.8,5.562,2.928,5.562,2.928l2.142-2.5s.456-3.306-2.544-4.1Z" transform="translate(-149.065 -212.9)" fill="#ff1744"/>
    <path id="Path_116" data-name="Path 116" d="M331.46,382.76s-3.684,1.86-1.9,6.534l1.386-.8S332.684,384.434,331.46,382.76Z" transform="translate(-148.352 -212.133)" opacity="0.1"/>
    <path id="Path_117" data-name="Path 117" d="M331.243,382.6s-3.678,1.86-1.89,6.534l1.074.63S332.473,384.274,331.243,382.6Z" transform="translate(-148.267 -212.069)" fill="#ff1744"/>
    <path id="Path_118" data-name="Path 118" d="M339.556,390.553a3.192,3.192,0,0,0,1.128,1.632c.864.6-.858,1.986-.858,1.986s-2.328,2.646-4.53,1.356c-1.314-2.214-.324-2.52-.324-2.52S337.72,389.989,339.556,390.553Z" transform="translate(-150.568 -215.222)" opacity="0.1"/>
    <path id="Path_119" data-name="Path 119" d="M339.441,390.763a3.192,3.192,0,0,0,1.128,1.632c.858.6-.864,1.986-.864,1.986s-2.322,2.646-4.53,1.356-.324-2.514-.324-2.514S337.575,390.2,339.441,390.763Z" transform="translate(-150.363 -215.306)" fill="#ff1744"/>
    <path id="Path_120" data-name="Path 120" d="M327.4,381.532s-2.724.948-2.508,2.274c0,0,4.968-1.7,7.374-.318,0,0,.162-1.8-2.232-2.016l-1.8-1.692Z" transform="translate(-146.674 -210.941)" fill="#5f3839"/>
    <path id="Path_121" data-name="Path 121" d="M328.981,372.64s-.66-1.056-1.2-.768-3.69,3.138-.228,6.342,6.168-1.2,6.168-1.2l.06-3.288s-1.728-2.856-4.56-1.584Z" transform="translate(-147.103 -207.755)" fill="#ff1744"/>
    <path id="Path_122" data-name="Path 122" d="M323.783,373.49s-1.692,3.762,2.646,6.27l.57-1.494S325.775,374.024,323.783,373.49Z" transform="translate(-146.105 -208.425)" opacity="0.1"/>
    <path id="Path_123" data-name="Path 123" d="M323.485,373.5s-1.686,3.762,2.646,6.27l1.23-.186S325.495,374.028,323.485,373.5Z" transform="translate(-145.987 -208.429)" fill="#ff1744"/>
    <path id="Path_124" data-name="Path 124" d="M335.15,373.41a3.216,3.216,0,0,0,1.908.564c1.056-.066.6,2.082.6,2.082s-.144,3.522-2.67,3.906c-2.4-.894-1.836-1.752-1.836-1.752S333.368,374.13,335.15,373.41Z" transform="translate(-149.96 -208.393)" opacity="0.1"/>
    <path id="Path_125" data-name="Path 125" d="M335.355,373.51a3.2,3.2,0,0,0,1.908.564c1.056-.066.6,2.082.6,2.082s-.138,3.522-2.664,3.906-1.836-1.752-1.836-1.752S333.573,374.23,335.355,373.51Z" transform="translate(-150.033 -208.433)" fill="#ff1744"/>
    <path id="Path_126" data-name="Path 126" d="M311.566,384.387s.864-.756,1.338.24l-.4,2.232-2.478,22.1-1.584,2.9Z" transform="translate(-140.098 -212.674)" fill="#00a66c"/>
    <path id="Path_127" data-name="Path 127" d="M290.97,277.62l-10.38,33.72.942.522,10.3-34.02Z" transform="translate(-112.158 -111.049)" fill="#00a66c"/>
    <path id="Path_128" data-name="Path 128" d="M316.484,401.48s-2.328,8.8-4.9,12.312-2.082,6.42-2.082,6.42l.84.258,6.9-18.378Z" transform="translate(-140.51 -219.621)" fill="#00a66c"/>
    <path id="Path_129" data-name="Path 129" d="M297.428,290.19,282.62,315.978l.708.384,15.27-25.986Z" transform="translate(-112.97 -116.077)" fill="#00a66c"/>
    <path id="Path_130" data-name="Path 130" d="M300.454,301.54,282.01,320.764l.552.714,18.678-19.506Z" transform="translate(-112.726 -120.617)" fill="#00a66c"/>
    <path id="Path_131" data-name="Path 131" d="M330.584,401.7s-.246-1.08-1.074-.876-17.13,18.306-17.13,18.306l.69.54Z" transform="translate(-141.674 -219.348)" fill="#00a66c"/>
    <path id="Path_132" data-name="Path 132" d="M310.549,381.51s-2.784.756-2.652,2.094c0,0,5.07-1.356,7.374.192,0,0,.288-1.8-2.088-2.166l-1.668-1.8Z" transform="translate(-139.879 -210.961)" fill="#00a66c"/>
    <path id="Path_133" data-name="Path 133" d="M312.766,372.681s-.6-1.1-1.17-.846-3.9,2.874-.672,6.306,6.24-.792,6.24-.792l.318-3.276s-1.524-2.964-4.44-1.9Z" transform="translate(-140.535 -207.748)" fill="#ff1744"/>
    <path id="Path_134" data-name="Path 134" d="M307.565,373.09s-1.95,3.636,2.2,6.438l.672-1.452S309.527,373.756,307.565,373.09Z" transform="translate(-139.565 -208.265)" opacity="0.1"/>
    <path id="Path_135" data-name="Path 135" d="M307.3,373.08s-1.95,3.636,2.2,6.438l1.242-.1S309.263,373.746,307.3,373.08Z" transform="translate(-139.457 -208.261)" fill="#ff1744"/>
    <path id="Path_136" data-name="Path 136" d="M318.778,373.88a3.21,3.21,0,0,0,1.866.672c1.056,0,.432,2.118.432,2.118s-.384,3.5-2.928,3.714c-2.346-1.056-1.71-1.878-1.71-1.878S316.954,374.474,318.778,373.88Z" transform="translate(-143.266 -208.581)" opacity="0.1"/>
    <path id="Path_137" data-name="Path 137" d="M318.953,374a3.239,3.239,0,0,0,1.866.7c1.056,0,.432,2.118.432,2.118s-.384,3.5-2.928,3.708-1.71-1.872-1.71-1.872S317.129,374.6,318.953,374Z" transform="translate(-143.315 -208.629)" fill="#ff1744"/>
    <path id="Path_138" data-name="Path 138" d="M322.375,372.88s-2.784.756-2.658,2.094c0,0,5.07-1.356,7.374.186,0,0,.294-1.8-2.088-2.16l-1.668-1.8Z" transform="translate(-144.607 -207.509)" fill="#00a66c"/>
    <path id="Path_139" data-name="Path 139" d="M324.586,364.071s-.6-1.1-1.17-.846-3.9,2.874-.672,6.306,6.24-.792,6.24-.792l.318-3.276s-1.524-2.964-4.44-1.9Z" transform="translate(-145.264 -204.304)" fill="#ff1744"/>
    <path id="Path_140" data-name="Path 140" d="M319.385,364.48s-1.95,3.636,2.2,6.438l.672-1.452S321.371,365.146,319.385,364.48Z" transform="translate(-144.293 -204.821)" opacity="0.1"/>
    <path id="Path_141" data-name="Path 141" d="M319.116,364.47s-1.944,3.636,2.2,6.438l1.242-.1S321.084,365.136,319.116,364.47Z" transform="translate(-144.186 -204.817)" fill="#ff1744"/>
    <path id="Path_142" data-name="Path 142" d="M330.6,365.27a3.186,3.186,0,0,0,1.86.69c1.056,0,.432,2.118.432,2.118s-.384,3.5-2.928,3.714c-2.34-1.062-1.71-1.878-1.71-1.878S328.775,365.864,330.6,365.27Z" transform="translate(-147.995 -205.137)" opacity="0.1"/>
    <path id="Path_143" data-name="Path 143" d="M330.779,365.38a3.187,3.187,0,0,0,1.86.69c1.056,0,.432,2.118.432,2.118s-.384,3.5-2.928,3.714-1.71-1.878-1.71-1.878S328.949,365.974,330.779,365.38Z" transform="translate(-148.043 -205.181)" fill="#ff1744"/>
    <path id="Path_144" data-name="Path 144" d="M331.888,385.448s-2.712-.978-3.378.186c0,0,4.932,1.8,5.934,4.392,0,0,1.272-1.308-.468-2.97l-.324-2.436Z" transform="translate(-148.126 -212.877)" fill="#00a66c"/>
    <path id="Path_145" data-name="Path 145" d="M338.48,378.912s.15-1.236-.474-1.368-4.842.114-4.2,4.8,5.568,2.928,5.568,2.928l2.142-2.5s.45-3.306-2.55-4.1Z" transform="translate(-150.218 -210.036)" fill="#ff1744"/>
    <path id="Path_146" data-name="Path 146" d="M334.412,375.64s-3.684,1.86-1.89,6.534l1.38-.8S335.612,377.314,334.412,375.64Z" transform="translate(-149.534 -209.285)" opacity="0.1"/>
    <path id="Path_147" data-name="Path 147" d="M334.17,375.48s-3.684,1.86-1.9,6.534l1.074.63S335.394,377.154,334.17,375.48Z" transform="translate(-149.436 -209.221)" fill="#ff1744"/>
    <path id="Path_148" data-name="Path 148" d="M342.477,383.433a3.24,3.24,0,0,0,1.128,1.632c.864.6-.858,1.986-.858,1.986s-2.328,2.646-4.53,1.356c-1.308-2.208-.324-2.52-.324-2.52S340.641,382.869,342.477,383.433Z" transform="translate(-151.737 -212.374)" opacity="0.1"/>
    <path id="Path_149" data-name="Path 149" d="M342.326,383.643a3.222,3.222,0,0,0,1.128,1.638c.864.6-.858,1.98-.858,1.98s-2.328,2.646-4.53,1.362-.324-2.52-.324-2.52S340.49,383.079,342.326,383.643Z" transform="translate(-151.52 -212.458)" fill="#ff1744"/>
    <path id="Path_150" data-name="Path 150" d="M339.142,397.7s-2.712-.978-3.372.192c0,0,4.926,1.8,5.928,4.392,0,0,1.272-1.314-.468-2.97l-.324-2.442Z" transform="translate(-151.03 -217.777)" fill="#00a66c"/>
    <path id="Path_151" data-name="Path 151" d="M345.749,391.157s.15-1.236-.474-1.362-4.842.108-4.164,4.8,5.562,2.934,5.562,2.934l2.142-2.5s.45-3.3-2.55-4.1Z" transform="translate(-153.137 -214.937)" fill="#ff1744"/>
    <path id="Path_152" data-name="Path 152" d="M341.632,387.88s-3.684,1.86-1.89,6.54l1.38-.8S342.862,389.554,341.632,387.88Z" transform="translate(-152.422 -214.181)" opacity="0.1"/>
    <path id="Path_153" data-name="Path 153" d="M341.41,387.72s-3.684,1.86-1.9,6.534l1.074.63S342.64,389.394,341.41,387.72Z" transform="translate(-152.332 -214.117)" fill="#ff1744"/>
    <path id="Path_154" data-name="Path 154" d="M349.7,395.673a3.234,3.234,0,0,0,1.122,1.638c.864.6-.858,1.98-.858,1.98s-2.328,2.646-4.53,1.362c-1.308-2.214-.324-2.52-.324-2.52S347.9,395.109,349.7,395.673Z" transform="translate(-154.625 -217.27)" opacity="0.1"/>
    <path id="Path_155" data-name="Path 155" d="M349.576,395.893a3.192,3.192,0,0,0,1.128,1.632c.864.6-.858,1.986-.858,1.986s-2.328,2.646-4.53,1.356-.324-2.52-.324-2.52S347.74,395.329,349.576,395.893Z" transform="translate(-154.42 -217.358)" fill="#ff1744"/>
    <path id="Path_156" data-name="Path 156" d="M340.058,401.808s-2.712-.978-3.378.192c0,0,4.932,1.8,5.928,4.392,0,0,1.278-1.314-.462-2.97l-.33-2.442Z" transform="translate(-151.394 -219.421)" fill="#00a66c"/>
    <path id="Path_157" data-name="Path 157" d="M346.666,395.266s.15-1.23-.474-1.362-4.842.108-4.17,4.8,5.562,2.934,5.562,2.934l2.142-2.5s.456-3.306-2.544-4.1Z" transform="translate(-153.502 -216.58)" fill="#ff1744"/>
    <path id="Path_158" data-name="Path 158" d="M342.554,392s-3.684,1.854-1.884,6.534l1.386-.8S343.778,393.668,342.554,392Z" transform="translate(-152.792 -215.829)" opacity="0.1"/>
    <path id="Path_159" data-name="Path 159" d="M342.333,391.83s-3.678,1.86-1.89,6.534l1.074.636S343.581,393.5,342.333,391.83Z" transform="translate(-152.703 -215.761)" fill="#ff1744"/>
    <path id="Path_160" data-name="Path 160" d="M350.646,399.783a3.222,3.222,0,0,0,1.128,1.638c.864.6-.858,1.98-.858,1.98s-2.328,2.652-4.53,1.362c-1.314-2.214-.324-2.52-.324-2.52S348.81,399.219,350.646,399.783Z" transform="translate(-155.004 -218.914)" opacity="0.1"/>
    <path id="Path_161" data-name="Path 161" d="M350.5,400a3.192,3.192,0,0,0,1.128,1.632c.864.6-.864,1.986-.864,1.986s-2.322,2.646-4.524,1.356-.33-2.52-.33-2.52S348.665,399.439,350.5,400Z" transform="translate(-154.787 -219.002)" fill="#ff1744"/>
    <path id="Path_162" data-name="Path 162" d="M318.038,399.124s-2.712-.984-3.378.186c0,0,4.932,1.8,5.928,4.392,0,0,1.272-1.308-.468-2.97l-.324-2.442Z" transform="translate(-142.586 -218.345)" fill="#00a66c"/>
    <path id="Path_163" data-name="Path 163" d="M324.645,392.576s.15-1.23-.474-1.362-4.848.114-4.17,4.8,5.562,2.934,5.562,2.934l2.142-2.5s.456-3.306-2.544-4.1Z" transform="translate(-144.693 -215.504)" fill="#ff1744"/>
    <path id="Path_164" data-name="Path 164" d="M320.541,389.31s-3.672,1.86-1.872,6.534l1.386-.8S321.765,390.984,320.541,389.31Z" transform="translate(-143.991 -214.753)" opacity="0.1"/>
    <path id="Path_165" data-name="Path 165" d="M320.313,389.15s-3.678,1.854-1.89,6.534l1.074.6S321.573,390.824,320.313,389.15Z" transform="translate(-143.895 -214.689)" fill="#ff1744"/>
    <path id="Path_166" data-name="Path 166" d="M328.626,397.093a3.2,3.2,0,0,0,1.128,1.638c.864.6-.858,1.986-.858,1.986s-2.328,2.646-4.53,1.356c-1.314-2.214-.324-2.52-.324-2.52S326.79,396.529,328.626,397.093Z" transform="translate(-146.196 -217.838)" opacity="0.1"/>
    <path id="Path_167" data-name="Path 167" d="M328.441,397.313a3.192,3.192,0,0,0,1.128,1.632c.858.6-.864,1.986-.864,1.986s-2.322,2.646-4.53,1.356-.324-2.52-.324-2.52S326.641,396.749,328.441,397.313Z" transform="translate(-145.963 -217.926)" fill="#ff1744"/>
    <path id="Path_168" data-name="Path 168" d="M320.508,385.654s-2.718-.984-3.378.186c0,0,4.932,1.8,5.928,4.392,0,0,1.272-1.308-.468-2.97l-.324-2.442Z" transform="translate(-143.574 -212.957)" fill="#00a66c"/>
    <path id="Path_169" data-name="Path 169" d="M327.1,379.07s.15-1.2-.474-1.362-4.848.114-4.2,4.8,5.562,2.934,5.562,2.934l2.142-2.5s.45-3.306-2.55-4.1Z" transform="translate(-145.665 -210.099)" fill="#ff1744"/>
    <path id="Path_170" data-name="Path 170" d="M322.993,375.84s-3.678,1.854-1.89,6.534l1.386-.8S324.223,377.514,322.993,375.84Z" transform="translate(-144.967 -209.365)" opacity="0.1"/>
    <path id="Path_171" data-name="Path 171" d="M322.782,375.68s-3.684,1.854-1.89,6.534l1.068.63S324.012,377.354,322.782,375.68Z" transform="translate(-144.882 -209.301)" fill="#ff1744"/>
    <path id="Path_172" data-name="Path 172" d="M331.1,383.623a3.222,3.222,0,0,0,1.128,1.638c.864.6-.858,1.986-.858,1.986s-2.328,2.646-4.53,1.356c-1.314-2.214-.324-2.52-.324-2.52S329.254,383.059,331.1,383.623Z" transform="translate(-147.184 -212.45)" opacity="0.1"/>
    <path id="Path_173" data-name="Path 173" d="M330.936,383.847a3.192,3.192,0,0,0,1.128,1.632c.864.6-.858,1.986-.858,1.986s-2.328,2.646-4.53,1.356-.324-2.52-.324-2.52S329.1,383.313,330.936,383.847Z" transform="translate(-146.964 -212.542)" fill="#ff1744"/>
    <path id="Path_174" data-name="Path 174" d="M306.922,406.58s7.434.822,11.472,13.752-8.664,3.258-8.664,3.258-3.348.672-3.87-6.078A27.525,27.525,0,0,1,306.922,406.58Z" transform="translate(-139.024 -221.661)" fill="#fbbebe"/>
    <rect id="Rectangle_539" data-name="Rectangle 539" width="2.772" height="0.822" rx="0.411" transform="translate(166.567 195.366) rotate(-23.92)" fill="#e3e8f4"/>
    <path id="Path_175" data-name="Path 175" d="M251.118,332.216l-1.2-1.092c-4.308-3.96-7.158-6.528-7.158-9.732a4.554,4.554,0,0,1,4.608-4.632,4.95,4.95,0,0,1,3.768,1.77,4.932,4.932,0,0,1,3.768-1.77,4.554,4.554,0,0,1,4.6,4.632c0,3.2-2.844,5.772-7.158,9.732Z" transform="translate(-113.825 -185.732)" fill="#ff1744" opacity="0.1"/>
    <path id="Path_176" data-name="Path 176" d="M223.2,218.756l-1.2-1.1c-4.314-3.954-7.164-6.528-7.164-9.726a4.554,4.554,0,0,1,4.608-4.632,4.95,4.95,0,0,1,3.768,1.77,4.944,4.944,0,0,1,3.768-1.77,4.554,4.554,0,0,1,4.6,4.632c0,3.2-2.844,5.772-7.158,9.726Z" transform="translate(-102.657 -140.348)" fill="#ff1744" opacity="0.1"/>
    <path id="Path_177" data-name="Path 177" d="M432.648,273.146l-1.2-1.1c-4.314-3.954-7.158-6.528-7.158-9.726a4.554,4.554,0,0,1,4.6-4.632,4.944,4.944,0,0,1,3.768,1.77,4.95,4.95,0,0,1,3.768-1.77,4.554,4.554,0,0,1,4.608,4.632c0,3.2-2.85,5.772-7.158,9.726Z" transform="translate(-186.438 -162.104)" fill="#ff1744" opacity="0.1"/>
    <path id="Path_178" data-name="Path 178" d="M848.139,268.967c-2.4-3.264-7.362.276-5.118,3.654.6.882,1.23,1.74,1.836,2.556,7.392,9.978,11.22,22.092,14.52,34.062.8,2.94,1.59,6.078.666,9,1.32-7.8.462-15.81-1.53-23.448a145.1,145.1,0,0,0-8.3-22.14A19.868,19.868,0,0,0,848.139,268.967Z" transform="translate(-353.704 -166.097)" fill="#ff1744" opacity="0.5"/>
    <path id="Path_179" data-name="Path 179" d="M769.285,304.8c-4.986-.15-5.616,7.41-.654,7.8,1.3.1,2.616.132,3.864.168,15.264.414,29.7,5.952,43.566,11.9,3.408,1.458,6.978,3.1,9,6.222-6.252-7.248-14.484-12.558-23.244-16.464s-18.084-6.462-27.408-8.856A23.737,23.737,0,0,0,769.285,304.8Z" transform="translate(-322.808 -180.947)" fill="#ff1744"/>
    <path id="Path_180" data-name="Path 180" d="M772.966,335.767c-3.144.12-2.436,4.59.732,4.62.828,0,1.656-.03,2.448-.066,9.6-.39,19.488,2.268,29.052,5.19,2.346.714,4.83,1.53,6.534,3.288a52.45,52.45,0,0,0-16.98-8.718,129.01,129.01,0,0,0-18.48-4.062A16.951,16.951,0,0,0,772.966,335.767Z" transform="translate(-325.097 -193.334)" fill="#ff1744" opacity="0.2"/>
    <path id="Path_181" data-name="Path 181" d="M880.783,447.192c.894,3,5.046,1.2,4.29-1.854-.2-.8-.444-1.6-.672-2.352-2.766-9.234-2.634-19.44-2.178-29.43.108-2.454.282-5.058,1.56-7.146a52.417,52.417,0,0,0-4.23,18.6,129.748,129.748,0,0,0,.648,18.906,16.8,16.8,0,0,0,.582,3.276Z" transform="translate(-368.492 -221.593)" fill="#ff1744" opacity="0.5"/>
    <path id="Path_182" data-name="Path 182" d="M782.882,262.822c-1.9-.33-2.04,2.43-.15,2.85.5.108,1,.192,1.47.276,5.8.99,11.352,3.828,16.692,6.786a9.084,9.084,0,0,1,3.486,2.8,31.889,31.889,0,0,0-9.036-7.362,78.406,78.406,0,0,0-10.518-4.8A9.907,9.907,0,0,0,782.882,262.822Z" transform="translate(-329.277 -164.146)" fill="#ff1744" opacity="0.2"/>
    <path id="Path_183" data-name="Path 183" d="M733.687,378.451c-4.8,2.478-.744,9.27,4.2,7.014,1.29-.6,2.556-1.248,3.756-1.878,14.694-7.62,31.764-10.422,48.546-12.6,4.122-.528,8.514-.99,12.324.642-10.386-2.934-21.444-3.174-32.136-1.932s-21.09,3.924-31.386,6.75a28.129,28.129,0,0,0-5.3,2Z" transform="translate(-309.338 -206.624)" fill="#ff1744"/>
    <path id="Path_184" data-name="Path 184" d="M757.26,412.116c-3.456,3.222,1.938,7.032,5.562,3.936.948-.81,1.854-1.668,2.718-2.478,10.53-9.882,24.444-16.92,38.3-23.4,3.4-1.59,17.4-3.216,21.132-3.126-9.756.87-29.694,3.918-38.556,7.95a213.953,213.953,0,0,0-25.152,14.112A26.926,26.926,0,0,0,757.26,412.116Z" transform="translate(-319.183 -213.846)" fill="#ff1744" opacity="0.5"/>
    <path id="Path_185" data-name="Path 185" d="M799.02,459.784c-1.008,4.608,5.592,4.674,6.816.066.318-1.2.6-2.4.822-3.6,3.048-14.094,10.494-27.774,18.21-40.974,1.89-3.24,12.486-12.534,15.6-14.586-7.536,6.27-22.2,20.112-27.2,28.464a212.924,212.924,0,0,0-12.66,25.872A27.514,27.514,0,0,0,799.02,459.784Z" transform="translate(-336.29 -219.305)" fill="#ff1744"/>
    <path id="Path_186" data-name="Path 186" d="M876.877,227.67c-2.352-4.8-9.078-.852-6.942,4.068.558,1.29,1.2,2.55,1.8,3.75,7.248,14.658,9.738,31.614,11.6,48.276.462,4.092.846,8.448-.81,12.21,3.036-10.26,3.438-21.222,2.4-31.8s-3.528-20.958-6.144-31.2A28.02,28.02,0,0,0,876.877,227.67Z" transform="translate(-364.532 -149.226)" fill="#ff1744"/>
    <path id="Path_187" data-name="Path 187" d="M815.517,239.8a.894.894,0,0,0,.408.12c.258,0,.444-.264.552-.5.6-1.272.252-2.928,1.152-4.008a13.8,13.8,0,0,1,2.2,3.684l3.456-1.068a5.124,5.124,0,0,1-.654,3.954,5.341,5.341,0,0,1,1.626,1.1,1.8,1.8,0,0,1,.426,1.83,8.8,8.8,0,0,1-2.442.24,15.973,15.973,0,0,1-.258,4.536.846.846,0,0,1-.294.6.828.828,0,0,1-.846-.144,8,8,0,0,1-2.838-3l-1.284,3.018a1.326,1.326,0,0,1-.6.768.912.912,0,0,1-1.074-.366,2.814,2.814,0,0,1-.384-1.164l-.48-2.922a.715.715,0,0,0-.156-.414.75.75,0,0,0-.486-.1q-1.8-.054-3.654-.036c-.21-.648.438-1.254,1.056-1.524s1.368-.48,1.68-1.086c.636-1.23-1.014-2.946-.312-4.014C813.123,238.044,814.455,239.274,815.517,239.8Z" transform="translate(-340.66 -153.192)" fill="#ff1744"/>
    <path id="Path_188" data-name="Path 188" d="M922.026,268.967c2.4-3.264,7.368.276,5.124,3.654-.6.882-1.2,1.74-1.836,2.556-7.392,9.978-11.22,22.092-14.52,34.062-.8,2.94-1.59,6.078-.666,9-1.32-7.8-.462-15.81,1.53-23.448a145.094,145.094,0,0,1,8.3-22.14,20.193,20.193,0,0,1,2.07-3.684Z" transform="translate(-380.522 -166.097)" fill="#ff1744" opacity="0.5"/>
    <path id="Path_189" data-name="Path 189" d="M973.106,304.8c4.986-.15,5.616,7.41.654,7.8-1.3.1-2.616.132-3.864.168-15.264.414-29.7,5.952-43.566,11.9-3.408,1.458-6.978,3.1-9,6.222,6.252-7.248,14.484-12.558,23.244-16.464s18.078-6.462,27.408-8.856A23.737,23.737,0,0,1,973.106,304.8Z" transform="translate(-383.655 -180.947)" fill="#ff1744"/>
    <path id="Path_190" data-name="Path 190" d="M982.156,335.767c3.144.12,2.436,4.59-.732,4.62-.828,0-1.656-.03-2.448-.066-9.63-.39-19.488,2.268-29.052,5.19-2.346.714-4.8,1.53-6.534,3.288a52.391,52.391,0,0,1,16.98-8.718,129.194,129.194,0,0,1,18.48-4.062A16.914,16.914,0,0,1,982.156,335.767Z" transform="translate(-394.08 -193.334)" fill="#ff1744" opacity="0.5"/>
    <path id="Path_191" data-name="Path 191" d="M984.108,262.822c1.9-.33,2.04,2.43.15,2.85-.5.108-1,.192-1.47.276-5.8.99-11.352,3.828-16.692,6.786a9.086,9.086,0,0,0-3.486,2.8,31.89,31.89,0,0,1,9.036-7.362,78.4,78.4,0,0,1,10.518-4.8,9.9,9.9,0,0,1,1.944-.546Z" transform="translate(-401.768 -164.146)" fill="#ff1744" opacity="0.2"/>
    <path id="Path_192" data-name="Path 192" d="M913.928,467.45c-.426,1.872-3.03.942-2.688-.966.09-.5.2-.99.312-1.458,1.326-5.736.846-11.952.174-18a9.1,9.1,0,0,0-1.236-4.3,31.969,31.969,0,0,1,3.306,11.16,79.052,79.052,0,0,1,.348,11.544A10.374,10.374,0,0,1,913.928,467.45Z" transform="translate(-380.919 -236.121)" fill="#ff1744" opacity="0.2"/>
    <path id="Path_193" data-name="Path 193" d="M977.17,443.416c1.482,2.508-2.154,2.34-3.75-.174-.42-.654-.8-1.314-1.17-1.944-4.512-7.668-11.4-15.252-18.276-22.578a25.212,25.212,0,0,0-5.664-4.89,89.064,89.064,0,0,1,14.85,12.7c4.434,4.638,8.352,9.468,12.186,14.292A23.426,23.426,0,0,1,977.17,443.416Z" transform="translate(-396.048 -224.561)" fill="#ff1744" opacity="0.5"/>
    <path id="Path_194" data-name="Path 194" d="M776.768,443.416c-1.482,2.508,2.154,2.34,3.756-.174.414-.654.8-1.314,1.17-1.944,4.506-7.668,11.364-15.252,18.276-22.578a25.215,25.215,0,0,1,5.664-4.89,89.063,89.063,0,0,0-14.868,12.7c-4.434,4.638-8.352,9.468-12.186,14.292A23.5,23.5,0,0,0,776.768,443.416Z" transform="translate(-327.291 -224.561)" fill="#ff1744" opacity="0.2"/>
    <path id="Path_195" data-name="Path 195" d="M857.023,467.45c.426,1.872,3,.942,2.688-.966-.09-.5-.2-.99-.312-1.458-1.326-5.736-.846-11.952-.174-18a9.1,9.1,0,0,1,1.236-4.3,31.968,31.968,0,0,0-3.312,11.178,79.043,79.043,0,0,0-.348,11.544,10.371,10.371,0,0,0,.222,2Z" transform="translate(-359.415 -236.121)" fill="#ff1744" opacity="0.2"/>
    <path id="Path_196" data-name="Path 196" d="M958.828,294.212c1.89-.33,2.034,2.436.144,2.85-.492.114-.99.192-1.464.276-5.8.99-11.352,3.828-16.7,6.786a9.12,9.12,0,0,0-3.48,2.8,32.053,32.053,0,0,1,9-7.362,80.018,80.018,0,0,1,10.524-4.8A10.8,10.8,0,0,1,958.828,294.212Z" transform="translate(-391.656 -176.702)" fill="#ff1744" opacity="0.2"/>
    <path id="Path_197" data-name="Path 197" d="M933.532,232.442c1.638-1.014,2.8,1.494,1.2,2.586-.42.288-.852.552-1.26.8-5.01,3.084-9.1,7.8-12.948,12.534a8.967,8.967,0,0,0-2.184,3.894,31.9,31.9,0,0,1,5.622-10.2,79.636,79.636,0,0,1,7.974-8.364A10.667,10.667,0,0,1,933.532,232.442Z" transform="translate(-384.059 -151.911)" fill="#ff1744" opacity="0.2"/>
    <path id="Path_198" data-name="Path 198" d="M1001.316,378.451c4.8,2.478.744,9.27-4.2,7.014-1.3-.6-2.556-1.248-3.762-1.878-14.688-7.62-31.758-10.422-48.546-12.6-4.116-.528-8.508-.99-12.318.642,10.386-2.934,21.444-3.174,32.136-1.932s21.09,3.924,31.386,6.75a28.13,28.13,0,0,1,5.3,2Z" transform="translate(-389.719 -206.624)" fill="#ff1744"/>
    <path id="Path_199" data-name="Path 199" d="M979.166,412.116c3.456,3.222-1.938,7.032-5.562,3.936-.954-.81-1.854-1.668-2.718-2.478-10.53-9.882-24.444-16.92-38.3-23.4-3.4-1.59-17.4-3.216-21.138-3.126,9.762.87,29.7,3.918,38.562,7.95a213.38,213.38,0,0,1,25.146,14.112,26.666,26.666,0,0,1,4.008,3.006Z" transform="translate(-381.303 -213.846)" fill="#ff1744" opacity="0.5"/>
    <path id="Path_200" data-name="Path 200" d="M933.972,465.436c.426,4.7-6.138,3.942-6.774-.78-.162-1.236-.264-2.472-.366-3.654-1.254-14.4-6.93-28.914-12.93-42.984-1.47-3.45-10.8-14-13.662-16.428,6.69,7.164,19.512,22.734,23.4,31.644a218.183,218.183,0,0,1,9.33,27.288,27.21,27.21,0,0,1,1,4.914Z" transform="translate(-376.819 -219.665)" fill="#ff1744"/>
    <path id="Path_201" data-name="Path 201" d="M956.831,239.8a.894.894,0,0,1-.408.12c-.258,0-.444-.264-.552-.5-.6-1.272-.252-2.928-1.152-4.008a13.8,13.8,0,0,0-2.2,3.684l-3.456-1.068a5.124,5.124,0,0,0,.654,3.954,5.341,5.341,0,0,0-1.626,1.1,1.8,1.8,0,0,0-.426,1.83,8.8,8.8,0,0,0,2.442.24,15.974,15.974,0,0,0,.258,4.536.847.847,0,0,0,.294.6.828.828,0,0,0,.846-.144,8,8,0,0,0,2.838-3l1.284,3.018a1.326,1.326,0,0,0,.6.768.912.912,0,0,0,1.074-.366,2.717,2.717,0,0,0,.378-1.164l.48-2.922a.767.767,0,0,1,.162-.414.75.75,0,0,1,.51-.144q1.8-.054,3.654-.036c.21-.648-.438-1.254-1.056-1.524s-1.368-.48-1.68-1.086c-.636-1.23,1.008-2.946.312-4.014C959.231,238.044,957.9,239.274,956.831,239.8Z" transform="translate(-395.755 -153.192)" fill="#ff1744"/>
    <path id="Path_202" data-name="Path 202" d="M974.216,476.806a.768.768,0,0,1-.408.12c-.258,0-.444-.258-.552-.5-.6-1.278-.252-2.934-1.152-4.008a13.683,13.683,0,0,0-2.2,3.678l-3.456-1.068a5.142,5.142,0,0,0,.654,3.96,5.24,5.24,0,0,0-1.626,1.1,1.8,1.8,0,0,0-.426,1.8,8.8,8.8,0,0,0,2.442.246,15.987,15.987,0,0,0,.258,4.536.642.642,0,0,0,1.14.438,8,8,0,0,0,2.838-3l1.284,3.066a1.344,1.344,0,0,0,.6.768.918.918,0,0,0,1.074-.372,2.694,2.694,0,0,0,.378-1.164l.48-2.922a.743.743,0,0,1,.162-.408.726.726,0,0,1,.51-.15q1.8-.042,3.654-.036c.21-.648-.438-1.248-1.056-1.524s-1.368-.474-1.68-1.08c-.636-1.236,1.008-2.952.312-4.014C976.61,475.048,975.278,476.278,974.216,476.806Z" transform="translate(-402.711 -247.997)" fill="#ff1744" opacity="0.2"/>
    <path id="Path_203" data-name="Path 203" d="M1022.981,317.942a.918.918,0,0,1-.408.12c-.264,0-.444-.264-.552-.5-.6-1.278-.252-2.934-1.158-4.008a13.8,13.8,0,0,0-2.2,3.684l-3.45-1.074a5.136,5.136,0,0,0,.654,3.96,5.269,5.269,0,0,0-1.626,1.1,1.8,1.8,0,0,0-.426,1.83,8.794,8.794,0,0,0,2.442.24,15.985,15.985,0,0,0,.258,4.536.816.816,0,0,0,.294.6c.252.162.6,0,.846-.138a8,8,0,0,0,2.838-3l1.284,3.066a1.363,1.363,0,0,0,.57.768.924.924,0,0,0,1.08-.372,2.672,2.672,0,0,0,.378-1.164l.48-2.916a.719.719,0,0,1,.162-.414.744.744,0,0,1,.51-.15q1.8-.042,3.654-.036c.21-.648-.438-1.248-1.062-1.518s-1.362-.48-1.674-1.086c-.636-1.236,1.008-2.952.312-4.014C1025.375,316.178,1024.043,317.42,1022.981,317.942Z" transform="translate(-422.215 -184.449)" fill="#ff1744"/>
    <path id="Path_204" data-name="Path 204" d="M825.577,499.424a1.14,1.14,0,0,1-.564.168c-.366,0-.6-.366-.774-.7-.816-1.8-.348-4.086-1.608-5.586a19.253,19.253,0,0,0-3.06,5.13l-4.8-1.488a7.122,7.122,0,0,0,.912,5.508A7.337,7.337,0,0,0,813.415,504a2.5,2.5,0,0,0-.6,2.55,12.217,12.217,0,0,0,3.4.336,22.584,22.584,0,0,0,.36,6.324,1.2,1.2,0,0,0,.414.8c.354.222.816,0,1.2-.2a11.214,11.214,0,0,0,3.96-4.2l1.8,4.272a1.866,1.866,0,0,0,.8,1.068,1.29,1.29,0,0,0,1.5-.516,3.72,3.72,0,0,0,.528-1.62l.672-4.068a.96.96,0,0,1,.222-.6,1,1,0,0,1,.708-.2q2.55-.072,5.094-.054c.294-.9-.6-1.74-1.476-2.118s-1.9-.672-2.334-1.512c-.888-1.722,1.4-4.11.432-5.592C828.913,496.976,827.059,498.692,825.577,499.424Z" transform="translate(-341.799 -256.353)" fill="#ff1744"/>
    <path id="Path_205" data-name="Path 205" d="M744.443,321.53a1.164,1.164,0,0,1-.57.168c-.36,0-.6-.366-.768-.7-.822-1.8-.348-4.086-1.608-5.586a19.252,19.252,0,0,0-3.084,5.154l-4.8-1.488a7.158,7.158,0,0,0,.906,5.514,7.38,7.38,0,0,0-2.262,1.542,2.508,2.508,0,0,0-.6,2.544,12.493,12.493,0,0,0,3.4.342,22.33,22.33,0,0,0,.36,6.318,1.158,1.158,0,0,0,.414.8c.354.228.816,0,1.17-.192a11.141,11.141,0,0,0,3.96-4.2l1.8,4.272a1.914,1.914,0,0,0,.792,1.074,1.29,1.29,0,0,0,1.5-.522,3.757,3.757,0,0,0,.534-1.62l.666-4.068a1.08,1.08,0,0,1,.222-.6,1.02,1.02,0,0,1,.714-.2q2.55-.072,5.094-.048c.288-.906-.6-1.746-1.482-2.124s-1.9-.666-2.334-1.512c-.882-1.716,1.41-4.11.432-5.592C747.779,319.076,745.925,320.792,744.443,321.53Z" transform="translate(-309.336 -185.193)" fill="#ff1744"/>
    <path id="Path_206" data-name="Path 206" d="M994.644,433.606a.6.6,0,0,1-.306.09c-.192,0-.324-.192-.408-.372-.432-.942-.186-2.166-.852-2.964a10.282,10.282,0,0,0-1.626,2.724l-2.556-.792a3.8,3.8,0,0,0,.48,2.928,3.954,3.954,0,0,0-1.2.822,1.32,1.32,0,0,0-.312,1.35,6.486,6.486,0,0,0,1.8.18,12.137,12.137,0,0,0,.192,3.36.642.642,0,0,0,.222.426c.186.12.432,0,.6-.1a5.9,5.9,0,0,0,2.1-2.232l.954,2.268a.978.978,0,0,0,.42.57.684.684,0,0,0,.8-.276,1.938,1.938,0,0,0,.282-.858l.354-2.166a.533.533,0,0,1,.12-.3.522.522,0,0,1,.378-.108c.9-.03,1.8-.036,2.706-.03.156-.48-.324-.924-.786-1.128s-1.008-.354-1.242-.8c-.468-.918.75-2.184.234-3C996.414,432.3,995.43,433.216,994.644,433.606Z" transform="translate(-411.841 -231.173)" fill="#ff1744" opacity="0.2"/>
    <path id="Path_207" data-name="Path 207" d="M884.438,497.232a.6.6,0,0,1-.3.09c-.2,0-.33-.2-.414-.372-.432-.948-.18-2.172-.852-2.97a10.282,10.282,0,0,0-1.626,2.724l-2.556-.792a3.8,3.8,0,0,0,.486,2.934,3.894,3.894,0,0,0-1.2.816,1.326,1.326,0,0,0-.312,1.35,6.526,6.526,0,0,0,1.8.18,11.918,11.918,0,0,0,.192,3.36.6.6,0,0,0,.216.426c.186.12.432,0,.6-.1a5.927,5.927,0,0,0,2.106-2.232l.948,2.274a1,1,0,0,0,.426.564.672.672,0,0,0,.792-.27,1.986,1.986,0,0,0,.282-.864l.36-2.16a.547.547,0,0,1,.114-.306.522.522,0,0,1,.378-.108c.9,0,1.8-.036,2.706-.03.156-.48-.324-.924-.786-1.128s-1.008-.354-1.236-.8c-.474-.918.744-2.184.228-2.97C886.238,495.93,885.23,496.836,884.438,497.232Z" transform="translate(-367.762 -256.621)" fill="#ff1744" opacity="0.2"/>
    <path id="Path_208" data-name="Path 208" d="M777.8,274.542a.6.6,0,0,1-.3.09c-.192,0-.33-.2-.408-.372-.438-.942-.186-2.172-.858-2.97a10.317,10.317,0,0,0-1.626,2.73l-2.556-.792a3.786,3.786,0,0,0,.486,2.928,3.893,3.893,0,0,0-1.2.816,1.35,1.35,0,0,0-.312,1.356,6.529,6.529,0,0,0,1.8.18,11.859,11.859,0,0,0,.192,3.354.458.458,0,0,0,.816.324,5.951,5.951,0,0,0,2.106-2.226l.948,2.268a1.008,1.008,0,0,0,.426.6.69.69,0,0,0,.8-.276,2.1,2.1,0,0,0,.282-.864l.39-2.172a.552.552,0,0,1,.12-.306.564.564,0,0,1,.378-.108h2.7c.156-.48-.324-.924-.78-1.128s-1.014-.354-1.242-.8c-.474-.912.744-2.184.228-2.97C779.57,273.24,778.591,274.152,777.8,274.542Z" transform="translate(-325.107 -167.544)" fill="#ff1744" opacity="0.5"/>
    <path id="Path_209" data-name="Path 209" d="M834.56,400.012a.6.6,0,0,1-.3.09c-.192,0-.33-.2-.408-.372-.438-.948-.186-2.172-.858-3a10.045,10.045,0,0,0-1.62,2.73l-2.562-.768a3.81,3.81,0,0,0,.486,2.928,3.968,3.968,0,0,0-1.2.816,1.35,1.35,0,0,0-.312,1.356,6.53,6.53,0,0,0,1.8.18,11.88,11.88,0,0,0,.192,3.354.474.474,0,0,0,.84.324,5.952,5.952,0,0,0,2.106-2.226l.948,2.268a1.056,1.056,0,0,0,.426.57.69.69,0,0,0,.8-.276,1.937,1.937,0,0,0,.282-.864l.354-2.16a.552.552,0,0,1,.12-.306.546.546,0,0,1,.378-.108c.9,0,1.8-.036,2.706,0,.15-.48-.324-.924-.786-1.128s-1.008-.354-1.242-.8c-.468-.912.744-2.184.228-2.97C836.336,398.692,835.352,399.622,834.56,400.012Z" transform="translate(-347.811 -217.721)" fill="#ff1744" opacity="0.5"/>
    <path id="Path_210" data-name="Path 210" d="M793.364,351.112a.6.6,0,0,1-.3.09c-.2,0-.33-.2-.414-.372-.432-.948-.18-2.172-.852-2.97a10.2,10.2,0,0,0-1.626,2.73l-2.556-.792a3.81,3.81,0,0,0,.48,2.928,3.935,3.935,0,0,0-1.2.816,1.332,1.332,0,0,0-.312,1.356,6.528,6.528,0,0,0,1.8.18,11.875,11.875,0,0,0,.192,3.354.468.468,0,0,0,.84.324,5.893,5.893,0,0,0,2.1-2.226l.954,2.268a1.032,1.032,0,0,0,.426.6.684.684,0,0,0,.792-.276,1.938,1.938,0,0,0,.282-.864l.36-2.16a.545.545,0,0,1,.114-.306.552.552,0,0,1,.378-.108c.9,0,1.8-.036,2.706,0,.156-.48-.324-.924-.786-1.128s-1.008-.354-1.236-.8c-.474-.912.744-2.184.228-2.97C795.134,349.81,794.15,350.722,793.364,351.112Z" transform="translate(-331.329 -198.173)" fill="#ff1744" opacity="0.5"/>
    <path id="Path_211" data-name="Path 211" d="M970.3,362.632a.6.6,0,0,1-.3.09c-.192,0-.324-.2-.408-.372-.438-.948-.186-2.172-.852-2.97a10.07,10.07,0,0,0-1.626,2.73l-2.556-.792a3.81,3.81,0,0,0,.48,2.928,3.967,3.967,0,0,0-1.2.816,1.356,1.356,0,0,0-.312,1.356,6.794,6.794,0,0,0,1.8.18,11.887,11.887,0,0,0,.192,3.354.474.474,0,0,0,.846.324,5.933,5.933,0,0,0,2.1-2.226l.954,2.268a1.02,1.02,0,0,0,.42.57.69.69,0,0,0,.8-.276,1.962,1.962,0,0,0,.282-.864l.354-2.16a.552.552,0,0,1,.12-.306.546.546,0,0,1,.378-.108c.9,0,1.8-.036,2.706-.03.15-.474-.324-.924-.786-1.122s-1.008-.354-1.242-.8c-.468-.912.75-2.184.228-2.97C972.076,361.33,971.092,362.242,970.3,362.632Z" transform="translate(-402.108 -202.781)" fill="#ff1744" opacity="0.5"/>
    <path id="Path_212" data-name="Path 212" d="M884.442,353.006a.6.6,0,0,1-.3.09c-.2,0-.33-.192-.414-.372-.432-.942-.18-2.166-.852-2.964a10.286,10.286,0,0,0-1.626,2.724l-2.55-.78a3.78,3.78,0,0,0,.486,2.928,3.911,3.911,0,0,0-1.2.822,1.32,1.32,0,0,0-.312,1.35,6.529,6.529,0,0,0,1.8.18,11.918,11.918,0,0,0,.192,3.36.6.6,0,0,0,.216.426c.186.12.432,0,.6-.1a6,6,0,0,0,2.16-2.244l.948,2.268a1.008,1.008,0,0,0,.426.57.678.678,0,0,0,.792-.276,1.939,1.939,0,0,0,.234-.882l.36-2.166a.528.528,0,0,1,.114-.3.558.558,0,0,1,.378-.114c.9,0,1.8-.03,2.706,0,.156-.48-.324-.924-.786-1.128s-1.008-.354-1.236-.8c-.474-.918.744-2.184.228-3C886.242,351.7,885.234,352.616,884.442,353.006Z" transform="translate(-367.765 -198.933)" fill="#ff1744" opacity="0.2"/>
    <path id="Path_213" data-name="Path 213" d="M857.5,364.726a.6.6,0,0,1-.306.09c-.192,0-.324-.192-.408-.372-.432-.942-.186-2.166-.852-2.964a10.286,10.286,0,0,0-1.626,2.724l-2.556-.792a3.8,3.8,0,0,0,.48,2.928,3.953,3.953,0,0,0-1.2.822,1.338,1.338,0,0,0-.318,1.35,6.552,6.552,0,0,0,1.8.18,12.144,12.144,0,0,0,.192,3.36.642.642,0,0,0,.222.426c.186.12.432,0,.6-.1a5.9,5.9,0,0,0,2.1-2.232l.954,2.268a.978.978,0,0,0,.42.57.678.678,0,0,0,.8-.276,1.938,1.938,0,0,0,.282-.858l.354-2.16a.533.533,0,0,1,.12-.306.522.522,0,0,1,.378-.108c.9-.03,1.8-.036,2.706-.03.156-.48-.324-.924-.786-1.128s-1.008-.354-1.242-.8c-.468-.918.75-2.184.234-3C859.26,363.424,858.288,364.336,857.5,364.726Z" transform="translate(-356.984 -203.621)" fill="#ff1744" opacity="0.3"/>
    <path id="Path_214" data-name="Path 214" d="M832.437,293.836a.6.6,0,0,1-.3.09c-.192,0-.324-.192-.408-.372-.438-.942-.186-2.172-.852-2.964a10.123,10.123,0,0,0-1.626,2.724l-2.556-.792a3.81,3.81,0,0,0,.48,2.928,3.865,3.865,0,0,0-1.2.816,1.35,1.35,0,0,0-.318,1.356,6.554,6.554,0,0,0,1.8.18,11.855,11.855,0,0,0,.192,3.354.66.66,0,0,0,.222.432c.186.12.432,0,.6-.108a5.892,5.892,0,0,0,2.1-2.226l.954,2.268a1,1,0,0,0,.42.6.684.684,0,0,0,.8-.276,1.939,1.939,0,0,0,.282-.858l.354-2.166a.552.552,0,0,1,.12-.306.6.6,0,0,1,.378-.108h2.706c.15-.48-.324-.924-.786-1.128s-1.008-.354-1.242-.8c-.468-.912.75-2.184.228-2.97C834.183,292.51,833.2,293.422,832.437,293.836Z" transform="translate(-346.96 -175.264)" fill="#ff1744" opacity="0.2"/>
    <path id="Path_215" data-name="Path 215" d="M881.86,386.356a.6.6,0,0,1-.3.09.54.54,0,0,1-.408-.372c-.438-.942-.186-2.172-.858-2.964a10.282,10.282,0,0,0-1.626,2.724l-2.556-.792a3.81,3.81,0,0,0,.486,2.928,4,4,0,0,0-1.2.816,1.35,1.35,0,0,0-.312,1.356,6.527,6.527,0,0,0,1.8.18,11.855,11.855,0,0,0,.192,3.354.46.46,0,0,0,.816.33A6,6,0,0,0,880,391.774l.948,2.268a1.008,1.008,0,0,0,.426.57.684.684,0,0,0,.8-.276,2.1,2.1,0,0,0,.282-.858l.354-2.166a.408.408,0,0,1,.5-.414h2.7c.156-.48-.324-.924-.78-1.128s-1.014-.354-1.242-.8c-.468-.912.744-2.184.228-2.97C883.63,385.054,882.652,385.966,881.86,386.356Z" transform="translate(-366.731 -212.273)" fill="#ff1744" opacity="0.3"/>
  </g>
</svg>
