<svg xmlns="http://www.w3.org/2000/svg" xmlns:xlink="http://www.w3.org/1999/xlink" width="1920" height="665" viewBox="0 0 1920 665">
  <defs>
    <clipPath id="clip-path">
      <rect id="Rectangle_724" data-name="Rectangle 724" width="1920" height="665" transform="translate(0 12148)" fill="#fff" stroke="#707070" stroke-width="1"/>
    </clipPath>
  </defs>
  <g id="Mask_Group_9" data-name="Mask Group 9" transform="translate(0 -12148)" clip-path="url(#clip-path)">
    <g id="Group_351" data-name="Group 351" transform="translate(0 -10)">
      <rect id="Rectangle_723" data-name="Rectangle 723" width="1935" height="754" transform="translate(1 12150)" fill="#fff"/>
      <circle id="Oval" cx="230" cy="230" r="230" transform="translate(267 12182.023)" fill="#ff9b21" opacity="0.34"/>
      <rect id="Rectangle_722" data-name="Rectangle 722" width="1920" height="279" transform="translate(4 12544.023)" fill="#202932"/>
      <g id="Lamp" transform="translate(1380 12167.023)">
        <path id="Body" d="M0,44.292,93.584,7.908c15.748-6.123,41.287-6.123,57.035,0l249.148,96.865c15.116,5.877,23.608,13.846,23.608,22.156V768.567" transform="translate(88.7 16.624)" fill="none" stroke="#cbcbcb" stroke-miterlimit="10" stroke-width="8"/>
        <rect id="Lamp_Base" data-name="Lamp Base" width="88.351" height="10.482" rx="3" transform="translate(467.15 783.694)" fill="#afb9c5"/>
        <g id="Lamp_Top" data-name="Lamp Top" transform="translate(70.48 0) rotate(45)">
          <path id="Lamp-2" data-name="Lamp" d="M35.5,0H63.333a35.5,35.5,0,0,1,35.5,35.5V91.346a0,0,0,0,1,0,0H0a0,0,0,0,1,0,0V35.5A35.5,35.5,0,0,1,35.5,0Z" fill="#c5cfd6"/>
          <ellipse id="Lamp-3" data-name="Lamp" cx="49.417" cy="9.734" rx="49.417" ry="9.734" transform="translate(0.267 80.207)" fill="#f2f2f2"/>
        </g>
      </g>
      <g id="Group_330" data-name="Group 330" transform="translate(3 4920.023)">
        <path id="Neck" d="M0,78.614,16.867,0H29.031L40.143,78.614Z" transform="translate(159.449 7404.53)" fill="#b28b67"/>
        <path id="Head" d="M58.142,82.4C45.615,85.629-2.417,60.928.095,25.132s52.34-27.921,62.033-9.854S70.669,79.171,58.142,82.4Z" transform="translate(161.122 7361.042)" fill="#b28b67"/>
        <path id="Hair" d="M17.426,77.506C12.387,55.067-1.966,39.77.226,29.741S11.911,17.267,11.911,17.267,16.821-2.617,43.582.352s43.094,14.094,36.04,38.575c-6.484,0-14.311-2.347-25.135,1.674-5.151,1.914-7.369,11.872-7.369,11.872H42.227s-7.121-11.817-14.042-8.685S25.039,59,25.039,59l-2.409,18.5Z" transform="translate(152.758 7349.367)" fill="#191847"/>
        <path id="Seat_Stuff" data-name="Seat Stuff" d="M46.2,0H175.422l16.932,207.408H0Z" transform="translate(49.691 7694.226)" fill="#c5cfd6"/>
        <path id="Seat_Stuff-2" data-name="Seat Stuff" d="M46.2,0H85.945l23.787,207.408H0Z" transform="translate(49.691 7694.226)" fill="rgba(0,0,0,0.1)"/>
        <path id="LegLower" d="M2.275,213.549S-1.972,135.54,1.14,101.634C4.693,62.932,9,29.327,11.522,17.125c6.009-29.1,46.162-15.593,46.141,0-.047,35.4-34.277,198.106-34.277,198.106Z" transform="translate(320.801 7637.421) rotate(20)" fill="#b28b67"/>
        <path id="LegLower-2" data-name="LegLower" d="M3,229.951c-1.674-21.16-4.785-94.411-1.673-128.316C4.881,62.932,9.19,29.327,11.71,17.125c6.009-29.1,46.162-15.593,46.141,0C57.8,52.526,25.5,219.369,23.81,229.916S4.054,243.249,3,229.951Z" transform="translate(342.458 7653.754)" fill="#b28b67"/>
        <path id="LegLower-3" data-name="LegLower" d="M0,187.07,8.56,17.28c6.169-29.359,58.387-15.734,58.365,0C66.876,53,45.419,176.393,45.4,187.035Z" transform="translate(315.259 7635.404) rotate(20)" fill="#1f28cf"/>
        <path id="Leg_and_Butt" data-name="Leg and Butt" d="M285.638,60.94c0,44.437-21.1,148.091-21.117,157.876l-45.4.035s9.969-138.735,7.07-140.229S107.343,90.2,72.57,90.2C22.427,90.2,1.683,58.577,0,0H99.332c20.225,2.164,125.72,23.443,164.9,30.757C281,33.889,285.638,48.7,285.638,60.94Z" transform="translate(119.305 7621.974)" fill="#2b44ff"/>
        <path id="Arm" d="M3.847,0,65.523,24.035q22.483.04,38.806,4.691c2.756,1.425,6.529,4.8-2.848,6.551s-19.161,4.023-19.589,7.5S88.029,48.5,86.6,53.419Q85.17,58.334,56.705,38.7L0,31.215Z" transform="matrix(0.788, -0.616, 0.616, 0.788, 285.975, 7452.63)" fill="#b28b67"/>
        <path id="Arm-2" data-name="Arm" d="M3.847,0,65.523,24.035q22.483.04,38.806,4.691c2.756,1.425,6.529,4.8-2.848,6.551s-19.161,4.023-19.589,7.5S88.029,48.5,86.6,53.419Q85.17,58.334,56.705,38.7L0,31.215Z" transform="matrix(0.966, 0.259, -0.259, 0.966, 279.688, 7561.045)" fill="#b28b67"/>
        <path id="Coat_Back" data-name="Coat Back" d="M22.565,0c42.087,44.81,93.419,74.051,163.427,99.987l-15.547,31.088C98.213,124.264,59.6,118.825,29.323,73.946,21.725,62.682,8.139,23.925,0,3.8Z" transform="matrix(0.966, 0.259, -0.259, 0.966, 178.734, 7450.688)" fill="#2026a2"/>
        <path id="Shirt" d="M0,190.682H128.794S85.033,57.218,84.084,7.479C84.052,5.789,80.93,2.81,79.549,3.2,64.4,7.479,47.121,0,47.121,0,16.588,49.106,6.03,109.566,0,190.682Z" transform="translate(119.305 7446.347)" fill="#f2f2f2"/>
        <path id="Clothes_Jacket" data-name="Clothes Jacket" d="M2.378,231.839H71.05c56.839,0,42.45-115.7,3.879-231.839H54.975c-5.089,0-7.25,3.69-8.265,5.648C20.136,56.909-8.529,158.54,2.378,231.839Z" transform="translate(102.461 7446.347)" fill="#1f28cf"/>
        <path id="Clothes_Back" data-name="Clothes Back" d="M1.5,15.123C38.136,15.054,99.384,22.771,170.311,0l6.82,34.078c-60.96,39.206-122.816,68.1-174.107,51.429C-5.558,82.718,7.483,58.44,1.5,15.123Z" transform="translate(173 7431.293)" fill="#1f28cf"/>
        <g id="Accessories_Shoe_Flat_Pointy" data-name="Accessories/Shoe/Flat Pointy" transform="translate(344 7846)">
          <path id="Shoe" d="M0,21,1,0H22C36.936,10.5,61,17,61,17v4H23L10,19v2Z" transform="translate(0 29)" fill="#191847"/>
        </g>
        <path id="Shoe-2" data-name="Shoe" d="M0,21,1,0H22C36.936,10.5,61,17,61,17v4H23L10,19v2Z" transform="matrix(0.899, 0.438, -0.438, 0.899, 252.69, 7824.692)" fill="#191847"/>
      </g>
      <g id="Group_2" data-name="Group 2" transform="translate(7342.729 10783.939)">
        <g id="Bottom" transform="translate(-5427.457 2138.167) rotate(180)">
          <path id="Leg" d="M92.5,0,42.88,162.521,18.845,300.734H0L25.4,0Z" transform="translate(261.261 315.73) rotate(180)" fill="#997659"/>
          <path id="Leg-2" data-name="Leg" d="M74.752,0c-3.37,89.233.6,135.26,1.35,143.368s11.082,60.675,35.533,160.088l-20.081-6.91C52.913,205.369,39.745,157.982,35.313,146.01S19.11,85.367,0,0Z" transform="translate(225.767 315.73) rotate(180)" fill="#b28b67"/>
          <g id="Left_Shoe" data-name="Left Shoe" transform="translate(110.752 0)">
            <rect id="Left_Shoe_background" data-name="Left Shoe background" width="80.427" height="52.842" transform="translate(80.427 52.842) rotate(180)" fill="rgba(0,0,0,0)"/>
            <path id="shoe-3" data-name="shoe" d="M69.574,6.21A2.6,2.6,0,0,1,72.92,7.991l2.489,8.883A85.9,85.9,0,0,1,74.234,27.3H.665S-2.2,17.7,3.975,16.936s10.265-1.383,10.265-1.383L48.435.115a1.3,1.3,0,0,1,1.737.7l2.2,5.4s5.72,2.7,9.3,2.7Z" transform="translate(76.728 27.303) rotate(180)" fill="#ff1744"/>
          </g>
          <g id="Right_Shoe" data-name="Right Shoe" transform="translate(234.689 0)">
            <rect id="Right_Shoe_background" data-name="Right Shoe background" width="80.427" height="52.842" transform="translate(80.427 52.842) rotate(180)" fill="rgba(0,0,0,0)"/>
            <path id="shoe-4" data-name="shoe" d="M69.574,6.21A2.6,2.6,0,0,1,72.92,7.991l2.489,8.883A85.9,85.9,0,0,1,74.234,27.3H.665S-2.2,17.7,3.975,16.936s10.265-1.383,10.265-1.383L48.435.115a1.3,1.3,0,0,1,1.737.7l2.2,5.4s5.72,2.7,9.3,2.7Z" transform="translate(76.728 27.303) rotate(180)" fill="#ff1744"/>
          </g>
        </g>
        <path id="Skirt" d="M117.5,5.585s-43.67-11.357-82.639,0C25.825,43.071,3.862,57.949,0,115.421c43.9,19.829,98.134-14.142,143.327,5.2C156.239,93.568,138.162,28.431,117.5,5.585Z" transform="translate(-5704.455 1814.504)" fill="#2b44ff"/>
        <g id="Head_Front" data-name="Head/Front" transform="translate(-5570.616 1576.325) rotate(180)">
          <g id="Head-2" data-name="Head" transform="translate(44.463 -47.575)">
            <path id="Head-3" data-name="Head" d="M61.073,106.15l-12.014-56c6.7-7.865,11.235-17.5,10.478-28.3C57.352-9.27,14.034-2.424,5.608,13.282S-1.817,68.827,9.073,71.634c4.343,1.12,13.6-1.623,23.012-7.3L26.174,106.15Z" transform="translate(61.073 33.15) rotate(180)" fill="#b28b67"/>
          </g>
          <path id="hair-2" data-name="hair" d="M-36.463,39.2a50.382,50.382,0,0,1,16.153-1.785A27.783,27.783,0,0,1-22.276,23.37c.576-4.628,2.644-8.568,4.556-12.7a17.37,17.37,0,0,1,3.37-5.252A11.509,11.509,0,0,1-8.9,2.492a14.589,14.589,0,0,1,6.28,0C-1.7,2.68-.885,3.1.011,3.329c.917.238,1.362-.336,2.028-.913A11.483,11.483,0,0,1,8.024.094a15.435,15.435,0,0,1,6.811.817,13.332,13.332,0,0,1,5.673,3.636,9.512,9.512,0,0,1,1.7,2.605c.165.4.192.63.587.775.365.134.792.138,1.169.266a14.71,14.71,0,0,1,8.457,7.666c.99,2.109,1.459,5.823,1.33,9.986s-3.887,15.024-7.4,18.986a23.615,23.615,0,0,1-12.2,6.891A34.907,34.907,0,0,1,20.523,63.61a58.181,58.181,0,0,1,2.918,14.442,47.137,47.137,0,0,1-.725,14.238,15.43,15.43,0,0,1-6.9,10.046,32.953,32.953,0,0,1-5.311,2.494,34.959,34.959,0,0,1-5.471,1.754c-3.556.735-7.653.609-10.392-2.222a19.51,19.51,0,0,1-2.793-3.549c-.259-.448-.415-.741-.1-1.18A8.437,8.437,0,0,1-6.78,98.3a13.861,13.861,0,0,0,4.9-9.178c.437-3.768-.575-8.631-4.238-10.275-4.522-2.03-9.5.3-13.52,2.472-1.708-6.028-5.215-11.456-10.713-14.221-6.083-3.059-13.063-3.417-19.314-6.042A11.523,11.523,0,0,1-54.152,58.2a5.8,5.8,0,0,1-1.289-2.108c-.263-1.012.39-1.86.894-2.649C-51.874,49.258-41.738,40.807-36.463,39.2Z" transform="translate(54.884 24.232) rotate(180)" fill="#191847"/>
        </g>
        <g id="Body-2" data-name="Body" transform="translate(-5445.934 1879.854) rotate(172)">
          <rect id="Body_background" data-name="Body background" width="338.031" height="221.357" transform="translate(338.031 221.357) rotate(180)" fill="rgba(0,0,0,0)"/>
          <path id="Skin" d="M52.293,143.138,94,127.633,84.691,107,42.572,134.727q-17.136,4.145-28.633,10.315c-1.81,1.479-4,4.473,3.511,3.956s15.432-.76,16.468,1.537-3.507,5.041-1.413,8.139a1.027,1.027,0,0,0,.914.441Q37.12,159.116,52.293,143.138ZM80.269,27.894,30.219,14.425A116.7,116.7,0,0,0,3.8.133C1.392-.273-2.594-.037,2.387,5.027s9.963,10.592,8.542,12.715-6.6.523-8.1,3.886q-1.5,3.364,25.749,4.819L67.49,46.978Z" transform="translate(333.074 246.481) rotate(180)" fill="#b28b67"/>
          <path id="Coat_Back-2" data-name="Coat Back" d="M126.076,0C94,31.1,54.353,50.9,0,67.969L12.823,90.458C69.311,87.076,99.474,83.986,122.29,52.6c5.726-7.878,15.585-35.24,21.554-49.428Z" transform="matrix(-0.966, 0.259, -0.259, -0.966, 304.741, 181.521)" fill="#de2347"/>
          <path id="Shirt-2" data-name="Shirt" d="M101.673,134.945H0S34.546,40.493,35.295,5.293c.025-1.2,2.49-3.3,3.581-3.028C50.837,5.293,64.474,0,64.474,0,88.578,34.752,96.913,77.54,101.673,134.945Z" transform="translate(220.513 221.357) rotate(180)" fill="#f2f2f2"/>
          <path id="Coat_Front" data-name="Coat Front" d="M193.641,174.726c8.61-51.874-14.019-123.8-35-160.075a7.129,7.129,0,0,0-6.524-4H136.365l-.021.056c-5.307.039-11.215.229-17.66.418C89.739,11.982,49.986,12.835,5.385,0L0,24.116C41.215,47.88,82.948,66.288,119.518,63.674c-15.878,61.063-15.146,111.052,19.91,111.052Z" transform="translate(301.06 232.011) rotate(180)" fill="#ff1744"/>
        </g>
      </g>
      <path id="Path_424" data-name="Path 424" d="M3239.394-1797.576c1369.7-566.667,1055.478,15.525,1527.506,100.606s666.667,235.431,459.208,340.326-1034.965,0-1034.965,0L3338-1414.918S1869.7-1230.909,3239.394-1797.576Z" transform="translate(-3297 14305.023)" fill="#1c3024" opacity="0.02"/>
      <path id="Polygon" d="M49,0,98,49,49,98,0,49Z" transform="translate(305.977 12202.801) rotate(-34)" fill="#2b44ff" opacity="0.52"/>
      <circle id="Oval-2" data-name="Oval" cx="41" cy="41" r="41" transform="translate(1311 12284.023)" fill="#2b44ff" opacity="0.2"/>
      <path id="Leaf_Bottom" data-name="Leaf Bottom" d="M0,260a46.774,46.774,0,0,1-1,6A17.922,17.922,0,0,0,0,260Zm-10.832-47.012c-5.818-12.326-14.116-22.979-23.677-32.458,1.911-6.943,20.49-17.785,8.743-23.526-6.238-3.035-12.155,2.853-13.171,8.813-.7,4.1.956,9.109,2.633,12.961q-4.5-4.328-9.309-8.347c-4.416-3.7-8.927-7.286-13.477-10.821,6.819-7.114,12.6-26.731,2.816-29.377-14.443-3.894-6.229,22.02-4.981,26.893a.772.772,0,0,0,.649-.285c-.056.455-.123.942-.211,1.435-8.7-6.726-17.527-13.3-26.086-20.21.708-.583,1.77-2.724,2.632-3.88a42.082,42.082,0,0,0,5.1-8.312c2.052-4.734,3.879-12.21-2.344-14.605-6.768-2.611-9.474,5.878-9.26,10.847.148,3.435,1.255,6.649,1.918,9.99.208,1.042-.131,5.8,1.193,3.695a10.144,10.144,0,0,0,.044,1.682q-2.3-1.87-4.581-3.779a1.777,1.777,0,0,0,.1-.578,1.718,1.718,0,0,0-2.542-1.488q-3.006-2.572-5.947-5.23c-4.145-3.764-8.351-7.638-12.536-11.6.822-.784.427-1.79,1.19-2.616s2.322-1.341,3.228-2.119a22.871,22.871,0,0,0,5.4-7.423c2.125-4.459,4.688-13.714-2.292-15.421-7.2-1.762-10.332,7.182-10.5,12.68a139.867,139.867,0,0,0,2.051,14.018c-7.744-7.367-15.382-15.03-22.35-22.869,1.982-.122,7.39-4.478,8.468-5.647,2.631-2.849,6.725-9.053,1.7-11.959-4.468-2.578-9.583,1.763-11.225,5.806a55.526,55.526,0,0,0-.965,9.49c-2.888-3.328-5.653-6.682-8.238-10.057q-2.587-3.366-4.874-6.922a3.235,3.235,0,0,0,.9-.988c7.144-1.6,15.745-13.329,7.073-16.8-4.128-1.65-8.3,2.42-10.109,5.668a41.933,41.933,0,0,0-1.256,6.512A135.132,135.132,0,0,1-165.713,41.24a1.576,1.576,0,0,0,1.152-1.525c3.395-2.178,6.071-3.984,8.313-7.949,1.393-2.462,3.841-8.051-.688-9.14-5.894-1.417-9.075,7.638-9.32,12.029-.029.509.05,1.984.14,3.334a1.95,1.95,0,0,0-.6.042c-1.617-5.363-2.969-10.811-4.1-16.278,3.115-1.185,2.79-17.85.557-20.108-4.992-5.056-7.916,2.779-7.452,6.815.547,4.759,2.939,8.989,5.717,12.709.3.393.218.378.259-.194a1.14,1.14,0,0,0,.307.624,72.434,72.434,0,0,0,.115,7.324,169.525,169.525,0,0,0,3.175,18.948q.513,2.272,1.137,4.5a36.977,36.977,0,0,0-7.568-4.316c-3.568-1.38-9.029-2.785-12.353.043a5.834,5.834,0,0,0-.208,8.733c2.958,2.978,8.055,2.6,11.848,2.092,1.715-.228,10.876-1.447,8.617-2.838a7.435,7.435,0,0,1,.915.379q.36,1.089.75,2.17c-.052.034-.1.071-.153.105.061-.031.1-.063.157-.094a84.537,84.537,0,0,0,10.573,20.282,19.879,19.879,0,0,0-4.828-1.022c-4.831-.355-14.731,3.9-9.028,10.012,5.468,5.856,13.137-1.136,18.931-2.348A273.561,273.561,0,0,0-129.7,107.418a1.558,1.558,0,0,0-.913.845c-2.7-1.2-5.533-2.958-7.991-3.347-3.547-.56-10.764-.634-13.25,2.645-3.059,4.032.6,6.985,4.492,7.523,5.643.781,12.812-2.332,18.091-4.458a1.777,1.777,0,0,0,1.658-.651c.117-.046.233-.09.347-.133,7.012,6.943,14.265,13.631,21.469,20.167h-.222a18.6,18.6,0,0,0-5.912-2.331c-4.862-.919-10.509-.628-14.224,3.049-3.7,3.661-4.757,9.782-.538,13.455,8.443,7.352,19.353-10.992,23.367-11.945,7.317,6.569,15.008,12.661,22.809,18.617a13.3,13.3,0,0,0-2.645-.4c-7.359-.317-24.077,9.562-14.627,17.923,8.235,7.286,16.522-8,22.562-13.515,7.347,5.547,14.73,11.051,21.927,16.795a20.034,20.034,0,0,0-11.392.67c-4.094,1.477-10.643,4.97-7.718,10.449,2.974,5.573,10.9,2.551,15,.517,2.238-1.109,6.655-4.688,10.613-6.305,11.515,9.785,21.619,20.7,29.519,33.763A120.977,120.977,0,0,1-5.583,236.788C-3.742,242.59-.207,252.312-.41,260,1.667,244.524-4.5,226.391-10.832,212.988ZM-172,29.766c-.613,0-2.912-6.215-3.636-7.135a20.724,20.724,0,0,0-8.2-5.945c-5.036-2.177-11.433.989-8.366,7.281,2.449,5.023,9.082,6.034,14.827,6.034C-175.412,30-173.552,29.882-172,29.766Z" transform="translate(1991.657 12363.123) rotate(3)" fill="#ff1744"/>
      <path id="Leaf_Bottom-2" data-name="Leaf Bottom" d="M0,260a46.774,46.774,0,0,1-1,6A17.922,17.922,0,0,0,0,260Zm-10.832-47.012c-5.818-12.326-14.116-22.979-23.677-32.458,1.911-6.943,20.49-17.785,8.743-23.526-6.238-3.035-12.155,2.853-13.171,8.813-.7,4.1.956,9.109,2.633,12.961q-4.5-4.328-9.309-8.347c-4.416-3.7-8.927-7.286-13.477-10.821,6.819-7.114,12.6-26.731,2.816-29.377-14.443-3.894-6.229,22.02-4.981,26.893a.772.772,0,0,0,.649-.285c-.056.455-.123.942-.211,1.435-8.7-6.726-17.527-13.3-26.086-20.21.708-.583,1.77-2.724,2.632-3.88a42.082,42.082,0,0,0,5.1-8.312c2.052-4.734,3.879-12.21-2.344-14.605-6.768-2.611-9.474,5.878-9.26,10.847.148,3.435,1.255,6.649,1.918,9.99.208,1.042-.131,5.8,1.193,3.695a10.144,10.144,0,0,0,.044,1.682q-2.3-1.87-4.581-3.779a1.777,1.777,0,0,0,.1-.578,1.718,1.718,0,0,0-2.542-1.488q-3.006-2.572-5.947-5.23c-4.145-3.764-8.351-7.638-12.536-11.6.822-.784.427-1.79,1.19-2.616s2.322-1.341,3.228-2.119a22.871,22.871,0,0,0,5.4-7.423c2.125-4.459,4.688-13.714-2.292-15.421-7.2-1.762-10.332,7.182-10.5,12.68a139.867,139.867,0,0,0,2.051,14.018c-7.744-7.367-15.382-15.03-22.35-22.869,1.982-.122,7.39-4.478,8.468-5.647,2.631-2.849,6.725-9.053,1.7-11.959-4.468-2.578-9.583,1.763-11.225,5.806a55.526,55.526,0,0,0-.965,9.49c-2.888-3.328-5.653-6.682-8.238-10.057q-2.587-3.366-4.874-6.922a3.235,3.235,0,0,0,.9-.988c7.144-1.6,15.745-13.329,7.073-16.8-4.128-1.65-8.3,2.42-10.109,5.668a41.933,41.933,0,0,0-1.256,6.512A135.132,135.132,0,0,1-165.713,41.24a1.576,1.576,0,0,0,1.152-1.525c3.395-2.178,6.071-3.984,8.313-7.949,1.393-2.462,3.841-8.051-.688-9.14-5.894-1.417-9.075,7.638-9.32,12.029-.029.509.05,1.984.14,3.334a1.95,1.95,0,0,0-.6.042c-1.617-5.363-2.969-10.811-4.1-16.278,3.115-1.185,2.79-17.85.557-20.108-4.992-5.056-7.916,2.779-7.452,6.815.547,4.759,2.939,8.989,5.717,12.709.3.393.218.378.259-.194a1.14,1.14,0,0,0,.307.624,72.434,72.434,0,0,0,.115,7.324,169.525,169.525,0,0,0,3.175,18.948q.513,2.272,1.137,4.5a36.977,36.977,0,0,0-7.568-4.316c-3.568-1.38-9.029-2.785-12.353.043a5.834,5.834,0,0,0-.208,8.733c2.958,2.978,8.055,2.6,11.848,2.092,1.715-.228,10.876-1.447,8.617-2.838a7.435,7.435,0,0,1,.915.379q.36,1.089.75,2.17c-.052.034-.1.071-.153.105.061-.031.1-.063.157-.094a84.537,84.537,0,0,0,10.573,20.282,19.879,19.879,0,0,0-4.828-1.022c-4.831-.355-14.731,3.9-9.028,10.012,5.468,5.856,13.137-1.136,18.931-2.348A273.561,273.561,0,0,0-129.7,107.418a1.558,1.558,0,0,0-.913.845c-2.7-1.2-5.533-2.958-7.991-3.347-3.547-.56-10.764-.634-13.25,2.645-3.059,4.032.6,6.985,4.492,7.523,5.643.781,12.812-2.332,18.091-4.458a1.777,1.777,0,0,0,1.658-.651c.117-.046.233-.09.347-.133,7.012,6.943,14.265,13.631,21.469,20.167h-.222a18.6,18.6,0,0,0-5.912-2.331c-4.862-.919-10.509-.628-14.224,3.049-3.7,3.661-4.757,9.782-.538,13.455,8.443,7.352,19.353-10.992,23.367-11.945,7.317,6.569,15.008,12.661,22.809,18.617a13.3,13.3,0,0,0-2.645-.4c-7.359-.317-24.077,9.562-14.627,17.923,8.235,7.286,16.522-8,22.562-13.515,7.347,5.547,14.73,11.051,21.927,16.795a20.034,20.034,0,0,0-11.392.67c-4.094,1.477-10.643,4.97-7.718,10.449,2.974,5.573,10.9,2.551,15,.517,2.238-1.109,6.655-4.688,10.613-6.305,11.515,9.785,21.619,20.7,29.519,33.763A120.977,120.977,0,0,1-5.583,236.788C-3.742,242.59-.207,252.312-.41,260,1.667,244.524-4.5,226.391-10.832,212.988ZM-172,29.766c-.613,0-2.912-6.215-3.636-7.135a20.724,20.724,0,0,0-8.2-5.945c-5.036-2.177-11.433.989-8.366,7.281,2.449,5.023,9.082,6.034,14.827,6.034C-175.412,30-173.552,29.882-172,29.766Z" transform="translate(2041.657 12623.123) rotate(3)" fill="#ff1744"/>
    </g>
  </g>
</svg>
