<svg xmlns="http://www.w3.org/2000/svg" width="198.898" height="178.67" viewBox="0 0 198.898 178.67">
  <path id="Path_50" data-name="Path 50" d="M109.389-183.463q0,4.307-4.02,15.217-3.732,9.762-7.178,11.771t-15.217,1.148q-63.164-4.02-117.715-4.02-29.285,0-32.156,5.168-2.01,3.445-6.891,2.584-4.881-1.148-3.732-6.029.861-2.01,4.02-16.939,2.3-12.633,27.563-10.049Q0-180.018,68.906-179.443q26.414.287,29.285-5.168a6.661,6.661,0,0,1,6.6-3.732Q109.389-187.77,109.389-183.463ZM97.617-41.734q0,1.436-4.02,12.2T86.707-16.469q-4.02,3.732-15.5,2.871-63.164-4.02-117.715-4.02-29.285,0-32.156,5.168Q-80.678-9-85.559-9.865q-4.881-1.148-3.732-6.029.861-3.445,4.02-19.811,1.436-8.326,11.484-8.9.287,0,16.078,1.723,45.937,4.594,114.844,5.168,26.414.287,29.285-5.168a6.661,6.661,0,0,1,6.6-3.732Q97.617-46.041,97.617-41.734Z" transform="translate(89.51 188.363)" fill="#ff1744"/>
</svg>
