<svg xmlns="http://www.w3.org/2000/svg" xmlns:xlink="http://www.w3.org/1999/xlink" width="400.216" height="436.713" viewBox="0 0 576.216 436.713">
  <defs>
    <linearGradient id="linear-gradient" y1="0.5" x2="0.999" y2="0.5" gradientUnits="objectBoundingBox">
      <stop offset="0" stop-color="gray" stop-opacity="0.251"/>
      <stop offset="0.54" stop-color="gray" stop-opacity="0.122"/>
      <stop offset="1" stop-color="gray" stop-opacity="0.102"/>
    </linearGradient>
    <linearGradient id="linear-gradient-2" x1="0.5" y1="1" x2="0.5" y2="0" xlink:href="#linear-gradient"/>
  </defs>
  <g id="undraw_newsletter_vovu" transform="translate(0.001 0.005)">
    <ellipse id="Ellipse_130" data-name="Ellipse 130" cx="210" cy="60" rx="210" ry="60" transform="translate(99.948 316.708)" fill="#f5f5f5"/>
    <path id="Path_325" data-name="Path 325" d="M934.78,324.92s-37.2,37.2-16.2,92.4-36,147-36,147,.6-.09,1.746-.288c76.4-13.488,114.366-100.872,71.88-165.786C940.432,374.114,927.442,345.8,934.78,324.92Z" transform="translate(-425.032 -181.618)" fill="#ff1744"/>
    <path id="Path_326" data-name="Path 326" d="M934.78,324.92s-21,45.6,0,82.8,3.6,141.6-52.2,156.6" transform="translate(-425.032 -181.618)" fill="none" stroke="#535461" stroke-miterlimit="10" stroke-width="2"/>
    <path id="Path_327" data-name="Path 327" d="M994.72,575.38s-42.45-6.762-46.32,31.284-81.6,43.314-81.6,43.314.5.348,1.458.972c64.2,42.144,125.574,26.844,116.328-29.118C981.124,601.03,981.4,580.132,994.72,575.38Z" transform="translate(-418.72 -281.616)" fill="#ff1744"/>
    <path id="Path_328" data-name="Path 328" d="M994.72,575.38s-42.45-6.762-46.32,31.284-81.6,43.314-81.6,43.314.5.348,1.458.972c64.2,42.144,125.574,26.844,116.328-29.118C981.124,601.03,981.4,580.132,994.72,575.38Z" transform="translate(-418.72 -281.616)" fill="#f5f5f5" opacity="0.2"/>
    <path id="Path_329" data-name="Path 329" d="M994.7,575.69s-32.952,7.236-30.246,37.2-48.954,65.868-97.7,37.386" transform="translate(-418.704 -281.926)" fill="none" stroke="#535461" stroke-miterlimit="10" stroke-width="2"/>
    <path id="Path_330" data-name="Path 330" d="M210.84,86.126c-4.836-.168-9.792,0-14.328,1.692-12.342,4.6-18.192,19.656-16.29,32.694s9.726,24.36,17.844,34.734,16.914,20.616,21.366,33c2.22,6.186,3.258,13.116,1,19.29-3.48,9.522-13.974,14.844-24.048,15.948s-20.19-1.05-30.3-1.8c-4.242-.3-8.6-.336-12.6,1.056-4.386,1.518-8.04,4.614-11.4,7.842-13.11,12.66-23.6,29.94-21.906,48.084,1.92,20.568,19.044,36.828,37.8,45.546,6.21,2.892,12.78,5.232,18.246,9.36,14.4,10.884,17.634,31.278,16.2,49.284s-6.318,36.03-3.6,53.88a64.963,64.963,0,0,0,36.444,48.27c17.01,7.8,38.3,7.314,53.4-3.72,7.362-5.4,12.93-12.846,17.772-20.568a177.523,177.523,0,0,0,17.67-37.128c2.106-6.186,4.086-12.84,9-17.142,3-2.646,6.888-4.128,10.734-5.28,11.592-3.468,23.8-4.422,35.5-7.506s23.472-8.832,29.832-19.11c9-14.586,4.8-33.24,4.842-50.4.072-39.1,23.466-74.1,32.1-112.2,2.82-12.456,3.87-26.238-2.43-37.344-4.284-7.578-11.5-12.978-19.092-17.178-16.68-9.264-35.64-13.386-54.294-17.4-25.926-5.568-57.408-6.288-77.5-24.3C263.52,98.45,237.138,86.126,210.84,86.126Z" transform="translate(-120 -86.08)" fill="#ff1744" opacity="0.2"/>
    <g id="Group_316" data-name="Group 316" transform="translate(62.92 18.505)" opacity="0.5">
      <path id="Path_331" data-name="Path 331" d="M346.831,249.792a90.315,90.315,0,0,0-4.37-27.743l-7.2-22.339v-1.1c.222-14.31-10.932-21.45-15.228-20.676-4.4.792-16.6-5.328-16.6-5.328v.168a22.859,22.859,0,0,1-2.256-3.084,19.572,19.572,0,0,0,4.026-27.708,8.6,8.6,0,0,0,2.9-3.888,9.88,9.88,0,0,0-1.386-8.5,16.464,16.464,0,0,0-2.4-2.862,30.385,30.385,0,0,0-4.476-3.66c-4-2.772-8.4-5.154-13.2-6a5.5,5.5,0,0,0-2.526,0,10.47,10.47,0,0,0-2.046,1.1c-3.288,1.872-7.38,1.062-11.172.864s-8.4.864-9.6,4.422a32.494,32.494,0,0,0-.6,3.414c-.6,2.76-2.73,4.9-4.374,7.2s-2.874,5.4-1.506,7.9c.468.84,1.2,1.614,1.2,2.574a7.368,7.368,0,0,1-.6,1.968,4.163,4.163,0,0,0,1.566,4.086,6.654,6.654,0,0,0,1.8,1.374c1.9.972,4.092,1.272,6.03,2.172a9.9,9.9,0,0,1,2.628,1.8,10.332,10.332,0,0,1,2.856,7.458l.4.042v.354c.42.048.864.09,1.3.108a19.8,19.8,0,0,0,2.154,2.862q-.2.768-.462,1.56c-1.41.978-12.942,8.658-26.058,6.81-14-1.974-22,59.226-22,59.226a70,70,0,0,0-.756,10.572c-.06,9,1.83,20.778,12.36,19.044l5.6-1.842v30.27s.8,8.292-2,13.8,8.8,3.552,8.8,3.552.444.462,1.26,1.248l-.258.726.342.348a79.372,79.372,0,0,1-6.138,15.054l.33.168c-.21.4-.33.6-.33.6s4.308,2.2,10.236,5.04c4.764,16.1,15.192,53.4,11.76,60.5l.1.2h0c.642,1.332,4.23,9.186,3.5,16.38-.654,6.432,8.25,35.658,11.574,46.272l-1.572.318,5.6,20.136-1.2,13.032s-6.8,18.162,9.2,14.61,11.6-18.162,11.6-18.162l.4-29.616s-1.542-.858-3.444-1.68c-1.308-3.534-4.158-11.886-4.158-17.664,0-7.5-5.2-39.882-5.2-39.882v-.228l-.03-.432v-.072c0-.4-.066-.954-.114-1.626V395c-.6-8.754-2.4-38.5-1.086-54a34.641,34.641,0,0,1,3.6-2.148c3.894,9.84,13.932,36.426,13.29,47.58-.8,13.8-.2,2.964,0,1.2.06-.546.1.114.12,1.6v5.838c0,1.2,0,2.532-.042,3.918v.84c0,.846,0,1.71-.042,2.586,0,1.2-.048,2.364-.072,3.57-.06,2.7-.138,5.43-.234,7.986q0,.426-.03.846-.03.84-.066,1.644t-.072,1.572q-.036.762-.078,1.482c-.03.564-.066,1.1-.1,1.62l-2.172-.312-.462,4.992a54.275,54.275,0,0,0,3,23.4c.744,2.052,1.32,3.75,1.446,4.356.4,1.974,0,16.2,0,16.2s2.4,18.558,13.6,15c5.04-1.6,7.488-6.474,8.658-11.358a28.164,28.164,0,0,0-1.386-16.962c-1.59-4-3.216-9.6-2.07-13.932,2-7.5,2-18.162,2-18.162l-1.236-.174a19.7,19.7,0,0,0,.834-1.8s-.4-27.246,3.2-30.8c1.98-1.956,1.8-6.654,1.2-10.494a71.8,71.8,0,0,1-.6-16.8A26.707,26.707,0,0,1,335.3,358c1.056-2.088,2.112-23.136-2.562-33.264l.96-.3-.15-.744.15-.048a58.794,58.794,0,0,0,2.4,5.526,2.2,2.2,0,0,0,.8.4c12.954-2.274,13.476-14.364,12.756-20.964.546.264.846.432.846.432l1.2-17.4a25.154,25.154,0,0,0,1.656-10.158C353.407,267.768,346.831,249.792,346.831,249.792Zm-14.28,49.458c-.888-7.578-2.118-14.712-2.118-14.712l-6-21.324V255.45l9.516,35.52Z" transform="translate(-224.868 -116.925)" fill="url(#linear-gradient)"/>
    </g>
    <path id="Path_332" data-name="Path 332" d="M358.939,614.93l-.444,4.878a53.681,53.681,0,0,0,2.91,22.89c.714,2.01,1.272,3.666,1.392,4.26.384,1.932,0,15.822,0,15.822s2.316,18.138,13.122,14.664c4.86-1.56,7.2-6.33,8.352-11.1a27.864,27.864,0,0,0-1.344-16.572c-1.536-3.906-3.108-9.4-2-13.614,1.932-7.332,1.932-17.748,1.932-17.748Z" transform="translate(-215.311 -297.622)" fill="#5a5773"/>
    <path id="Path_333" data-name="Path 333" d="M340.09,466.354s15.048,36.66,14.274,50.16-.192,2.892,0,1.158c.342-3.09,0,33.6-1.158,37.8,0,0,15.822,11.574,22-3.858,0,0-.384-26.622,3.084-30.1,1.908-1.908,1.722-6.5,1.158-10.254a71.072,71.072,0,0,1-.6-16.4,24.882,24.882,0,0,1,.978-6.15c1.158-2.316,2.316-28.554-4.632-35.886Z" transform="translate(-208.036 -232.782)" fill="#605d82"/>
    <path id="Path_334" data-name="Path 334" d="M355.142,555.514c1.158-4.242,1.5-40.908,1.158-37.8-.192,1.734-.774,12.348,0-1.158s-14.274-50.16-14.274-50.16l33.666-12.948c-.156-.2-.318-.384-.48-.558L340.1,466.4s15.048,36.66,14.274,50.16-.192,2.892,0,1.158c.342-3.09,0,33.6-1.158,37.8,0,0,6.318,4.62,12.528,4.128C360.218,559.228,355.142,555.514,355.142,555.514Z" transform="translate(-208.04 -232.806)" opacity="0.1"/>
    <path id="Path_335" data-name="Path 335" d="M318.22,671.374l5.4,19.68-1.158,12.732s-6.558,17.748,8.874,14.274,11.19-17.748,11.19-17.748l.384-28.938s-6.174-3.474-8.874-3.084S318.22,671.374,318.22,671.374Z" transform="translate(-199.288 -318.953)" fill="#5a5773"/>
    <path id="Path_336" data-name="Path 336" d="M273.85,459.94s17.748,57.492,13.506,66.366c0,0,4.242,8.49,3.474,16.2s12.348,49,12.348,49l19.3-3.474s-4.632-11.574-4.632-18.906-5.016-39-5.016-39-4.242-57.882.774-64.056Z" transform="translate(-181.54 -235.626)" fill="#605d82"/>
    <g id="Group_317" data-name="Group 317" transform="translate(92.31 224.314)" opacity="0.1">
      <path id="Path_337" data-name="Path 337" d="M336.707,478c-3.2,13.1.336,61.326.336,61.326s5.016,31.638,5.016,39c0,5.6,2.694,13.662,3.972,17.166l1.044-.186s-4.632-11.574-4.632-18.906-5.016-39-5.016-39S334.2,493.33,336.707,478Z" transform="translate(-298.457 -467.164)"/>
      <path id="Path_338" data-name="Path 338" d="M296.36,570.282l.1.2c.03-.2.06-.408.078-.6A4.25,4.25,0,0,1,296.36,570.282Z" transform="translate(-282.854 -503.916)"/>
      <path id="Path_339" data-name="Path 339" d="M312.724,467.968a5.682,5.682,0,0,1,.87-1.854L273.85,459.94s.234.75.636,2.088Z" transform="translate(-273.85 -459.94)"/>
    </g>
    <path id="Path_340" data-name="Path 340" d="M416.469,423.154s5.79,21.6-11.574,24.7a2.112,2.112,0,0,1-.774-.384s-10.032-19.68-2.316-27.4Z" transform="translate(-231.556 -219.678)" fill="#a1616a"/>
    <path id="Path_341" data-name="Path 341" d="M300.467,186s1.158,16.2-11.574,23.922,27,28.938,27,28.938l20.838-33.186s-8.868,1.146-14.268-14.274Z" transform="translate(-186.551 -126.05)" fill="#a1616a"/>
    <path id="Path_342" data-name="Path 342" d="M281.826,227.78s19.68,40.9,37.428,2.316l27.4,135.816s-42.45,13.122-42.828,19.3S261,369.392,261,369.392s9.258-16.98,6.948-27.4S281.826,227.78,281.826,227.78Z" transform="translate(-176.4 -142.762)" opacity="0.1"/>
    <path id="Path_343" data-name="Path 343" d="M281.826,226.49s19.68,40.9,37.428,2.316l27.4,135.822s-42.45,13.122-42.828,19.3S261,368.1,261,368.1s9.258-16.98,6.948-27.4S281.826,226.49,281.826,226.49Z" transform="translate(-176.4 -142.246)" fill="#e1e7ef"/>
    <path id="Path_344" data-name="Path 344" d="M327.149,684s-5.016-11.19,6.558-11.19,9.648,10.032,9.648,10.032Z" transform="translate(-202.427 -320.774)" fill="#5a5773"/>
    <path id="Path_345" data-name="Path 345" d="M370.99,634.982s-4.632-11.964,6.948-12.348,5.79,10.8,5.79,10.8Z" transform="translate(-220.03 -300.699)" fill="#5a5773"/>
    <path id="Path_346" data-name="Path 346" d="M355.2,212s11.766,6,16.014,5.208,15.432,6.558,14.664,21.222l6.972,21.876a89.339,89.339,0,0,1,4.2,27.126h0s10.032,27.78,4.632,40.128l-1.158,16.98s-8.874-5.016-18.138-3.474L384.72,327.2l-10.44-39.366-17.364-42.06Z" transform="translate(-214.08 -136.45)" opacity="0.1"/>
    <path id="Path_347" data-name="Path 347" d="M355.2,210.73s11.766,6,16.014,5.208,15.432,6.558,14.664,21.222l6.972,21.876a89.339,89.339,0,0,1,4.2,27.126h0s10.032,27.78,4.632,40.128l-1.158,16.98s-8.874-5.016-18.138-3.474l2.316-13.89L374.28,286.552l-17.346-42.06Z" transform="translate(-214.08 -135.942)" fill="#67647e"/>
    <path id="Path_348" data-name="Path 348" d="M374.688,266.874v43.6l5.79,20.838s3.858,22.764,2.7,29.712-19.68,8.49-24.7,2.7-2.316-55.2-2.316-55.2L355.2,236.2l.774-2.316Z" transform="translate(-214.08 -145.202)" opacity="0.1"/>
    <path id="Path_349" data-name="Path 349" d="M376.008,265.2v43.6l5.79,20.838s3.858,22.764,2.7,29.712-19.68,8.49-24.7,2.7-2.316-55.2-2.316-55.2L356.52,234.5Z" transform="translate(-214.608 -145.45)" fill="#67647e"/>
    <path id="Path_350" data-name="Path 350" d="M259.38,295.434l12.348,38.4-5.79,16.4s27.4,28.938,44.76,15.048c0,0,1.932-59.04-1.932-72.93s-22.38-60.6-22.38-60.6l-3.834-12.33L262.1,230.994Z" transform="translate(-175.752 -139.418)" opacity="0.1"/>
    <path id="Path_351" data-name="Path 351" d="M256.2,292.19v37.8s.774,8.106-1.932,13.506,8.49,3.474,8.49,3.474,27.4,28.938,44.76,15.048c0,0,1.932-59.04-1.932-72.93s-22.38-60.6-22.38-60.6l-3.858-12.348L258.9,227.714Z" transform="translate(-173.539 -138.106)" fill="#67647e"/>
    <path id="Path_352" data-name="Path 352" d="M276.125,204.95s-11.766,8.682-25.272,6.75-21.222,57.882-21.222,57.882-5.016,30.87,11.19,28.17l35.886-11.964s-7.716-8.106-6.558-18.522l-17.37,6.942.78-33.18Z" transform="translate(-163.56 -133.63)" opacity="0.1"/>
    <path id="Path_353" data-name="Path 353" d="M230.911,309.836s-5.016,30.87,11.19,28.17l35.886-11.964s-7.716-8.1-6.558-18.522l-17.358,6.948Z" transform="translate(-164.072 -174.658)" opacity="0.1"/>
    <path id="Path_354" data-name="Path 354" d="M297.51,307.435s12.042-15.834,20.91-8.232-17.73,21.534-17.73,21.534Z" transform="translate(-191.004 -170.505)" fill="#a1616a"/>
    <path id="Path_355" data-name="Path 355" d="M276.125,203.66s-11.766,8.682-25.272,6.75-21.222,57.882-21.222,57.882-5.016,30.87,11.19,28.17L276.707,284.5s-7.716-8.106-6.558-18.522l-17.37,6.948.78-33.186,19.68-16.2Z" transform="translate(-163.56 -133.114)" fill="#67647e"/>
    <path id="Path_356" data-name="Path 356" d="M332.368,192.66l-22-5.4s1.146,1.3-.192,6.366c3.54,4.062,7.89,9.456,13.7,9.456a19.2,19.2,0,0,0,11.532-3.822A34.693,34.693,0,0,1,332.368,192.66Z" transform="translate(-196.072 -126.554)" opacity="0.1"/>
    <circle id="Ellipse_131" data-name="Ellipse 131" cx="19.296" cy="19.296" r="19.296" transform="translate(108.126 37.168)" fill="#a1616a"/>
    <path id="Path_357" data-name="Path 357" d="M317.416,148.006c4.476-.762,9.4-2.748,10.9-7.032a9.754,9.754,0,0,0-1.338-8.3,22.721,22.721,0,0,0-6.246-6c-3.858-2.712-8.112-5.04-12.756-5.856a5.238,5.238,0,0,0-2.436,0,10.057,10.057,0,0,0-1.974,1.08c-3.174,1.83-7.122,1.038-10.8.846s-8.088.846-9.246,4.32c-.36,1.074-.336,2.232-.6,3.336-.6,2.7-2.634,4.8-4.2,7.05s-2.772,5.292-1.452,7.716c.45.822,1.2,1.578,1.2,2.514a7.8,7.8,0,0,1-.6,1.926c-.546,1.992,1.044,4,2.88,4.95s3.948,1.242,5.82,2.124a10.2,10.2,0,0,1,5.682,9.444c1.7.2,3.69.3,4.842-.972.516-.57.768-1.332,1.236-1.938a13.1,13.1,0,0,1,2.3-1.9c4.038-3.318,1.17-7.9,3.456-11.478,1.2-1.842,3.108-1.278,5.04-1.248a44.531,44.531,0,0,0,8.292-.582Z" transform="translate(-182.68 -99.918)" opacity="0.1"/>
    <path id="Path_358" data-name="Path 358" d="M316.776,147.366c4.476-.762,9.4-2.748,10.9-7.032a9.755,9.755,0,0,0-1.338-8.3,22.722,22.722,0,0,0-6.246-6c-3.858-2.712-8.112-5.04-12.756-5.856a5.238,5.238,0,0,0-2.436,0,10.056,10.056,0,0,0-1.974,1.08c-3.174,1.83-7.122,1.038-10.8.846s-8.088.846-9.246,4.32c-.36,1.074-.336,2.232-.6,3.336-.6,2.7-2.634,4.8-4.2,7.05s-2.772,5.292-1.452,7.716c.45.822,1.2,1.578,1.2,2.514a7.8,7.8,0,0,1-.6,1.926c-.546,1.992,1.044,4,2.88,4.95s3.948,1.242,5.82,2.124a10.2,10.2,0,0,1,5.7,9.468c1.7.2,3.69.3,4.842-.972.516-.57.768-1.332,1.236-1.938a13.1,13.1,0,0,1,2.3-1.9c4.038-3.318,1.17-7.9,3.456-11.478,1.2-1.842,3.108-1.278,5.04-1.248A44.53,44.53,0,0,0,316.776,147.366Z" transform="translate(-182.424 -99.662)" fill="#4a4347"/>
    <path id="Path_359" data-name="Path 359" d="M382.85,273.76s4.242,22,2.316,30.486a28.29,28.29,0,0,0,.5,14.952" transform="translate(-225.14 -161.154)" opacity="0.1"/>
    <path id="Path_360" data-name="Path 360" d="M268.193,289.19s-1.848,14.664,1.23,17.748" transform="translate(-179.058 -167.326)" opacity="0.1"/>
    <path id="Path_361" data-name="Path 361" d="M447.53,589.18a.9.9,0,1,0-.9-.9A.9.9,0,0,0,447.53,589.18Z" transform="translate(-250.652 -286.602)"/>
    <g id="Group_318" data-name="Group 318" transform="translate(145.872 71.232)" opacity="0.5">
      <path id="Path_362" data-name="Path 362" d="M691.248,331.3v-.5l-163.7-125.88a.6.6,0,0,0-.714,0L363.12,330.8v195.12h.312v.312H691.566V331.114Z" transform="translate(-363.12 -204.804)" fill="url(#linear-gradient-2)"/>
    </g>
    <path id="Path_363" data-name="Path 363" d="M569.38,438.05H252.58V249.65l158.4-121.8,158.4,121.8Z" transform="translate(-101.032 -51.142)" fill="#fff"/>
    <path id="Path_364" data-name="Path 364" d="M565.58,434.324h-294V259.484l147-113.034,147,113.034Z" transform="translate(-108.632 -58.582)" fill="#e0e0e0"/>
    <rect id="Rectangle_701" data-name="Rectangle 701" width="185.4" height="235.8" transform="translate(180.478 132.27) rotate(-14.69)" fill="#ff1744"/>
    <rect id="Rectangle_702" data-name="Rectangle 702" width="185.4" height="235.8" transform="translate(218.148 119.908)" fill="#f5f5f5"/>
    <path id="Path_365" data-name="Path 365" d="M255.08,331.35l158.4,94.2-158.4,94.2Z" transform="translate(-102.032 -132.542)" opacity="0.05"/>
    <path id="Path_366" data-name="Path 366" d="M253.08,331.35l158.4,94.2-158.4,94.2Z" transform="translate(-101.232 -132.542)" fill="#fff"/>
    <path id="Path_367" data-name="Path 367" d="M673.48,331.35l-158.4,94.2,158.4,94.2Z" transform="translate(-206.032 -132.542)" opacity="0.05"/>
    <path id="Path_368" data-name="Path 368" d="M675.48,331.35l-158.4,94.2,158.4,94.2Z" transform="translate(-206.832 -132.542)" fill="#fff"/>
    <path id="Path_369" data-name="Path 369" d="M253.08,557.95l158.4-123.6,158.4,123.6Z" transform="translate(-101.232 -173.742)" opacity="0.05"/>
    <path id="Path_370" data-name="Path 370" d="M253.08,562.95l158.4-123.6,158.4,123.6Z" transform="translate(-101.232 -175.742)" fill="#fff"/>
    <path id="Path_371" data-name="Path 371" d="M424.642,697.812s-7.956-27,1.494-46.884a42.655,42.655,0,0,0,3.45-26.76A71.743,71.743,0,0,0,425.8,611.61" transform="translate(-240.605 -296.294)" fill="none" stroke="#535461" stroke-miterlimit="10" stroke-width="2"/>
    <path id="Path_372" data-name="Path 372" d="M430.45,586.67c0,3.312-6,12.906-6,12.906s-6-9.6-6-12.906a6,6,0,1,1,12,0Z" transform="translate(-239.38 -283.918)" fill="#ff1744"/>
    <path id="Path_373" data-name="Path 373" d="M446.968,615.21c-1.8,2.778-12.048,7.578-12.048,7.578s.186-11.316,1.986-14.094a6,6,0,0,1,10.062,6.516Z" transform="translate(-245.968 -294.122)" fill="#ff1744"/>
    <path id="Path_374" data-name="Path 374" d="M444.756,665.8c-2.958,1.488-14.226.462-14.226.462s5.874-9.672,8.826-11.16a6,6,0,1,1,5.4,10.7Z" transform="translate(-244.212 -313.385)" fill="#ff1744"/>
    <path id="Path_375" data-name="Path 375" d="M435.5,705.733c-2.664,1.968-13.944,2.856-13.944,2.856s4.152-10.524,6.816-12.492a6,6,0,0,1,7.128,9.636Z" transform="translate(-240.624 -329.685)" fill="#ff1744"/>
    <path id="Path_376" data-name="Path 376" d="M412.829,628.189c2.4,2.3,13.434,4.7,13.434,4.7s-2.706-10.986-5.082-13.29a6,6,0,0,0-8.352,8.6Z" transform="translate(-236.483 -298.887)" fill="#ff1744"/>
    <path id="Path_377" data-name="Path 377" d="M401.4,673.643c2.958,1.488,14.226.462,14.226.462s-5.874-9.672-8.826-11.16a6,6,0,0,0-5.4,10.7Z" transform="translate(-231.333 -316.614)" fill="#ff1744"/>
    <path id="Path_378" data-name="Path 378" d="M397.67,720.1c2.664,1.968,13.944,2.856,13.944,2.856s-4.152-10.524-6.816-12.492a6,6,0,1,0-7.128,9.636Z" transform="translate(-230 -335.294)" fill="#ff1744"/>
    <rect id="Rectangle_703" data-name="Rectangle 703" width="74.4" height="6" transform="translate(228.948 130.708)" fill="#ff1744" opacity="0.5"/>
    <rect id="Rectangle_704" data-name="Rectangle 704" width="160.8" height="6" transform="translate(228.948 154.708)" fill="#ff1744" opacity="0.5"/>
    <rect id="Rectangle_705" data-name="Rectangle 705" width="160.8" height="6" transform="translate(228.948 170.308)" fill="#ff1744" opacity="0.5"/>
    <rect id="Rectangle_706" data-name="Rectangle 706" width="160.8" height="6" transform="translate(228.948 185.908)" fill="#ff1744" opacity="0.4"/>
    <rect id="Rectangle_707" data-name="Rectangle 707" width="160.8" height="6" transform="translate(228.948 201.508)" fill="#ff1744" opacity="0.4"/>
    <rect id="Rectangle_708" data-name="Rectangle 708" width="91.8" height="6" transform="translate(228.948 217.108)" fill="#ff1744" opacity="0.3"/>
    <rect id="Rectangle_709" data-name="Rectangle 709" width="125.4" height="6" transform="translate(228.948 232.708)" fill="#ff1744" opacity="0.3"/>
  </g>
</svg>
