<svg xmlns="http://www.w3.org/2000/svg" xmlns:xlink="http://www.w3.org/1999/xlink" width="689.828" height="648.158" viewBox="0 0 689.828 648.158">
  <defs>
    <linearGradient id="linear-gradient" x1="0.5" y1="1" x2="0.5" gradientUnits="objectBoundingBox">
      <stop offset="0" stop-color="gray" stop-opacity="0.251"/>
      <stop offset="0.54" stop-color="gray" stop-opacity="0.122"/>
      <stop offset="1" stop-color="gray" stop-opacity="0.102"/>
    </linearGradient>
  </defs>
  <g id="undraw_messaging_uok8" transform="translate(-0.038 -0.005)">
    <ellipse id="Ellipse_132" data-name="Ellipse 132" cx="198.626" cy="38.318" rx="198.626" ry="38.318" transform="translate(207.702 571.528)" fill="#ff1744" opacity="0.1"/>
    <path id="Path_381" data-name="Path 381" d="M378.446,69.47c-23.979-.156-47.1-7.718-70.263-13.583A507.821,507.821,0,0,0,230.089,42.5c-27.946-2.573-56.536-2.784-83.677,4.043S93.523,67.828,77.9,89.92c-26.521,37.426-19.3,87.489-5.353,130.593,16.55,51.119,41.519,100.439,78.567,140.759,26.349,28.652,58.216,52.19,89.866,75.533,17.885,13.184,35.9,26.463,56.21,35.972,18.9,8.813,39.36,14.138,59.679,19.409,21.718,5.63,43.435,11.276,65.619,14.78,70.8,11.2,143.215.36,213.906-11.409,24.911-4.145,50.851-8.86,70.659-23.718,15.432-11.581,25.652-28.347,32.934-45.676,9.543-22.678,14.461-48.921,4.075-71.3-15.33-33.016-58.542-47.639-75.5-79.927-21.718-41.391,8.17-92.564-5.787-136.849-5.806-18.432-18.773-34.009-32.321-48.327-32.289-34.2-73.732-63.615-124.589-51.338C462.819,48.81,424.628,69.775,378.446,69.47Z" transform="translate(-60 -35.57)" fill="#ff1744" opacity="0.1"/>
    <path id="Path_382" data-name="Path 382" d="M785.158,193.482q-.7-.782-1.439-1.564c3.777-4.285,7.695-8.688,7.656-14.2-.039-6.694-5.982-11.839-8.2-18.166-3.018-8.6,1.173-17.845,2.893-26.807a50.266,50.266,0,0,0-10.9-41.352c-1.744-2.064-3.769-4.059-6.373-4.88-3.957-1.243-8.156.485-12.277.993-13.6,1.681-25.962-10.033-39.624-8.985a7.367,7.367,0,0,0-2.628.586c-1.767.845-2.729,2.714-3.816,4.317-4.246,6.256-11.37,9.384-18.455,12.551a9.648,9.648,0,0,0-2.518,1.157c-2.127.993-4.223,2.025-6.2,3.2-13.388,7.922-11.44,19.01-3.55,25.853-1.564,7.687-9.384,14.451-8.047,22.357,1.063,6.193,7.515,10.408,8.758,16.57.719,3.582-.415,6.991-1.994,10.377-14.975,3.464-31.9,9.853-33.219,21.114-2.3,19.6-9.212,73.726-9.212,73.726s-8.023,43.354,22.4,22.819l-.391,1.157a252.271,252.271,0,0,0-11.175,51.119c-.305,2.588-.931,4.622-2.057,5.286-.407.242.4.626,2.158,1.1-.2.727-.414,1.454-.6,2.19a207.758,207.758,0,0,0-6.381,38.716A272.336,272.336,0,0,1,635.18,427.2c-7.21,36.269,0,82.8,0,82.8l15.734,74.07,2.69,12.661a18.815,18.815,0,0,0,6.373,4.6,98.731,98.731,0,0,1,2.19,13.787c.039.516.078,1.04.11,1.564a6.577,6.577,0,0,0-4.692,2.917c-5.607,7.883.782,14.193-20.824,29.966-5.591,4.074-8.281,7.781-8.969,10.948h0c-.735,3.386.86,6.131,3.714,7.984h0a13.538,13.538,0,0,0,1.517.845h0q.4.188.782.36h0q.414.172.852.321h.047l.837.266h.063l.9.234h.078l.844.18h.11l.931.156h.1l.845.1h.164l.946.07h2.244l.844-.047h.227l.954-.094h.109l.853-.125.235-.039.946-.18h.094l.86-.211.242-.063c.313-.086.618-.172.931-.274h.055l.868-.3.235-.086c.305-.117.6-.235.9-.368,14.42-6.311,44.057-22.865,44.057-22.865v-3.128h0c-.086-6.8-.79-22.655-3.918-22.037-1.071.211-1.8,1.713-2.542,3.441l-.368-.7c-3.05-5.888-7.468-15.992-7.9-25.868a46.3,46.3,0,0,0,6.811-6.037s-1.611-6.78-2.979-13.935c-1.189-6.2-2.2-12.676-1.83-15.241.782-5.521-9.611-48.1-9.611-48.1s1.071-9.384,3.23-22.388c4.191-25.305,12.441-64.4,24.75-75.462.289-.25.571-.5.86-.719,0,0,8.813,1.564,16.023,51.252l2.088,22.123a128.393,128.393,0,0,0,3.128,18.181,95.834,95.834,0,0,1,2.01,29.082c-.915,13.044-1.306,28.394-1.47,39.17-.125,8.125-.125,13.654-.125,13.654a30.237,30.237,0,0,0,4.809,3.323V600.2a6.021,6.021,0,0,1-1.689,4.113h0a11.167,11.167,0,0,0-2.416,4.45c-1.4,2.518-2.581,6.608-3.073,13.184-1.564,21.294-2.4,18.924-2.4,18.924a28.076,28.076,0,0,0-1.814,7.179h0c-.047.461-.07.923-.086,1.392v1.165a4.155,4.155,0,0,0,.039.469,1.679,1.679,0,0,0,.055.422.642.642,0,0,0,.047.3,5.621,5.621,0,0,1,.117.563l.063.242c.055.2.109.383.172.571l.062.172a5.325,5.325,0,0,0,.211.5l.07.149a5.624,5.624,0,0,0,.313.555l.094.149a5.983,5.983,0,0,0,.383.516l.1.117a5.71,5.71,0,0,0,.485.493l.055.047a5.89,5.89,0,0,0,.555.43l.086.063a6.345,6.345,0,0,0,.657.375l.133.07a7.3,7.3,0,0,0,.782.3l.133.039a8.637,8.637,0,0,0,.891.242h0a9.315,9.315,0,0,0,.985.149h.141c.344,0,.7.055,1.079.055h1.6a9.709,9.709,0,0,0,1.376-.149c16.821-2.346,24.836-3.91,24.03-13.4-.485-5.7-1.838-13.982-2.839-19.667a29.566,29.566,0,0,0-2.768-8.289q.063-.665.117-1.368c.289-3.91.274-8.6-.915-11.675l.368-6.905a22.012,22.012,0,0,0,10.823-6.483s.117-5.114.469-11.9c.532-10.479,1.564-24.938,3.535-30.677,3.206-9.462,0-42.579,0-42.579s-12.019-56.773-.782-81.218c9.892-21.559,9.806-43.135.289-64.123a3.253,3.253,0,0,0,.508-.5s-2.4-1.564-1.564-19.714c.61-13.841-3.441-28.152-5.4-34.126a83.492,83.492,0,0,0,9.384,3.378c18.384,5.482,19.988-15.053,19.988-15.053l4-30.756,4.755-45.8h0C792.65,212.993,794.394,204,785.158,193.482ZM703.722,163.1a14.018,14.018,0,0,1-.109,1.517,20.411,20.411,0,0,1-1.024,4.786,31.8,31.8,0,0,0,.993-6.4Zm48.429,111.942c.281.524.555,1.024.782,1.564l-2.025-1.032a45.3,45.3,0,0,1,3.613-10.745,76.084,76.084,0,0,0,4.9-12.379,123.594,123.594,0,0,0,.711,14.741C761.761,279.775,752.151,275.044,752.151,275.044Z" transform="translate(-284.742 -44.918)" fill="url(#linear-gradient)"/>
    <path id="Path_383" data-name="Path 383" d="M696.712,109.094c-2.557,1.744-5.239,3.761-6.146,6.725-1.47,4.778,2.221,9.572,2.581,14.561.665,9.063-9.587,16.555-8.078,25.524,1.032,6.146,7.335,10.322,8.547,16.422,1.767,8.915-7.89,16.774-7.132,25.806.407,4.825,3.761,8.922,7.562,11.91a36.825,36.825,0,0,0,18.479,7.585c-.446-7.75-6.2-14.811-5.208-22.514.68-5.278,4.395-9.6,6.545-14.475,3.777-8.555,2.565-18.455.305-27.526s-5.537-18.041-5.7-27.37c-.1-5.63,2.542-13.9.6-19.237C706.713,100.007,701.1,106.1,696.712,109.094Z" transform="translate(-289.187 -50.404)" fill="#f78181"/>
    <path id="Path_384" data-name="Path 384" d="M696.712,109.094c-2.557,1.744-5.239,3.761-6.146,6.725-1.47,4.778,2.221,9.572,2.581,14.561.665,9.063-9.587,16.555-8.078,25.524,1.032,6.146,7.335,10.322,8.547,16.422,1.767,8.915-7.89,16.774-7.132,25.806.407,4.825,3.761,8.922,7.562,11.91a36.825,36.825,0,0,0,18.479,7.585c-.446-7.75-6.2-14.811-5.208-22.514.68-5.278,4.395-9.6,6.545-14.475,3.777-8.555,2.565-18.455.305-27.526s-5.537-18.041-5.7-27.37c-.1-5.63,2.542-13.9.6-19.237C706.713,100.007,701.1,106.1,696.712,109.094Z" transform="translate(-289.187 -50.404)" opacity="0.1"/>
    <path id="Path_385" data-name="Path 385" d="M700.434,768.594l-7.038,7.038s-25.024,13.294-21.9-4.692a64.723,64.723,0,0,0,.539-16.172,100.512,100.512,0,0,0-4.45-22.146l23.46-4.692c-3.91,12.262,2.526,27.7,6.538,35.557C699.19,766.654,700.434,768.594,700.434,768.594Z" transform="translate(-282.997 -186.509)" fill="#ffb9b9"/>
    <path id="Path_386" data-name="Path 386" d="M771.526,752.843a71.559,71.559,0,0,1-.891,7.187s-19.55,13.294-21.114-1.564c-1.016-9.681,1.283-14.076,3.019-15.921h0a6.022,6.022,0,0,0,1.642-4.074V720.93l17.2,5.474-.782,14.858C771.792,744.351,771.807,748.964,771.526,752.843Z" transform="translate(-311.672 -184.983)" fill="#ffb9b9"/>
    <path id="Path_387" data-name="Path 387" d="M701.448,776.056l-7.038,7.038s-25.024,13.294-21.9-4.692a64.712,64.712,0,0,0,.54-16.172c5.474-.782,11.972,5.224,11.972,5.224,9.165,12.934,11.636,8.039,13.575,3.5C700.2,774.117,701.448,776.056,701.448,776.056Z" transform="translate(-284.297 -193.971)" opacity="0.05"/>
    <path id="Path_388" data-name="Path 388" d="M675.853,769.452s-10.948-10.166-16.422-2.346.782,14.076-20.332,29.716,0,25.806,14.076,19.55,43.01-22.678,43.01-22.678,0-25.806-3.91-25.024S689.147,788.22,675.853,769.452Z" transform="translate(-272.882 -194.405)" fill="#8189a6"/>
    <path id="Path_389" data-name="Path 389" d="M771.526,758.607a71.562,71.562,0,0,1-.891,7.187s-19.55,13.294-21.114-1.564c-1.016-9.681,1.283-14.076,3.019-15.921a4.692,4.692,0,0,1,4.8-.5c3.128-1.392,6.569.93,9.384,3.91A27.65,27.65,0,0,1,771.526,758.607Z" transform="translate(-311.654 -190.746)" opacity="0.05"/>
    <path id="Path_390" data-name="Path 390" d="M755.583,749.806s-8.6-4.692-10.166,16.422S743.071,785,743.071,785s-7.82,18.768,8.6,16.422,24.242-3.91,23.46-13.294c-.469-5.654-1.8-13.872-2.776-19.5A28.673,28.673,0,0,0,765,753.763C762.16,750.729,758.711,748.414,755.583,749.806Z" transform="translate(-310.16 -191.181)" fill="#8189a6"/>
    <path id="Path_391" data-name="Path 391" d="M760.715,575.817s3.128,32.844,0,42.228c-1.9,5.693-2.933,20.035-3.449,30.427-.344,6.725-.461,11.8-.461,11.8-14.858,15.64-32.062,0-32.062,0s0-5.474.125-13.544c.164-10.69.547-25.915,1.439-38.849a96.44,96.44,0,0,0-1.963-28.84,129.2,129.2,0,0,1-3.034-18.025l-2.041-21.943c-7.038-49.265-15.64-50.829-15.64-50.829-.281.219-.555.461-.837.712C690.774,499.9,682.719,538.7,678.63,563.79c-2.1,12.911-3.128,22.2-3.128,22.2s10.166,42.227,9.384,47.7c-.36,2.542.626,8.97,1.783,15.116,1.337,7.093,2.909,13.818,2.909,13.818-19.55,21.114-32.844,4.692-32.844,4.692l-2.628-12.559L638.748,581.3s-7.038-46.137,0-82.109a274.091,274.091,0,0,0,4.692-34.2,209.033,209.033,0,0,1,6.256-38.4q1.431-5.583,3.175-11.081s29.364-5.106,57.015-5.106c20.739,0,40.507,2.87,46.208,12.926q1.97,3.472,3.581,6.96c9.9,21.278,10.166,43.135.329,64.983C748.985,519.514,760.715,575.817,760.715,575.817Z" transform="translate(-283.148 -117.287)" fill="#4c4c78"/>
    <path id="Path_392" data-name="Path 392" d="M705.5,235.545s-41.445-42.228-10.166-39.1c7.093.712,11.894-.555,15.077-2.932,3.628-2.706,5.153-6.85,5.576-11.175.86-8.6-2.667-17.986-2.667-17.986s42.228-33.626,33.626,8.6a72,72,0,0,0-1.642,13.051c-.141,8.962,2.807,12.395,6.944,13.8,6.975,2.385,17.345-.954,22.068,6.772C782.917,220.687,705.5,235.545,705.5,235.545Z" transform="translate(-296.109 -60.878)" fill="#ffb9b9"/>
    <path id="Path_393" data-name="Path 393" d="M755.216,172.99a71.989,71.989,0,0,0-1.642,13.051,31.919,31.919,0,0,1-3.433.977,33.688,33.688,0,0,1-25.884-4.692c.86-8.6-2.667-17.986-2.667-17.986S763.818,130.763,755.216,172.99Z" transform="translate(-303.053 -60.883)" opacity="0.05"/>
    <path id="Path_394" data-name="Path 394" d="M772.841,143.569a33.626,33.626,0,0,1-67.251,0c0-.626,0-1.251.055-1.869a33.626,33.626,0,0,1,67.2,1.869Z" transform="translate(-301.203 -51.793)" fill="#ffb9b9"/>
    <path id="Path_395" data-name="Path 395" d="M705.5,247.212s-41.445-42.228-10.166-39.1c7.093.712,11.894-.555,15.077-2.932-6.053,10.041-12.864,28.1,17.767,26.392,28.034-1.564,27.557-12.731,24.07-20.066,6.975,2.385,17.345-.954,22.068,6.772C782.917,232.354,705.5,247.212,705.5,247.212Z" transform="translate(-296.109 -72.545)" opacity="0.05"/>
    <path id="Path_396" data-name="Path 396" d="M764.62,433.492c-7.116,9.251-97.827-2.878-111.09-6.905q1.431-5.583,3.175-11.081s29.364-5.106,57.015-5.106c20.739,0,40.507,2.87,46.208,12.926q1.971,3.472,3.582,6.96C764.01,433.086,764.62,433.492,764.62,433.492Z" transform="translate(-287.272 -117.285)" opacity="0.1"/>
    <path id="Path_397" data-name="Path 397" d="M704.454,199.93s-52.784,4.3-55.13,24.633c-2.244,19.44-8.993,73.116-8.993,73.116s-7.82,43.01,21.9,22.678l-.383,1.142a253.611,253.611,0,0,0-10.909,50.7c-.3,2.565-.907,4.582-2.01,5.247-3.91,2.346,104.787,17.986,112.607,7.82,0,0-2.346-1.564-1.564-19.55s-6.256-36.754-6.256-36.754-6.256-18.768,2.346-36.754,5.474-23.46,5.474-23.46l29.716-22.678s6.42-11-5.318-24.578A40.663,40.663,0,0,0,758,207.726l-20.488-1.486s22.459,24.164-19.769,26.51S704.454,199.93,704.454,199.93Z" transform="translate(-287.741 -71.401)" fill="#f9d048"/>
    <path id="Path_398" data-name="Path 398" d="M676.416,254.93s1.564,12.512-1.564,16.422-3.91,21.9,0,32.844" transform="translate(-281.623 -83.391)" opacity="0.05"/>
    <path id="Path_399" data-name="Path 399" d="M714.537,505.845c-12.019,10.948-20.074,49.742-24.164,74.837-5.693-34.932,17.986-92.752,17.986-92.752Z" transform="translate(-290.142 -134.187)" opacity="0.1"/>
    <path id="Path_400" data-name="Path 400" d="M694.7,729.078c-19.55,21.114-32.844,4.692-32.844,4.692l-2.628-12.559c7.39,3.84,19.878,6.819,32.562-5.951C693.13,722.353,694.7,729.078,694.7,729.078Z" transform="translate(-280.218 -183.747)" opacity="0.1"/>
    <path id="Path_401" data-name="Path 401" d="M782.113,714.354c-.344,6.725-.461,11.8-.461,11.8-14.858,15.64-32.062,0-32.062,0s0-5.474.125-13.544C756.167,716.708,767.764,721.22,782.113,714.354Z" transform="translate(-313.053 -183.169)" opacity="0.1"/>
    <rect id="Rectangle_712" data-name="Rectangle 712" width="53.175" height="21.896" rx="3.75" transform="translate(391.704 198.127)" fill="#cdd0db"/>
    <rect id="Rectangle_713" data-name="Rectangle 713" width="53.175" height="21.896" rx="3.75" transform="translate(391.704 198.127)" opacity="0.05"/>
    <rect id="Rectangle_714" data-name="Rectangle 714" width="53.175" height="21.896" rx="3.75" transform="translate(391.704 198.909)" fill="#cdd0db"/>
    <circle id="Ellipse_133" data-name="Ellipse 133" cx="2.346" cy="2.346" r="2.346" transform="translate(429.415 207.12)" fill="#9da7c0"/>
    <path id="Path_402" data-name="Path 402" d="M653.479,325.8a15.209,15.209,0,0,1,8.837-9.306,13.756,13.756,0,0,0,7.585-6.811c3.081-6.827,8.555-13.865,22.631-9.173s-3.91,7.82-3.91,7.82,32.062-4.692,19.55,4.692-28.152,14.858-28.152,14.858l-7.7,8.156a11.523,11.523,0,0,1-17.2-.344C653.158,333.295,652.126,330.073,653.479,325.8Z" transform="translate(-280.441 -92.995)" opacity="0.05"/>
    <path id="Path_403" data-name="Path 403" d="M652.479,323.8a15.21,15.21,0,0,1,8.836-9.306,13.757,13.757,0,0,0,7.585-6.811c3.081-6.827,8.555-13.865,22.631-9.173s-3.91,7.82-3.91,7.82,32.062-4.692,19.55,4.692-28.152,14.858-28.152,14.858l-7.7,8.156a11.522,11.522,0,0,1-17.2-.344C652.158,331.295,651.126,328.073,652.479,323.8Z" transform="translate(-280.069 -92.559)" fill="#ffb9b9"/>
    <path id="Path_404" data-name="Path 404" d="M778.62,341.2,773.146,354.5l-7.038-5.153-19.55-14.4-13.294-8.6c-18.768-14.076,0-16.422,0-16.422-7.038-3.128,0-6.256,0-6.256,25.024-5.474,20.332,14.858,20.332,14.858l15.851,8.219,5.263,2.729Z" transform="translate(-306.653 -93.813)" opacity="0.05"/>
    <path id="Path_405" data-name="Path 405" d="M780.62,339.2,775.146,352.5l-7.038-5.153-19.55-14.4-13.294-8.6c-18.768-14.076,0-16.422,0-16.422-7.038-3.128,0-6.256,0-6.256,25.024-5.474,20.332,14.858,20.332,14.858l15.851,8.219,5.263,2.729Z" transform="translate(-307.395 -93.377)" fill="#ffb9b9"/>
    <path id="Path_406" data-name="Path 406" d="M792.1,345.9l-5.474,13.294-7.038-5.153c6.342.227,13.833-2.839,3.308-22.6l5.263,2.729Z" transform="translate(-321.485 -100.071)" opacity="0.05"/>
    <path id="Path_407" data-name="Path 407" d="M819.728,248.93l1.509,6.154L816.6,300.542l-3.91,30.5s-1.564,20.332-19.55,14.858-19.55-10.948-19.55-10.948,25.806,8.6,9.384-21.9c0,0,9.384,4.692,7.82-7.82s0-34.408,0-34.408Z" transform="translate(-323.878 -82.083)" fill="#f9d048"/>
    <path id="Path_408" data-name="Path 408" d="M772.846,143.569a33.627,33.627,0,0,1-26.193,32.8c-1.122-3.254-1.92-6.491-1.1-9.784,1.564-6.389,8.962-11.05,8.14-17.579a4.331,4.331,0,0,0-.782-2.049c-1.65-2.174-5.013-1.095-7.687-.555a14.627,14.627,0,0,1-16.359-10.088A22.858,22.858,0,0,1,705.61,141.7a33.626,33.626,0,0,1,67.2,1.869Z" transform="translate(-301.208 -51.793)" opacity="0.05"/>
    <path id="Path_409" data-name="Path 409" d="M725.713,128.555a14.605,14.605,0,0,0,16.351,10.08c2.674-.532,6.037-1.611,7.687.563a4.224,4.224,0,0,1,.743,2.041c.829,6.537-6.545,11.19-8.133,17.587-1.634,6.584,3.128,12.942,4.184,19.644.555,3.668,0,7.405,0,11.112s.876,7.695,3.628,10.166,7.82,2.518,9.673-.7c8.8,4.653,5.286,19.065,11.965,26.439,3.683,4.066,9.744,5.044,15.21,4.528a6.413,6.413,0,0,0,3.574-1.157,6.256,6.256,0,0,0,1.751-3.284,26.674,26.674,0,0,0-.68-15.82c-.876-2.432-2.135-4.887-1.806-7.445a11,11,0,0,1,2.714-5.318c4.2-5.208,9.931-10.244,9.892-16.938s-5.842-11.73-8.008-17.986c-2.948-8.547,1.142-17.7,2.823-26.588a50.43,50.43,0,0,0-10.635-41.055c-1.7-2.049-3.683-4.027-6.256-4.841-3.855-1.236-7.961.485-11.988.985-13.294,1.666-25.344-9.955-38.685-8.915a7.1,7.1,0,0,0-2.565.586c-1.728.837-2.659,2.69-3.73,4.285-5.888,8.8-17.462,11.308-26.533,16.766C670.434,119.219,705.452,148.058,725.713,128.555Z" transform="translate(-300.801 -45.601)" fill="#f78181"/>
    <path id="Path_410" data-name="Path 410" d="M653.178,820.608c-9.142,4.058-21.239,1.2-22.826-5.583-1.916,8.962,12.387,13.356,22.826,8.711,14.076-6.256,43.009-22.678,43.009-22.678s0-1.212-.039-3.128C695.3,798.43,667.043,814.407,653.178,820.608Z" transform="translate(-272.884 -201.769)" fill="#fff" opacity="0.3"/>
    <path id="Path_411" data-name="Path 411" d="M775.094,798.35c-.9,7.038-8.7,8.516-23.421,10.619-7.484,1.072-9.924-2.252-10.377-6.178-.493,5.028.938,10.651,10.377,9.306,16.422-2.346,24.242-3.91,23.46-13.294C775.118,798.655,775.1,798.5,775.094,798.35Z" transform="translate(-310.16 -201.861)" fill="#fff" opacity="0.3"/>
    <path id="Path_412" data-name="Path 412" d="M907.494,766.745s-11.323-57.39,11.988-96.686A88.6,88.6,0,0,0,931.7,615.367a149.022,149.022,0,0,0-5.474-26.7" transform="translate(-369.206 -156.149)" fill="none" stroke="#535461" stroke-miterlimit="10" stroke-width="2"/>
    <path id="Path_413" data-name="Path 413" d="M943.929,553.08c-.626,6.842-14.858,25.556-14.858,25.556S918.5,557.647,919.132,550.8a12.448,12.448,0,1,1,24.792,2.276Z" transform="translate(-374.068 -145.426)" fill="#ff1744"/>
    <path id="Path_414" data-name="Path 414" d="M965.253,602.038c-4.246,5.4-26.353,13.388-26.353,13.388s2.534-23.366,6.78-28.77a12.449,12.449,0,1,1,19.55,15.382Z" transform="translate(-406.289 -154.581)" fill="#ff1744"/>
    <path id="Path_415" data-name="Path 415" d="M955.615,683.83c-6.4,2.518-29.5-1.752-29.5-1.752s13.982-18.893,20.379-21.411a12.449,12.449,0,1,1,9.126,23.164Z" transform="translate(-403.5 -171.655)" fill="#ff1744"/>
    <path id="Path_416" data-name="Path 416" d="M934.919,745.212c-5.881,3.566-29.38,3.261-29.38,3.261s10.6-20.973,16.469-24.547a12.448,12.448,0,1,1,12.911,21.287Z" transform="translate(-370.728 -185.242)" fill="#ff1744"/>
    <path id="Path_417" data-name="Path 417" d="M904.625,617.792c4.473,5.224,26.893,12.262,26.893,12.262S928,606.813,923.534,601.6a12.449,12.449,0,1,0-18.91,16.2Z" transform="translate(-368.444 -158.019)" fill="#ff1744"/>
    <path id="Path_418" data-name="Path 418" d="M880.49,688.906c5.826,3.644,29.333,3.652,29.333,3.652s-10.307-21.106-16.132-24.766A12.449,12.449,0,1,0,880.5,688.907Z" transform="translate(-359.344 -172.986)" fill="#ff1744"/>
    <path id="Path_419" data-name="Path 419" d="M867.751,762.073c5.13,4.575,28.292,8.563,28.292,8.563s-6.592-22.56-11.73-27.135a12.449,12.449,0,1,0-16.562,18.572Z" transform="translate(-354.809 -189.153)" fill="#ff1744"/>
    <path id="Path_420" data-name="Path 420" d="M564.559,167.378a11.362,11.362,0,0,0-11.315-10.948H348.635a11.542,11.542,0,0,0-11.558,9.955,11.37,11.37,0,0,0,11.253,12.723H553.924A9.094,9.094,0,0,1,562.776,184a14.412,14.412,0,0,1,1.322,3.91l.461.227V167.409Z" transform="translate(-174.683 -61.917)" fill="#ff1744"/>
    <path id="Path_421" data-name="Path 421" d="M597.042,261.378a11.362,11.362,0,0,0-11.316-10.948H497.635a11.542,11.542,0,0,0-11.558,9.955,11.37,11.37,0,0,0,11.253,12.723h89.077a9.1,9.1,0,0,1,8.852,4.887,14.411,14.411,0,0,1,1.322,3.91l.462.227V261.409Z" transform="translate(-223.113 -82.41)" fill="#ff1744"/>
    <path id="Path_422" data-name="Path 422" d="M288,120.378c.133-6.053,3.4-10.948,7.39-10.948H429.173c4.074,0,7.405,5.1,7.405,11.339s-3.331,11.339-7.405,11.339H295.366a6.068,6.068,0,0,0-5.865,3.91,21.112,21.112,0,0,0-1.2,4.88l-.3.227V120.4Z" transform="translate(-149.321 -51.671)" fill="#ff1744" opacity="0.2"/>
    <path id="Path_423" data-name="Path 423" d="M288,214.378c.164-6.053,4.137-10.948,8.985-10.948H459.639c4.95,0,9,5.1,9,11.339s-4.051,11.339-9,11.339H296.985c-3.128,0-6.037,1.439-7.132,3.91a18.113,18.113,0,0,0-1.462,4.88l-.367.227V214.4Z" transform="translate(-151.235 -72.164)" fill="#ff1744" opacity="0.2"/>
    <circle id="Ellipse_134" data-name="Ellipse 134" cx="3.91" cy="3.91" r="3.91" transform="translate(281.752 175.058)" fill="#fff" opacity="0.2"/>
    <circle id="Ellipse_135" data-name="Ellipse 135" cx="3.91" cy="3.91" r="3.91" transform="translate(292.588 175.058)" fill="#fff" opacity="0.2"/>
    <circle id="Ellipse_136" data-name="Ellipse 136" cx="3.91" cy="3.91" r="3.91" transform="translate(303.424 175.058)" fill="#fff" opacity="0.2"/>
  </g>
</svg>
